{
.appVersion = "3198";
.formatVersion = 3;
axes = (
{
name = Weight;
tag = wght;
},
{
name = GRAD;
tag = GRAD;
}
);
classes = (
{

glyphs = (
{
glyphname = .notdef;
lastChange = "2023-06-05 08:33:36 +0000";
layers = (
{
layerId = "E2DCCAAC-30DB-413E-982C-2359C46E476F";
shapes = (
{
closed = 1;
nodes = (
(1020,0,ls),
(1080,0,o),
(1116,35,o),
(1116,96,cs),
(1116,1274,ls),
(1116,1335,o),
(1080,1370,o),
(1020,1370,cs),
(293,1370,ls),
(233,1370,o),
(197,1335,o),
(197,1274,cs),
(197,96,ls),
(197,35,o),
(233,0,o),
(293,0,cs)
);
},
{
closed = 1;
nodes = (
(673,608,l),
(723,664,l),
(944,1017,o),
(962,1050,o),
(1003,1147,c),
(1090,1127,l),
(1008,1343,l),
(651,768,l),
(601,712,l),
(380,359,o),
(362,326,o),
(322,229,c),
(234,249,l),
(306,17,l)
);
},
{
closed = 1;
nodes = (
(1098,247,l),
(1000,227,l),
(960,324,o),
(943,352,o),
(700,736,cs),
(314,1346,l),
(223,1127,l),
(320,1147,l),
(361,1050,o),
(378,1022,o),
(621,638,cs),
(1007,28,l)
);
},
{
closed = 1;
nodes = (
(322,304,o),
(326,368,o),
(326,680,cs),
(326,987,o),
(322,1069,o),
(301,1262,c),
(385,1257,o),
(469,1250,o),
(659,1250,cs),
(849,1250,o),
(939,1257,o),
(1022,1262,c),
(1001,1067,o),
(997,986,o),
(997,680,cs),
(997,369,o),
(1001,306,o),
(1022,108,c),
(938,117,o),
(849,120,o),
(659,120,cs),
(469,120,o),
(385,117,o),
(301,108,c)
);
}
);
width = 1313.8;
},
{
layerId = "33C6340C-19D4-4BAD-95FA-1AE5BEBDD22C";
shapes = (
{
closed = 1;
nodes = (
(975,0,ls),
(1035,0,o),
(1071,35,o),
(1071,96,cs),
(1071,1274,ls),
(1071,1335,o),
(1035,1370,o),
(975,1370,cs),
(248,1370,ls),
(188,1370,o),
(152,1335,o),
(152,1274,cs),
(152,96,ls),
(152,35,o),
(188,0,o),
(248,0,cs)
);
},
{
closed = 1;
nodes = (
(628,608,l),
(678,664,l),
(899,1017,o),
(917,1050,o),
(958,1147,c),
(1045,1127,l),
(963,1343,l),
(606,768,l),
(556,712,l),
(335,359,o),
(317,326,o),
(277,229,c),
(189,249,l),
(261,17,l)
);
},
{
closed = 1;
nodes = (
(1053,247,l),
(955,227,l),
(915,324,o),
(898,352,o),
(655,736,cs),
(269,1346,l),
(178,1127,l),
(275,1147,l),
(316,1050,o),
(333,1022,o),
(576,638,cs),
(962,28,l)
);
},
{
closed = 1;
nodes = (
(277,304,o),
(281,368,o),
(281,680,cs),
(281,987,o),
(277,1069,o),
(256,1262,c),
(340,1257,o),
(424,1250,o),
(614,1250,cs),
(804,1250,o),
(894,1257,o),
(977,1262,c),
(956,1067,o),
(952,986,o),
(952,680,cs),
(952,369,o),
(956,306,o),
(977,108,c),
(893,117,o),
(804,120,o),
(614,120,cs),
(424,120,o),
(340,117,o),
(256,108,c)
);
}
);
width = 1223.32;
},
{
layerId = "11405D41-D873-4173-B059-BD48D7789B90";
shapes = (
{
closed = 1;
nodes = (
(1024,0,ls),
(1084,0,o),
(1120,35,o),
(1120,96,cs),
(1120,1274,ls),
(1120,1335,o),
(1084,1370,o),
(1024,1370,cs),
(297,1370,ls),
(237,1370,o),
(201,1335,o),
(201,1274,cs),
(201,96,ls),
(201,35,o),
(237,0,o),
(297,0,cs)
);
},
{
closed = 1;
nodes = (
(677,608,l),
(727,664,l),
(948,1017,o),
(966,1050,o),
(1007,1147,c),
(1094,1127,l),
(1012,1343,l),
(655,768,l),
(605,712,l),
(384,359,o),
(366,326,o),
(326,229,c),
(238,249,l),
(310,17,l)
);
},
{
closed = 1;
nodes = (
(1102,247,l),
(1004,227,l),
(964,324,o),
(947,352,o),
(704,736,cs),
(318,1346,l),
(227,1127,l),
(324,1147,l),
(365,1050,o),
(382,1022,o),
(625,638,cs),
(1011,28,l)
);
},
{
closed = 1;
nodes = (
(326,304,o),
(330,368,o),
(330,680,cs),
(330,987,o),
(326,1069,o),
(305,1262,c),
(389,1257,o),
(473,1250,o),
(663,1250,cs),
(853,1250,o),
(943,1257,o),
(1026,1262,c),
(1005,1067,o),
(1001,986,o),
(1001,680,cs),
(1001,369,o),
(1005,306,o),
(1026,108,c),
(942,117,o),
(853,120,o),
(663,120,cs),
(473,120,o),
(389,117,o),
(305,108,c)
);
}
);
width = 1320.56;
},
{
layerId = "E2DCE989-2657-47EA-91FE-B2106D1F3005";
shapes = (
{
closed = 1;
nodes = (
(979,0,ls),
(1039,0,o),
(1075,35,o),
(1075,96,cs),
(1075,1274,ls),
(1075,1335,o),
(1039,1370,o),
(979,1370,cs),
(252,1370,ls),
(192,1370,o),
(156,1335,o),
(156,1274,cs),
(156,96,ls),
(156,35,o),
(192,0,o),
(252,0,cs)
);
},
{
closed = 1;
nodes = (
(632,608,l),
(682,664,l),
(903,1017,o),
(921,1050,o),
(962,1147,c),
(1049,1127,l),
(967,1343,l),
(610,768,l),
(560,712,l),
(339,359,o),
(321,326,o),
(281,229,c),
(193,249,l),
(265,17,l)
);
},
{
closed = 1;
nodes = (
(1057,247,l),
(959,227,l),
(919,324,o),
(902,352,o),
(659,736,cs),
(273,1346,l),
(182,1127,l),
(279,1147,l),
(320,1050,o),
(337,1022,o),
(580,638,cs),
(966,28,l)
);
},
{
closed = 1;
nodes = (
(281,304,o),
(285,368,o),
(285,680,cs),
(285,987,o),
(281,1069,o),
(260,1262,c),
(344,1257,o),
(428,1250,o),
(618,1250,cs),
(808,1250,o),
(898,1257,o),
(981,1262,c),
(960,1067,o),
(956,986,o),
(956,680,cs),
(956,369,o),
(960,306,o),
(981,108,c),
(897,117,o),
(808,120,o),
(618,120,cs),
(428,120,o),
(344,117,o),
(260,108,c)
);
}
);
width = 1231.328;
}
);
metricLeft = H;
metricRight = H;
},
{
glyphname = A;
kernLeft = A;
kernRight = A;
lastChange = "2023-06-05 08:33:36 +0000";
layers = (
{
anchors = (
{
name = bottom;
pos = (598,0);
},
{
name = ogonek;
pos = (1141,9);
},
{
name = top;
pos = (597,1464);
}
);
layerId = "E2DCCAAC-30DB-413E-982C-2359C46E476F";
shapes = (
{
closed = 1;
nodes = (
(52,9,l),
(56,2,l),
(79,-4,o),
(100,-8,o),
(131,-8,cs),
(155,-8,o),
(180,-6,o),
(199,-2,c),
(515,963,ls),
(531,1016,o),
(562,1123,o),
(582,1201,c),
(592,1201,l),
(617,1110,o),
(655,984,o),
(695,866,cs),
(958,67,ls),
(979,5,o),
(1001,-12,o),
(1050,-12,cs),
(1087,-12,o),
(1118,-6,o),
(1141,9,c),
(682,1366,l),
(665,1370,o),
(622,1372,o),
(599,1372,cs),
(573,1372,o),
(533,1370,o),
(509,1366,c)
);
},
{
closed = 1;
nodes = (
(723,354,ls),
(736,354,o),
(861,356,o),
(876,356,cs),
(936,356,l),
(892,487,l),
(838,487,ls),
(823,487,o),
(717,489,o),
(704,489,cs),
(475,489,ls),
(462,489,o),
(359,487,o),
(345,487,cs),
(291,487,l),
(242,356,l),
(303,356,ls),
(317,356,o),
(441,354,o),
(454,354,cs)
);
}
);
width = 1193.75;
},
{
anchors = (
{
name = bottom;
pos = (644,0);
},
{
name = ogonek;
pos = (1259,21);
},
{
name = top;
pos = (644,1464);
}
);
layerId = "33C6340C-19D4-4BAD-95FA-1AE5BEBDD22C";
shapes = (
{
closed = 1;
nodes = (
(17,25,l),
(29,7,l),
(65,-6,o),
(135,-13,o),
(183,-13,cs),
(233,-13,o),
(279,-11,o),
(319,-2,c),
(523,693,ls),
(554,802,o),
(600,963,o),
(620,1074,c),
(632,1074,l),
(666,941,o),
(711,775,o),
(742,663,cs),
(885,156,ls),
(923,19,o),
(974,-17,o),
(1076,-17,cs),
(1136,-17,o),
(1215,-4,o),
(1259,21,c),
(829,1364,l),
(778,1374,o),
(695,1377,o),
(644,1377,cs),
(590,1377,o),
(510,1374,o),
(459,1366,c)
);
},
{
closed = 1;
nodes = (
(768,286,ls),
(796,286,o),
(842,288,o),
(871,288,cs),
(1039,288,l),
(958,537,l),
(805,537,ls),
(776,537,o),
(733,539,o),
(704,539,cs),
(558,539,ls),
(530,539,o),
(486,537,o),
(458,537,cs),
(310,537,l),
(213,288,l),
(381,288,ls),
(409,288,o),
(455,286,o),
(483,286,cs)
);
}
);
width = 1276.4;
},
{
anchors = (
{
name = bottom;
pos = (594,0);
},
{
name = ogonek;
pos = (1132,8);
},
{
name = top;
pos = (593,1464);
}
);
layerId = "11405D41-D873-4173-B059-BD48D7789B90";
shapes = (
{
closed = 1;
nodes = (
(55,8,l),
(58,2,l),
(80,-4,o),
(97,-8,o),
(127,-8,cs),
(149,-8,o),
(172,-6,o),
(190,-2,c),
(514,983,ls),
(529,1032,o),
(559,1135,o),
(579,1210,c),
(589,1210,l),
(613,1123,o),
(651,1000,o),
(691,881,cs),
(963,60,ls),
(983,4,o),
(1003,-12,o),
(1048,-12,cs),
(1083,-12,o),
(1111,-6,o),
(1132,8,c),
(671,1366,l),
(656,1370,o),
(617,1372,o),
(595,1372,cs),
(572,1372,o),
(535,1370,o),
(513,1366,c)
);
},
{
closed = 1;
nodes = (
(719,359,ls),
(731,359,o),
(862,361,o),
(876,361,cs),
(928,361,l),
(887,483,l),
(841,483,ls),
(827,483,o),
(716,485,o),
(704,485,cs),
(469,485,ls),
(457,485,o),
(350,483,o),
(336,483,cs),
(290,483,l),
(244,361,l),
(297,361,ls),
(310,361,o),
(440,359,o),
(452,359,cs)
);
}
);
width = 1187.575;
},
{
anchors = (
{
name = bottom;
pos = (640,0);
},
{
name = ogonek;
pos = (1249,20);
},
{
name = top;
pos = (640,1464);
}
);
layerId = "E2DCE989-2657-47EA-91FE-B2106D1F3005";
shapes = (
{
closed = 1;
nodes = (
(20,24,l),
(31,7,l),
(66,-6,o),
(132,-13,o),
(178,-13,cs),
(226,-13,o),
(270,-11,o),
(308,-2,c),
(522,717,ls),
(551,821,o),
(596,977,o),
(616,1085,c),
(628,1085,l),
(661,956,o),
(706,794,o),
(738,680,cs),
(891,148,ls),
(928,18,o),
(977,-17,o),
(1074,-17,cs),
(1131,-17,o),
(1207,-4,o),
(1249,20,c),
(816,1364,l),
(768,1374,o),
(689,1377,o),
(640,1377,cs),
(589,1377,o),
(513,1374,o),
(464,1366,c)
);
},
{
closed = 1;
nodes = (
(764,292,ls),
(791,292,o),
(843,294,o),
(871,294,cs),
(1030,294,l),
(952,532,l),
(808,532,ls),
(780,532,o),
(732,534,o),
(704,534,cs),
(551,534,ls),
(524,534,o),
(475,532,o),
(448,532,cs),
(309,532,l),
(215,294,l),
(374,294,ls),
(400,294,o),
(454,292,o),
(481,292,cs)
);
}
);
width = 1269.085;
}
);
unicode = 65;
},
{
glyphname = B;
lastChange = "2023-06-05 08:33:36 +0000";
layers = (
{
anchors = (
{
name = bottom;
pos = (590,0);
},
{
name = top;
pos = (557,1464);
}
);
layerId = "E2DCCAAC-30DB-413E-982C-2359C46E476F";
shapes = (
{
closed = 1;
nodes = (
(197,1354,l),
(197,12,l),
(210,0,l),
(349,-2,o),
(457,-6,o),
(622,-6,cs),
(970,-6,o),
(1086,186,o),
(1086,377,cs),
(1086,589,o),
(916,738,o),
(748,739,c),
(748,711,l),
(914,729,o),
(1020,857,o),
(1020,1012,cs),
(1020,1223,o),
(904,1372,o),
(600,1372,cs),
(473,1372,o),
(349,1368,o),
(210,1366,c)
);
},
{
closed = 1;
nodes = (
(351,1247,l),
(423,1245,o),
(536,1245,o),
(603,1245,cs),
(822,1245,o),
(860,1123,o),
(860,1015,cs),
(860,910,o),
(814,783,o),
(597,783,cs),
(287,783,l),
(287,653,l),
(615,653,ls),
(860,653,o),
(925,494,o),
(925,387,cs),
(925,277,o),
(879,121,o),
(634,121,cs),
(541,121,o),
(445,119,o),
(351,119,c)
);
}
);
width = 1199.7;
},
{
anchors = (
{
name = bottom;
pos = (597,0);
},
{
name = top;
pos = (580,1464);
}
);
layerId = "33C6340C-19D4-4BAD-95FA-1AE5BEBDD22C";
shapes = (
{
closed = 1;
nodes = (
(152,1356,l),
(152,10,l),
(166,-4,l),
(337,-7,o),
(504,-11,o),
(659,-11,cs),
(965,-11,o),
(1159,113,o),
(1159,393,cs),
(1159,579,o),
(1013,743,o),
(851,753,c),
(851,721,l),
(984,737,o),
(1095,867,o),
(1095,1014,cs),
(1095,1266,o),
(906,1377,o),
(627,1377,cs),
(485,1377,o),
(326,1373,o),
(166,1370,c)
);
},
{
closed = 1;
nodes = (
(467,1153,l),
(517,1151,o),
(576,1151,o),
(611,1151,cs),
(745,1151,o),
(783,1071,o),
(783,992,cs),
(783,914,o),
(746,830,o),
(611,830,cs),
(347,830,l),
(347,603,l),
(634,603,ls),
(794,603,o),
(838,494,o),
(838,406,cs),
(838,322,o),
(799,213,o),
(636,213,cs),
(593,213,o),
(532,213,o),
(467,211,c)
);
}
);
width = 1229.28;
},
{
anchors = (
{
name = bottom;
pos = (590,0);
},
{
name = top;
pos = (555,1464);
}
);
layerId = "11405D41-D873-4173-B059-BD48D7789B90";
shapes = (
{
closed = 1;
nodes = (
(201,1354,l),
(201,12,l),
(213,0,l),
(350,-2,o),
(453,-6,o),
(619,-6,cs),
(970,-6,o),
(1081,191,o),
(1081,376,cs),
(1081,590,o),
(909,738,o),
(740,738,c),
(740,710,l),
(909,728,o),
(1015,856,o),
(1015,1012,cs),
(1015,1220,o),
(904,1372,o),
(598,1372,cs),
(472,1372,o),
(351,1368,o),
(213,1366,c)
);
},
{
closed = 1;
nodes = (
(342,1254,l),
(416,1252,o),
(533,1252,o),
(602,1252,cs),
(828,1252,o),
(866,1127,o),
(866,1017,cs),
(866,910,o),
(819,779,o),
(596,779,cs),
(283,779,l),
(283,657,l),
(614,657,ls),
(865,657,o),
(932,494,o),
(932,386,cs),
(932,273,o),
(885,114,o),
(634,114,cs),
(537,114,o),
(439,112,o),
(342,112,c)
);
}
);
width = 1197.49;
},
{
anchors = (
{
name = bottom;
pos = (597,0);
},
{
name = top;
pos = (577,1464);
}
);
layerId = "E2DCE989-2657-47EA-91FE-B2106D1F3005";
shapes = (
{
closed = 1;
nodes = (
(156,1356,l),
(156,10,l),
(170,-4,l),
(338,-7,o),
(500,-11,o),
(655,-11,cs),
(965,-11,o),
(1153,119,o),
(1153,392,cs),
(1153,580,o),
(1005,743,o),
(842,752,c),
(842,720,l),
(978,736,o),
(1089,866,o),
(1089,1014,cs),
(1089,1263,o),
(906,1377,o),
(625,1377,cs),
(484,1377,o),
(329,1373,o),
(170,1370,c)
);
},
{
closed = 1;
nodes = (
(457,1162,l),
(508,1160,o),
(572,1160,o),
(610,1160,cs),
(752,1160,o),
(790,1076,o),
(790,995,cs),
(790,914,o),
(752,826,o),
(610,826,cs),
(342,826,l),
(342,608,l),
(633,608,ls),
(800,608,o),
(846,494,o),
(846,405,cs),
(846,318,o),
(806,204,o),
(636,204,cs),
(588,204,o),
(525,204,o),
(457,202,c)
);
}
);
width = 1226.662;
}
);
unicode = 66;
},
{
glyphname = C;
kernLeft = C;
kernRight = C;
lastChange = "2023-06-05 08:33:36 +0000";
layers = (
{
anchors = (
{
name = bottom;
pos = (633,0);
},
{
name = top;
pos = (637,1466);
}
);
layerId = "E2DCCAAC-30DB-413E-982C-2359C46E476F";
shapes = (
{
closed = 1;
nodes = (
(980,926,o),
(995,923,o),
(1020,923,cs),
(1091,923,o),
(1106,970,o),
(1106,1014,cs),
(1106,1197,o),
(930,1390,o),
(641,1390,cs),
(359,1390,o),
(114,1171,o),
(114,676,cs),
(114,315,o),
(253,-24,o),
(616,-24,cs),
(812,-24,o),
(982,61,o),
(1089,169,c),
(1077,205,o),
(1042,246,o),
(1005,269,c),
(877,157,o),
(756,110,o),
(639,110,cs),
(413,110,o),
(276,320,o),
(276,676,cs),
(276,1059,o),
(408,1261,o),
(640,1261,cs),
(877,1261,o),
(951,1077,o),
(951,934,c)
);
}
);
width = 1201;
},
{
anchors = (
{
name = bottom;
pos = (654,0);
},
{
name = top;
pos = (653,1466);
}
);
layerId = "33C6340C-19D4-4BAD-95FA-1AE5BEBDD22C";
shapes = (
{
closed = 1;
nodes = (
(905,812,o),
(941,805,o),
(987,805,cs),
(1101,805,o),
(1170,856,o),
(1170,981,cs),
(1170,1216,o),
(967,1397,o),
(657,1397,cs),
(338,1397,o),
(72,1181,o),
(72,678,cs),
(72,334,o),
(203,-29,o),
(623,-29,cs),
(845,-29,o),
(1053,69,o),
(1169,183,c),
(1155,257,o),
(1084,347,o),
(1022,389,c),
(929,320,o),
(820,249,o),
(682,249,cs),
(507,249,o),
(408,391,o),
(408,676,cs),
(408,979,o),
(474,1143,o),
(645,1143,cs),
(823,1143,o),
(869,988,o),
(866,822,c)
);
}
);
width = 1218.4;
},
{
anchors = (
{
name = bottom;
pos = (632,0);
},
{
name = top;
pos = (636,1466);
}
);
layerId = "11405D41-D873-4173-B059-BD48D7789B90";
shapes = (
{
closed = 1;
nodes = (
(985,934,o),
(999,932,o),
(1023,932,cs),
(1090,932,o),
(1101,978,o),
(1101,1017,cs),
(1101,1196,o),
(927,1390,o),
(640,1390,cs),
(360,1390,o),
(117,1170,o),
(117,676,cs),
(117,314,o),
(257,-24,o),
(616,-24,cs),
(809,-24,o),
(977,60,o),
(1083,168,c),
(1071,201,o),
(1039,238,o),
(1004,260,c),
(873,145,o),
(751,100,o),
(636,100,cs),
(406,100,o),
(266,315,o),
(266,676,cs),
(266,1065,o),
(403,1270,o),
(640,1270,cs),
(881,1270,o),
(957,1084,o),
(957,942,c)
);
}
);
width = 1199.7;
},
{
anchors = (
{
name = bottom;
pos = (653,0);
},
{
name = top;
pos = (652,1466);
}
);
layerId = "E2DCE989-2657-47EA-91FE-B2106D1F3005";
shapes = (
{
closed = 1;
nodes = (
(911,822,o),
(946,815,o),
(990,815,cs),
(1100,815,o),
(1164,866,o),
(1164,984,cs),
(1164,1215,o),
(963,1397,o),
(656,1397,cs),
(339,1397,o),
(76,1180,o),
(76,678,cs),
(76,333,o),
(208,-29,o),
(623,-29,cs),
(842,-29,o),
(1047,68,o),
(1162,182,c),
(1148,252,o),
(1080,338,o),
(1021,378,c),
(924,305,o),
(814,237,o),
(679,237,cs),
(498,237,o),
(397,385,o),
(397,676,cs),
(397,986,o),
(468,1153,o),
(645,1153,cs),
(828,1153,o),
(876,996,o),
(873,832,c)
);
}
);
width = 1216.86;
}
);
unicode = 67;
},
{
glyphname = D;
kernRight = D;
lastChange = "2023-06-05 08:33:36 +0000";
layers = (
{
anchors = (
{
name = bottom;
pos = (604,0);
},
{
name = top;
pos = (604,1464);
}
);
layerId = "E2DCCAAC-30DB-413E-982C-2359C46E476F";
shapes = (
{
closed = 1;
nodes = (
(1158,914,o),
(1126,1122,o),
(953,1270,cs),
(868,1342,o),
(718,1372,o),
(615,1372,cs),
(458,1372,o),
(383,1372,o),
(210,1366,c),
(197,1354,l),
(197,12,l),
(210,0,l),
(384,-4,o),
(458,-8,o),
(615,-8,cs),
(718,-8,o),
(868,22,o),
(953,94,cs),
(1128,242,o),
(1158,448,o),
(1158,682,cs)
);
},
{
closed = 1;
nodes = (
(996,425,o),
(947,121,o),
(613,121,cs),
(521,121,o),
(453,123,o),
(351,123,c),
(351,1245,l),
(453,1245,o),
(521,1243,o),
(613,1243,cs),
(947,1243,o),
(996,941,o),
(996,682,cs)
);
}
);
width = 1275.4;
},
{
anchors = (
{
name = bottom;
pos = (631,0);
},
{
name = top;
pos = (641,1464);
}
);
layerId = "33C6340C-19D4-4BAD-95FA-1AE5BEBDD22C";
shapes = (
{
closed = 1;
nodes = (
(1261,916,o),
(1225,1129,o),
(1036,1277,cs),
(945,1349,o),
(780,1377,o),
(669,1377,cs),
(496,1377,o),
(338,1376,o),
(166,1370,c),
(152,1356,l),
(152,10,l),
(166,-4,l),
(340,-8,o),
(496,-12,o),
(669,-12,cs),
(780,-12,o),
(944,17,o),
(1036,89,cs),
(1227,237,o),
(1261,450,o),
(1261,684,cs)
);
},
{
closed = 1;
nodes = (
(932,481,o),
(898,237,o),
(669,237,cs),
(601,237,o),
(542,237,o),
(471,236,c),
(471,1131,l),
(542,1129,o),
(601,1129,o),
(669,1129,cs),
(898,1129,o),
(932,887,o),
(932,684,cs)
);
}
);
width = 1334.56;
},
{
anchors = (
{
name = bottom;
pos = (602,0);
},
{
name = top;
pos = (601,1464);
}
);
layerId = "11405D41-D873-4173-B059-BD48D7789B90";
shapes = (
{
closed = 1;
nodes = (
(1150,914,o),
(1118,1122,o),
(947,1270,cs),
(862,1342,o),
(713,1372,o),
(611,1372,cs),
(455,1372,o),
(387,1372,o),
(213,1366,c),
(201,1354,l),
(201,12,l),
(213,0,l),
(387,-4,o),
(455,-8,o),
(611,-8,cs),
(713,-8,o),
(863,22,o),
(947,94,cs),
(1120,242,o),
(1150,448,o),
(1150,682,cs)
);
},
{
closed = 1;
nodes = (
(1001,421,o),
(951,112,o),
(609,112,cs),
(515,112,o),
(446,114,o),
(342,114,c),
(342,1254,l),
(446,1254,o),
(515,1252,o),
(609,1252,cs),
(951,1252,o),
(1001,945,o),
(1001,682,cs)
);
}
);
width = 1270.98;
},
{
anchors = (
{
name = bottom;
pos = (629,0);
},
{
name = top;
pos = (637,1464);
}
);
layerId = "E2DCE989-2657-47EA-91FE-B2106D1F3005";
shapes = (
{
closed = 1;
nodes = (
(1252,916,o),
(1216,1129,o),
(1029,1277,cs),
(938,1349,o),
(775,1377,o),
(664,1377,cs),
(492,1377,o),
(342,1376,o),
(170,1370,c),
(156,1356,l),
(156,10,l),
(170,-4,l),
(344,-8,o),
(492,-12,o),
(664,-12,cs),
(775,-12,o),
(938,17,o),
(1029,89,cs),
(1218,237,o),
(1252,450,o),
(1252,684,cs)
);
},
{
closed = 1;
nodes = (
(938,476,o),
(903,227,o),
(664,227,cs),
(594,227,o),
(534,227,o),
(460,226,c),
(460,1141,l),
(534,1139,o),
(594,1139,o),
(664,1139,cs),
(903,1139,o),
(938,892,o),
(938,684,cs)
);
}
);
width = 1329.324;
}
);
unicode = 68;
},
{
glyphname = E;
kernRight = E;
lastChange = "2023-06-05 08:33:36 +0000";
layers = (
{
anchors = (
{
name = bottom;
pos = (614,0);
},
{
name = ogonek;
pos = (917,0);
},
{
name = top;
pos = (598,1464);
}
);
layerId = "E2DCCAAC-30DB-413E-982C-2359C46E476F";
shapes = (
{
closed = 1;
nodes = (
(197,101,ls),
(197,38,o),
(231,0,o),
(285,0,cs),
(345,0,l),
(345,128,ls),
(345,157,o),
(347,178,o),
(347,205,cs),
(347,1111,ls),
(347,1165,o),
(345,1184,o),
(345,1240,cs),
(345,1366,l),
(209,1366,l),
(197,1354,l)
);
},
{
closed = 1;
nodes = (
(466,757,ls),
(422,757,o),
(352,755,o),
(294,755,c),
(294,628,l),
(352,628,o),
(422,626,o),
(466,626,cs),
(880,626,l),
(884,649,o),
(886,675,o),
(886,692,cs),
(886,709,o),
(884,735,o),
(880,757,c)
);
},
{
closed = 1;
nodes = (
(294,1366,l),
(294,1236,l),
(352,1234,o),
(422,1234,o),
(466,1234,cs),
(976,1234,l),
(985,1258,o),
(987,1287,o),
(987,1304,cs),
(987,1321,o),
(987,1343,o),
(983,1366,c)
);
},
{
closed = 1;
nodes = (
(468,133,ls),
(395,133,o),
(346,129,o),
(294,125,c),
(294,0,l),
(913,0,ls),
(987,0,o),
(1016,29,o),
(1016,133,c)
);
}
);
width = 1125.2;
},
{
anchors = (
{
name = bottom;
pos = (621,0);
},
{
name = ogonek;
pos = (929,0);
},
{
name = top;
pos = (598,1464);
}
);
layerId = "33C6340C-19D4-4BAD-95FA-1AE5BEBDD22C";
shapes = (
{
closed = 1;
nodes = (
(150,181,ls),
(150,65,o),
(219,-5,o),
(334,-5,cs),
(465,-5,l),
(465,260,ls),
(465,314,o),
(467,352,o),
(467,404,cs),
(467,954,ls),
(467,1008,o),
(465,1047,o),
(465,1103,cs),
(465,1366,l),
(164,1366,l),
(150,1352,l)
);
},
{
closed = 1;
nodes = (
(602,817,ls),
(552,817,o),
(420,815,o),
(356,813,c),
(356,560,l),
(420,558,o),
(552,556,o),
(602,556,cs),
(907,556,l),
(921,597,o),
(926,650,o),
(926,687,cs),
(926,721,o),
(921,778,o),
(907,817,c)
);
},
{
closed = 1;
nodes = (
(356,1366,l),
(356,1102,l),
(420,1100,o),
(552,1098,o),
(602,1098,cs),
(1011,1098,l),
(1028,1146,o),
(1037,1204,o),
(1037,1240,cs),
(1037,1276,o),
(1036,1318,o),
(1026,1366,c)
);
},
{
closed = 1;
nodes = (
(613,262,ls),
(515,262,o),
(443,256,o),
(356,252,c),
(356,-5,l),
(866,-5,ls),
(1036,-5,o),
(1076,86,o),
(1076,262,c)
);
}
);
width = 1146.08;
},
{
anchors = (
{
name = bottom;
pos = (614,0);
},
{
name = ogonek;
pos = (916,0);
},
{
name = top;
pos = (598,1464);
}
);
layerId = "11405D41-D873-4173-B059-BD48D7789B90";
shapes = (
{
closed = 1;
nodes = (
(201,95,ls),
(201,36,o),
(232,0,o),
(281,0,cs),
(336,0,l),
(336,118,ls),
(336,145,o),
(338,165,o),
(338,190,cs),
(338,1123,ls),
(338,1177,o),
(336,1194,o),
(336,1250,cs),
(336,1366,l),
(213,1366,l),
(201,1354,l)
);
},
{
closed = 1;
nodes = (
(456,753,ls),
(412,753,o),
(347,751,o),
(289,751,c),
(289,633,l),
(347,633,o),
(412,631,o),
(456,631,cs),
(878,631,l),
(881,653,o),
(883,677,o),
(883,692,cs),
(883,708,o),
(881,732,o),
(878,753,c)
);
},
{
closed = 1;
nodes = (
(289,1366,l),
(289,1246,l),
(347,1244,o),
(412,1244,o),
(456,1244,cs),
(973,1244,l),
(982,1266,o),
(983,1293,o),
(983,1309,cs),
(983,1325,o),
(983,1345,o),
(980,1366,c)
);
},
{
closed = 1;
nodes = (
(457,124,ls),
(386,124,o),
(339,120,o),
(289,116,c),
(289,0,l),
(917,0,ls),
(983,0,o),
(1011,25,o),
(1011,124,c)
);
}
);
width = 1123.64;
},
{
anchors = (
{
name = bottom;
pos = (621,0);
},
{
name = ogonek;
pos = (928,0);
},
{
name = top;
pos = (598,1464);
}
);
layerId = "E2DCE989-2657-47EA-91FE-B2106D1F3005";
shapes = (
{
closed = 1;
nodes = (
(154,174,ls),
(154,63,o),
(220,-5,o),
(329,-5,cs),
(454,-5,l),
(454,249,ls),
(454,300,o),
(456,337,o),
(456,386,cs),
(456,968,ls),
(456,1022,o),
(454,1059,o),
(454,1115,cs),
(454,1366,l),
(168,1366,l),
(154,1352,l)
);
},
{
closed = 1;
nodes = (
(590,812,ls),
(541,812,o),
(414,810,o),
(351,808,c),
(351,566,l),
(414,564,o),
(541,562,o),
(590,562,cs),
(905,562,l),
(917,602,o),
(922,653,o),
(922,687,cs),
(922,720,o),
(917,775,o),
(905,812,c)
);
},
{
closed = 1;
nodes = (
(351,1366,l),
(351,1114,l),
(414,1112,o),
(541,1110,o),
(590,1110,cs),
(1008,1110,l),
(1025,1156,o),
(1032,1211,o),
(1032,1246,cs),
(1032,1280,o),
(1031,1321,o),
(1023,1366,c)
);
},
{
closed = 1;
nodes = (
(600,251,ls),
(504,251,o),
(435,245,o),
(351,241,c),
(351,-5,l),
(870,-5,ls),
(1031,-5,o),
(1071,81,o),
(1071,251,c)
);
}
);
width = 1144.232;
}
);
unicode = 69;
},
{
glyphname = F;
lastChange = "2023-06-05 08:33:36 +0000";
layers = (
{
anchors = (
{
name = top;
pos = (598,1464);
}
);
layerId = "E2DCCAAC-30DB-413E-982C-2359C46E476F";
shapes = (
{
closed = 1;
nodes = (
(351,957,ls),
(351,1055,o),
(349,1156,o),
(349,1255,cs),
(349,1366,l),
(210,1366,l),
(197,1354,l),
(197,0,l),
(217,-4,o),
(246,-6,o),
(273,-6,cs),
(301,-6,o),
(329,-4,o),
(351,0,c)
);
},
{
closed = 1;
nodes = (
(293,1366,l),
(293,1240,l),
(362,1234,o),
(452,1232,o),
(567,1232,cs),
(885,1232,ls),
(948,1232,o),
(977,1253,o),
(977,1303,cs),
(977,1324,o),
(973,1347,o),
(967,1366,c)
);
},
{
closed = 1;
nodes = (
(461,757,ls),
(416,757,o),
(350,755,o),
(293,755,c),
(293,628,l),
(350,628,o),
(416,626,o),
(461,626,cs),
(870,626,l),
(874,649,o),
(876,674,o),
(876,691,cs),
(876,708,o),
(874,734,o),
(870,757,c)
);
}
);
width = 1028.4;
},
{
anchors = (
{
name = top;
pos = (591,1464);
}
);
layerId = "33C6340C-19D4-4BAD-95FA-1AE5BEBDD22C";
shapes = (
{
closed = 1;
nodes = (
(473,938,ls),
(473,1043,o),
(471,1160,o),
(471,1271,cs),
(471,1366,l),
(166,1366,l),
(152,1354,l),
(152,0,l),
(207,-9,o),
(272,-11,o),
(316,-11,cs),
(361,-11,o),
(418,-9,o),
(473,0,c)
);
},
{
closed = 1;
nodes = (
(340,1366,l),
(340,1097,l),
(428,1097,o),
(514,1095,o),
(614,1095,cs),
(864,1095,ls),
(979,1095,o),
(1035,1139,o),
(1035,1243,cs),
(1035,1280,o),
(1031,1331,o),
(1021,1366,c)
);
},
{
closed = 1;
nodes = (
(511,811,ls),
(454,811,o),
(390,809,o),
(351,807,c),
(351,553,l),
(390,551,o),
(454,549,o),
(511,549,cs),
(899,549,l),
(911,588,o),
(916,645,o),
(916,681,cs),
(916,715,o),
(911,774,o),
(899,811,c)
);
}
);
width = 1070.16;
},
{
anchors = (
{
name = top;
pos = (598,1464);
}
);
layerId = "11405D41-D873-4173-B059-BD48D7789B90";
shapes = (
{
closed = 1;
nodes = (
(342,958,ls),
(342,1056,o),
(340,1156,o),
(340,1254,cs),
(340,1366,l),
(213,1366,l),
(201,1354,l),
(201,0,l),
(218,-4,o),
(244,-6,o),
(270,-6,cs),
(297,-6,o),
(322,-4,o),
(342,0,c)
);
},
{
closed = 1;
nodes = (
(289,1366,l),
(289,1251,l),
(357,1244,o),
(447,1242,o),
(563,1242,cs),
(886,1242,ls),
(946,1242,o),
(973,1262,o),
(973,1307,cs),
(973,1327,o),
(969,1348,o),
(963,1366,c)
);
},
{
closed = 1;
nodes = (
(457,753,ls),
(413,753,o),
(347,751,o),
(289,751,c),
(289,633,l),
(347,634,o),
(413,632,o),
(457,632,cs),
(868,632,l),
(871,653,o),
(873,676,o),
(873,692,cs),
(873,708,o),
(871,731,o),
(868,753,c)
);
}
);
width = 1025.28;
},
{
anchors = (
{
name = top;
pos = (591,1464);
}
);
layerId = "E2DCE989-2657-47EA-91FE-B2106D1F3005";
shapes = (
{
closed = 1;
nodes = (
(462,939,ls),
(462,1044,o),
(460,1160,o),
(460,1270,cs),
(460,1366,l),
(170,1366,l),
(156,1354,l),
(156,0,l),
(208,-9,o),
(270,-11,o),
(313,-11,cs),
(356,-11,o),
(410,-9,o),
(462,0,c)
);
},
{
closed = 1;
nodes = (
(336,1366,l),
(336,1110,l),
(422,1109,o),
(509,1107,o),
(610,1107,cs),
(865,1107,ls),
(977,1107,o),
(1030,1149,o),
(1030,1248,cs),
(1030,1284,o),
(1026,1332,o),
(1016,1366,c)
);
},
{
closed = 1;
nodes = (
(506,806,ls),
(450,806,o),
(386,804,o),
(346,802,c),
(346,559,l),
(386,558,o),
(450,556,o),
(506,556,cs),
(897,556,l),
(907,593,o),
(912,647,o),
(912,682,cs),
(912,715,o),
(907,770,o),
(897,806,c)
);
}
);
width = 1066.464;
}
);
unicode = 70;
},
{
glyphname = G;
kernLeft = C;
kernRight = G;
lastChange = "2023-06-05 08:33:36 +0000";
layers = (
{
anchors = (
{
name = bottom;
pos = (671,0);
},
{
name = top;
pos = (683,1464);
}
);
layerId = "E2DCCAAC-30DB-413E-982C-2359C46E476F";
shapes = (
{
closed = 1;
nodes = (
(1023,1333,o),
(844,1390,o),
(688,1390,cs),
(401,1390,o),
(114,1194,o),
(114,673,cs),
(114,331,o),
(237,-24,o),
(677,-24,cs),
(824,-24,o),
(1012,14,o),
(1134,62,c),
(1057,187,l),
(995,156,o),
(852,110,o),
(705,110,cs),
(414,110,o),
(275,292,o),
(275,670,cs),
(275,1107,o),
(461,1253,o),
(683,1253,cs),
(819,1253,o),
(957,1198,o),
(1051,1122,c),
(1082,1144,o),
(1120,1189,o),
(1132,1241,c)
);
},
{
closed = 1;
nodes = (
(984,59,l),
(1134,62,l),
(1134,582,l),
(998,630,l),
(988,584,o),
(984,521,o),
(984,429,cs)
);
},
{
closed = 1;
nodes = (
(710,687,l),
(704,668,o),
(698,642,o),
(698,618,cs),
(698,552,o),
(752,550,o),
(777,550,cs),
(1134,550,l),
(1134,582,ls),
(1134,654,o),
(1103,687,o),
(1015,687,cs)
);
}
);
width = 1274;
},
{
anchors = (
{
name = bottom;
pos = (688,0);
},
{
name = top;
pos = (700,1464);
}
);
layerId = "33C6340C-19D4-4BAD-95FA-1AE5BEBDD22C";
shapes = (
{
closed = 1;
nodes = (
(1066,1338,o),
(893,1395,o),
(710,1395,cs),
(385,1395,o),
(72,1159,o),
(72,674,cs),
(72,242,o),
(267,-29,o),
(678,-29,cs),
(897,-29,o),
(1089,14,o),
(1205,53,c),
(1038,272,l),
(970,253,o),
(863,222,o),
(733,222,cs),
(518,222,o),
(399,360,o),
(399,672,cs),
(399,993,o),
(527,1131,o),
(729,1131,cs),
(841,1131,o),
(962,1088,o),
(1059,1023,c),
(1124,1065,o),
(1195,1162,o),
(1202,1253,c)
);
},
{
closed = 1;
nodes = (
(905,49,l),
(1205,53,l),
(1205,578,l),
(934,668,l),
(909,579,o),
(905,465,o),
(905,371,cs)
);
},
{
closed = 1;
nodes = (
(681,776,l),
(667,738,o),
(658,686,o),
(658,644,cs),
(658,543,o),
(708,510,o),
(811,510,cs),
(1205,510,l),
(1205,578,ls),
(1205,694,o),
(1153,776,o),
(994,776,cs)
);
}
);
width = 1308.8;
},
{
anchors = (
{
name = bottom;
pos = (670,0);
},
{
name = top;
pos = (682,1464);
}
);
layerId = "11405D41-D873-4173-B059-BD48D7789B90";
shapes = (
{
closed = 1;
nodes = (
(1020,1333,o),
(840,1390,o),
(686,1390,cs),
(402,1390,o),
(117,1197,o),
(117,673,cs),
(117,338,o),
(235,-24,o),
(677,-24,cs),
(819,-24,o),
(1006,14,o),
(1129,62,c),
(1058,181,l),
(997,149,o),
(851,102,o),
(703,102,cs),
(406,102,o),
(266,287,o),
(266,670,cs),
(266,1116,o),
(456,1262,o),
(679,1262,cs),
(817,1262,o),
(957,1206,o),
(1050,1130,c),
(1079,1150,o),
(1115,1191,o),
(1127,1240,c)
);
},
{
closed = 1;
nodes = (
(990,60,l),
(1129,62,l),
(1129,582,l),
(1003,627,l),
(994,584,o),
(990,525,o),
(990,433,cs)
);
},
{
closed = 1;
nodes = (
(712,680,l),
(707,663,o),
(701,638,o),
(701,616,cs),
(701,552,o),
(756,553,o),
(774,553,cs),
(1129,553,l),
(1129,582,ls),
(1129,651,o),
(1099,680,o),
(1016,680,cs)
);
}
);
width = 1271.4;
},
{
anchors = (
{
name = bottom;
pos = (687,0);
},
{
name = top;
pos = (699,1464);
}
);
layerId = "E2DCE989-2657-47EA-91FE-B2106D1F3005";
shapes = (
{
closed = 1;
nodes = (
(1063,1338,o),
(888,1395,o),
(707,1395,cs),
(386,1395,o),
(76,1162,o),
(76,674,cs),
(76,250,o),
(265,-29,o),
(678,-29,cs),
(891,-29,o),
(1082,14,o),
(1199,54,c),
(1039,265,l),
(973,245,o),
(862,212,o),
(731,212,cs),
(509,212,o),
(388,354,o),
(388,672,cs),
(388,1003,o),
(521,1142,o),
(725,1142,cs),
(838,1142,o),
(962,1098,o),
(1058,1032,c),
(1120,1073,o),
(1189,1165,o),
(1196,1252,c)
);
},
{
closed = 1;
nodes = (
(913,50,l),
(1199,54,l),
(1199,578,l),
(940,664,l),
(917,579,o),
(913,470,o),
(913,376,cs)
);
},
{
closed = 1;
nodes = (
(683,768,l),
(671,732,o),
(662,682,o),
(662,641,cs),
(662,544,o),
(712,514,o),
(808,514,cs),
(1199,514,l),
(1199,578,ls),
(1199,690,o),
(1148,768,o),
(995,768,cs)
);
}
);
width = 1305.72;
}
);
unicode = 71;
},
{
glyphname = H;
lastChange = "2023-06-05 08:33:36 +0000";
layers = (
{
anchors = (
{
name = bottom;
pos = (668,0);
},
{
name = top;
pos = (667,1464);
}
);
layerId = "E2DCCAAC-30DB-413E-982C-2359C46E476F";
shapes = (
{
closed = 1;
nodes = (
(866,638,l),
(879,638,o),
(972,640,o),
(987,640,cs),
(1017,640,o),
(1047,638,o),
(1077,638,c),
(1077,774,l),
(1047,774,o),
(1017,772,o),
(987,772,cs),
(972,772,o),
(879,774,o),
(866,774,cs),
(470,774,ls),
(457,774,o),
(364,772,o),
(349,772,cs),
(319,772,o),
(289,774,o),
(259,774,c),
(259,638,l),
(289,638,o),
(319,640,o),
(349,640,cs),
(364,640,o),
(457,638,o),
(470,638,cs)
);
},
{
closed = 1;
nodes = (
(351,492,ls),
(351,548,o),
(349,586,o),
(349,640,cs),
(349,772,ls),
(349,826,o),
(351,864,o),
(351,920,cs),
(351,1366,l),
(329,1370,o),
(301,1372,o),
(272,1372,cs),
(246,1372,o),
(217,1370,o),
(197,1366,c),
(197,0,l),
(217,-4,o),
(246,-6,o),
(272,-6,cs),
(301,-6,o),
(329,-4,o),
(351,0,c)
);
},
{
closed = 1;
nodes = (
(985,0,l),
(1005,-4,o),
(1033,-6,o),
(1060,-6,cs),
(1089,-6,o),
(1117,-4,o),
(1139,0,c),
(1139,1366,l),
(1117,1370,o),
(1089,1372,o),
(1060,1372,cs),
(1033,1372,o),
(1005,1370,o),
(985,1366,c),
(985,920,ls),
(985,864,o),
(987,826,o),
(987,772,cs),
(987,640,ls),
(987,586,o),
(985,548,o),
(985,492,cs)
);
}
);
width = 1336.1;
},
{
anchors = (
{
name = bottom;
pos = (686,0);
},
{
name = top;
pos = (686,1466);
}
);
layerId = "33C6340C-19D4-4BAD-95FA-1AE5BEBDD22C";
shapes = (
{
closed = 1;
nodes = (
(802,570,l),
(830,570,o),
(873,572,o),
(902,572,cs),
(965,572,o),
(1031,570,o),
(1094,570,c),
(1094,838,l),
(1031,838,o),
(965,836,o),
(902,836,cs),
(873,836,o),
(830,838,o),
(802,838,cs),
(571,838,ls),
(542,838,o),
(500,836,o),
(471,836,cs),
(408,836,o),
(341,838,o),
(278,838,c),
(278,570,l),
(341,570,o),
(408,572,o),
(471,572,cs),
(500,572,o),
(542,570,o),
(571,570,cs)
);
},
{
closed = 1;
nodes = (
(473,424,ls),
(473,480,o),
(471,518,o),
(471,572,cs),
(471,836,ls),
(471,890,o),
(473,928,o),
(473,984,cs),
(473,1366,l),
(420,1375,o),
(355,1377,o),
(312,1377,cs),
(273,1377,o),
(203,1375,o),
(152,1366,c),
(152,0,l),
(203,-9,o),
(273,-11,o),
(312,-11,cs),
(355,-11,o),
(420,-9,o),
(473,0,c)
);
},
{
closed = 1;
nodes = (
(900,0,l),
(955,-9,o),
(1019,-11,o),
(1064,-11,cs),
(1108,-11,o),
(1166,-9,o),
(1221,0,c),
(1221,1366,l),
(1169,1375,o),
(1099,1377,o),
(1060,1377,cs),
(1017,1377,o),
(953,1375,o),
(900,1366,c),
(900,984,ls),
(900,928,o),
(902,890,o),
(902,836,cs),
(902,572,ls),
(902,518,o),
(900,480,o),
(900,424,cs)
);
}
);
width = 1372.64;
},
{
anchors = (
{
name = bottom;
pos = (667,0);
},
{
name = top;
pos = (666,1464);
}
);
layerId = "11405D41-D873-4173-B059-BD48D7789B90";
shapes = (
{
closed = 1;
nodes = (
(871,643,l),
(883,643,o),
(980,645,o),
(993,645,cs),
(1021,645,o),
(1048,643,o),
(1076,643,c),
(1076,769,l),
(1048,769,o),
(1021,767,o),
(993,767,cs),
(980,767,o),
(883,769,o),
(871,769,cs),
(462,769,ls),
(451,769,o),
(354,767,o),
(340,767,cs),
(312,767,o),
(285,769,o),
(258,769,c),
(258,643,l),
(285,643,o),
(312,645,o),
(340,645,cs),
(354,645,o),
(451,643,o),
(462,643,cs)
);
},
{
closed = 1;
nodes = (
(342,497,ls),
(342,553,o),
(340,591,o),
(340,645,cs),
(340,767,ls),
(340,821,o),
(342,859,o),
(342,915,cs),
(342,1366,l),
(322,1370,o),
(297,1372,o),
(269,1372,cs),
(244,1372,o),
(218,1370,o),
(201,1366,c),
(201,0,l),
(218,-4,o),
(244,-6,o),
(269,-6,cs),
(297,-6,o),
(322,-4,o),
(342,0,c)
);
},
{
closed = 1;
nodes = (
(991,0,l),
(1009,-4,o),
(1034,-6,o),
(1060,-6,cs),
(1088,-6,o),
(1113,-4,o),
(1133,0,c),
(1133,1366,l),
(1113,1370,o),
(1088,1372,o),
(1060,1372,cs),
(1034,1372,o),
(1009,1370,o),
(991,1366,c),
(991,915,ls),
(991,859,o),
(993,821,o),
(993,767,cs),
(993,645,ls),
(993,591,o),
(991,553,o),
(991,497,cs)
);
}
);
width = 1333.37;
},
{
anchors = (
{
name = bottom;
pos = (685,0);
},
{
name = top;
pos = (685,1466);
}
);
layerId = "E2DCE989-2657-47EA-91FE-B2106D1F3005";
shapes = (
{
closed = 1;
nodes = (
(808,576,l),
(835,576,o),
(882,578,o),
(909,578,cs),
(970,578,o),
(1032,576,o),
(1093,576,c),
(1093,832,l),
(1032,832,o),
(970,830,o),
(909,830,cs),
(882,830,o),
(835,832,o),
(808,832,cs),
(562,832,ls),
(535,832,o),
(488,830,o),
(460,830,cs),
(400,830,o),
(336,832,o),
(277,832,c),
(277,576,l),
(336,576,o),
(400,578,o),
(460,578,cs),
(488,578,o),
(535,576,o),
(562,576,cs)
);
},
{
closed = 1;
nodes = (
(462,430,ls),
(462,486,o),
(460,524,o),
(460,578,cs),
(460,830,ls),
(460,884,o),
(462,922,o),
(462,978,cs),
(462,1366,l),
(412,1375,o),
(350,1377,o),
(308,1377,cs),
(271,1377,o),
(204,1375,o),
(156,1366,c),
(156,0,l),
(204,-9,o),
(271,-11,o),
(308,-11,cs),
(350,-11,o),
(412,-9,o),
(462,0,c)
);
},
{
closed = 1;
nodes = (
(907,0,l),
(960,-9,o),
(1020,-11,o),
(1064,-11,cs),
(1107,-11,o),
(1161,-9,o),
(1214,0,c),
(1214,1366,l),
(1164,1375,o),
(1098,1377,o),
(1060,1377,cs),
(1018,1377,o),
(958,1375,o),
(907,1366,c),
(907,978,ls),
(907,922,o),
(909,884,o),
(909,830,cs),
(909,578,ls),
(909,524,o),
(907,486,o),
(907,430,cs)
);
}
);
width = 1369.406;
}
);
unicode = 72;
},
{
glyphname = I;
lastChange = "2023-06-05 08:33:36 +0000";
layers = (
{
anchors = (
{
name = bottom;
pos = (280,0);
},
{
name = ogonek;
pos = (359,0);
},
{
name = top;
pos = (282,1464);
}
);
layerId = "E2DCCAAC-30DB-413E-982C-2359C46E476F";
shapes = (
{
closed = 1;
nodes = (
(205,0,l),
(225,-4,o),
(253,-6,o),
(280,-6,cs),
(309,-6,o),
(337,-4,o),
(359,0,c),
(359,1366,l),
(337,1370,o),
(309,1372,o),
(280,1372,cs),
(253,1372,o),
(225,1370,o),
(205,1366,c)
);
}
);
width = 563.8;
},
{
anchors = (
{
name = bottom;
pos = (315,0);
},
{
name = ogonek;
pos = (475,0);
},
{
name = top;
pos = (315,1466);
}
);
layerId = "33C6340C-19D4-4BAD-95FA-1AE5BEBDD22C";
shapes = (
{
closed = 1;
nodes = (
(155,0,l),
(206,-9,o),
(276,-11,o),
(315,-11,cs),
(358,-11,o),
(422,-9,o),
(475,0,c),
(475,1366,l),
(422,1375,o),
(358,1377,o),
(315,1377,cs),
(276,1377,o),
(206,1375,o),
(155,1366,c)
);
}
);
width = 629.92;
},
{
anchors = (
{
name = bottom;
pos = (277,0);
},
{
name = ogonek;
pos = (350,0);
},
{
name = top;
pos = (279,1464);
}
);
layerId = "11405D41-D873-4173-B059-BD48D7789B90";
shapes = (
{
closed = 1;
nodes = (
(209,0,l),
(226,-4,o),
(251,-6,o),
(277,-6,cs),
(305,-6,o),
(331,-4,o),
(350,0,c),
(350,1366,l),
(331,1370,o),
(305,1372,o),
(277,1372,cs),
(251,1372,o),
(226,1370,o),
(209,1366,c)
);
}
);
width = 558.86;
},
{
anchors = (
{
name = bottom;
pos = (312,0);
},
{
name = ogonek;
pos = (465,0);
},
{
name = top;
pos = (312,1466);
}
);
layerId = "E2DCE989-2657-47EA-91FE-B2106D1F3005";
shapes = (
{
closed = 1;
nodes = (
(160,0,l),
(207,-9,o),
(273,-11,o),
(312,-11,cs),
(353,-11,o),
(415,-9,o),
(465,0,c),
(465,1366,l),
(415,1375,o),
(353,1377,o),
(312,1377,cs),
(273,1377,o),
(207,1375,o),
(160,1366,c)
);
}
);
width = 624.068;
}
);
unicode = 73;
},
{
glyphname = J;
kernLeft = J;
kernRight = U;
lastChange = "2023-06-05 08:33:36 +0000";
layers = (
{
anchors = (
{
name = top;
pos = (627,1464);
}
);
layerId = "E2DCCAAC-30DB-413E-982C-2359C46E476F";
shapes = (
{
closed = 1;
nodes = (
(51,147,o),
(30,108,o),
(20,62,c),
(103,12,o),
(221,-20,o),
(323,-20,cs),
(654,-20,o),
(702,202,o),
(702,482,cs),
(702,1366,l),
(682,1370,o),
(654,1372,o),
(627,1372,cs),
(599,1372,o),
(570,1370,o),
(549,1366,c),
(549,452,ls),
(549,207,o),
(490,112,o),
(316,112,cs),
(237,112,o),
(144,141,o),
(83,179,c)
);
}
);
width = 872;
},
{
anchors = (
{
name = top;
pos = (650,1464);
}
);
layerId = "33C6340C-19D4-4BAD-95FA-1AE5BEBDD22C";
shapes = (
{
closed = 1;
nodes = (
(72,239,o),
(32,148,o),
(20,67,c),
(115,8,o),
(240,-20,o),
(346,-20,cs),
(722,-20,o),
(810,209,o),
(810,524,cs),
(810,1366,l),
(757,1375,o),
(692,1377,o),
(650,1377,cs),
(611,1377,o),
(541,1375,o),
(489,1366,c),
(489,494,ls),
(489,336,o),
(455,244,o),
(311,244,cs),
(247,244,o),
(186,270,o),
(130,304,c)
);
}
);
width = 941.6;
},
{
anchors = (
{
name = top;
pos = (625,1464);
}
);
layerId = "11405D41-D873-4173-B059-BD48D7789B90";
shapes = (
{
closed = 1;
nodes = (
(50,140,o),
(30,105,o),
(20,62,c),
(102,12,o),
(220,-20,o),
(321,-20,cs),
(649,-20,o),
(694,202,o),
(694,479,cs),
(694,1366,l),
(677,1370,o),
(651,1372,o),
(625,1372,cs),
(598,1372,o),
(572,1370,o),
(553,1366,c),
(553,449,ls),
(553,198,o),
(493,102,o),
(316,102,cs),
(236,102,o),
(141,132,o),
(79,170,c)
);
}
);
width = 866.8;
},
{
anchors = (
{
name = top;
pos = (647,1464);
}
);
layerId = "E2DCE989-2657-47EA-91FE-B2106D1F3005";
shapes = (
{
closed = 1;
nodes = (
(71,230,o),
(32,144,o),
(20,67,c),
(114,8,o),
(239,-20,o),
(343,-20,cs),
(716,-20,o),
(800,209,o),
(800,520,cs),
(800,1366,l),
(751,1375,o),
(688,1377,o),
(647,1377,cs),
(610,1377,o),
(543,1375,o),
(494,1366,c),
(494,490,ls),
(494,325,o),
(458,233,o),
(311,233,cs),
(246,233,o),
(182,259,o),
(126,293,c)
);
}
);
width = 935.44;
}
);
unicode = 74;
},
{
glyphname = K;
kernRight = K;
lastChange = "2023-06-05 08:33:36 +0000";
layers = (
{
anchors = (
{
name = bottom;
pos = (609,0);
},
{
name = top;
pos = (603,1464);
}
);
layerId = "E2DCCAAC-30DB-413E-982C-2359C46E476F";
shapes = (
{
closed = 1;
nodes = (
(197,0,l),
(217,-4,o),
(246,-6,o),
(272,-6,cs),
(301,-6,o),
(329,-4,o),
(351,0,c),
(351,1366,l),
(329,1370,o),
(301,1372,o),
(272,1372,cs),
(246,1372,o),
(217,1370,o),
(197,1366,c)
);
},
{
closed = 1;
nodes = (
(1093,65,o),
(1068,97,o),
(1041,164,cs),
(917,476,ls),
(846,657,o),
(777,739,o),
(583,739,cs),
(270,739,l),
(270,630,l),
(403,636,o),
(481,636,o),
(513,636,cs),
(645,636,o),
(714,581,o),
(778,415,cs),
(905,90,ls),
(930,25,o),
(949,-10,o),
(1016,-10,cs),
(1051,-10,o),
(1101,9,o),
(1122,42,c)
);
},
{
closed = 1;
nodes = (
(565,821,ls),
(544,788,o),
(531,772,o),
(496,772,cs),
(434,772,o),
(336,770,o),
(270,766,c),
(270,675,l),
(503,675,ls),
(603,675,o),
(675,727,o),
(724,807,cs),
(1061,1350,l),
(1048,1366,l),
(1019,1368,o),
(994,1370,o),
(966,1370,cs),
(906,1370,o),
(887,1344,o),
(859,1296,cs)
);
}
);
width = 1166.3;
},
{
anchors = (
{
name = bottom;
pos = (658,0);
},
{
name = top;
pos = (650,1464);
}
);
layerId = "33C6340C-19D4-4BAD-95FA-1AE5BEBDD22C";
shapes = (
{
closed = 1;
nodes = (
(152,0,l),
(203,-9,o),
(273,-11,o),
(312,-11,cs),
(355,-11,o),
(420,-9,o),
(473,0,c),
(473,1366,l),
(420,1375,o),
(355,1377,o),
(312,1377,cs),
(273,1377,o),
(203,1375,o),
(152,1366,c)
);
},
{
closed = 1;
nodes = (
(1182,121,o),
(1163,150,o),
(1124,267,cs),
(1042,514,ls),
(999,647,o),
(934,753,o),
(708,753,cs),
(310,753,l),
(310,557,l),
(411,566,o),
(500,574,o),
(560,574,cs),
(655,574,o),
(707,525,o),
(747,399,cs),
(822,165,ls),
(860,42,o),
(900,-17,o),
(1016,-17,cs),
(1101,-17,o),
(1186,17,o),
(1228,79,c)
);
},
{
closed = 1;
nodes = (
(614,908,ls),
(586,854,o),
(574,840,o),
(523,840,cs),
(453,839,o),
(381,837,o),
(310,836,c),
(310,656,l),
(553,656,ls),
(750,656,o),
(859,743,o),
(935,887,cs),
(1177,1346,l),
(1160,1368,l),
(1097,1373,o),
(1020,1377,o),
(968,1377,cs),
(875,1377,o),
(842,1342,o),
(803,1267,cs)
);
}
);
width = 1241.12;
},
{
anchors = (
{
name = bottom;
pos = (605,0);
},
{
name = top;
pos = (599,1464);
}
);
layerId = "11405D41-D873-4173-B059-BD48D7789B90";
shapes = (
{
closed = 1;
nodes = (
(201,0,l),
(218,-4,o),
(244,-6,o),
(269,-6,cs),
(297,-6,o),
(322,-4,o),
(342,0,c),
(342,1366,l),
(322,1370,o),
(297,1372,o),
(269,1372,cs),
(244,1372,o),
(218,1370,o),
(201,1366,c)
);
},
{
closed = 1;
nodes = (
(1086,61,o),
(1061,93,o),
(1035,156,cs),
(908,473,ls),
(834,658,o),
(765,738,o),
(574,738,cs),
(267,738,l),
(267,635,l),
(402,641,o),
(480,641,o),
(509,641,cs),
(644,641,o),
(714,585,o),
(780,416,cs),
(911,85,ls),
(935,24,o),
(953,-10,o),
(1016,-10,cs),
(1047,-10,o),
(1095,8,o),
(1114,39,c)
);
},
{
closed = 1;
nodes = (
(561,815,ls),
(541,783,o),
(528,767,o),
(494,767,cs),
(433,767,o),
(332,765,o),
(267,761,c),
(267,676,l),
(499,676,ls),
(592,676,o),
(661,726,o),
(708,801,cs),
(1052,1350,l),
(1040,1366,l),
(1013,1368,o),
(992,1370,o),
(966,1370,cs),
(908,1370,o),
(891,1344,o),
(863,1298,cs)
);
}
);
width = 1160.71;
},
{
anchors = (
{
name = bottom;
pos = (653,0);
},
{
name = top;
pos = (646,1464);
}
);
layerId = "E2DCE989-2657-47EA-91FE-B2106D1F3005";
shapes = (
{
closed = 1;
nodes = (
(156,0,l),
(204,-9,o),
(271,-11,o),
(308,-11,cs),
(350,-11,o),
(412,-9,o),
(462,0,c),
(462,1366,l),
(412,1375,o),
(350,1377,o),
(308,1377,cs),
(271,1377,o),
(204,1375,o),
(156,1366,c)
);
},
{
closed = 1;
nodes = (
(1174,116,o),
(1155,145,o),
(1117,258,cs),
(1031,510,ls),
(985,648,o),
(920,752,o),
(697,752,cs),
(306,752,l),
(306,563,l),
(410,572,o),
(499,579,o),
(556,579,cs),
(654,579,o),
(707,530,o),
(749,400,cs),
(829,159,ls),
(866,41,o),
(905,-17,o),
(1016,-17,cs),
(1096,-17,o),
(1179,16,o),
(1218,75,c)
);
},
{
closed = 1;
nodes = (
(609,901,ls),
(582,848,o),
(571,834,o),
(521,834,cs),
(452,833,o),
(377,831,o),
(306,830,c),
(306,657,l),
(548,657,ls),
(737,657,o),
(843,742,o),
(916,880,cs),
(1167,1346,l),
(1150,1368,l),
(1090,1373,o),
(1018,1377,o),
(968,1377,cs),
(877,1377,o),
(846,1342,o),
(808,1269,cs)
);
}
);
width = 1234.498;
}
);
unicode = 75;
},
{
glyphname = L;
kernRight = L;
lastChange = "2023-06-05 08:33:36 +0000";
layers = (
{
anchors = (
{
name = bottom;
pos = (578,0);
},
{
name = periodcentered;
pos = (1011,786);
},
{
name = top;
pos = (272,1464);
},
{
name = topright;
pos = (461,884);
}
);
layerId = "E2DCCAAC-30DB-413E-982C-2359C46E476F";
shapes = (
{
closed = 1;
nodes = (
(351,1273,ls),
(351,1339,o),
(338,1372,o),
(271,1372,cs),
(209,1372,l),
(197,1360,l),
(197,103,ls),
(197,34,o),
(237,0,o),
(287,0,cs),
(351,0,l)
);
},
{
closed = 1;
nodes = (
(524,136,ls),
(431,136,o),
(306,129,o),
(211,114,c),
(287,0,l),
(847,0,ls),
(919,0,o),
(949,25,o),
(949,136,c)
);
}
);
width = 1011.9;
},
{
anchors = (
{
name = bottom;
pos = (571,0);
},
{
name = periodcentered;
pos = (1045,786);
},
{
name = top;
pos = (309,1455);
},
{
name = topright;
pos = (521,868);
}
);
layerId = "33C6340C-19D4-4BAD-95FA-1AE5BEBDD22C";
shapes = (
{
closed = 1;
nodes = (
(471,1177,ls),
(471,1320,o),
(404,1379,o),
(281,1379,cs),
(164,1379,l),
(150,1365,l),
(150,181,ls),
(150,65,o),
(221,-5,o),
(336,-5,cs),
(471,-5,l)
);
},
{
closed = 1;
nodes = (
(658,270,ls),
(516,270,o),
(339,256,o),
(164,226,c),
(336,-5,l),
(787,-5,ls),
(946,-5,o),
(1005,67,o),
(1005,270,c)
);
}
);
width = 1044.96;
},
{
anchors = (
{
name = bottom;
pos = (578,0);
},
{
name = periodcentered;
pos = (1008,786);
},
{
name = top;
pos = (269,1464);
},
{
name = topright;
pos = (457,885);
}
);
layerId = "11405D41-D873-4173-B059-BD48D7789B90";
shapes = (
{
closed = 1;
nodes = (
(342,1280,ls),
(342,1340,o),
(333,1372,o),
(270,1372,cs),
(213,1372,l),
(201,1360,l),
(201,97,ls),
(201,32,o),
(238,0,o),
(283,0,cs),
(342,0,l)
);
},
{
closed = 1;
nodes = (
(514,126,ls),
(425,126,o),
(303,120,o),
(215,106,c),
(283,0,l),
(851,0,ls),
(917,0,o),
(945,22,o),
(945,126,c)
);
}
);
width = 1009.43;
},
{
anchors = (
{
name = bottom;
pos = (571,0);
},
{
name = periodcentered;
pos = (1042,786);
},
{
name = top;
pos = (305,1456);
},
{
name = topright;
pos = (516,869);
}
);
layerId = "E2DCE989-2657-47EA-91FE-B2106D1F3005";
shapes = (
{
closed = 1;
nodes = (
(460,1186,ls),
(460,1321,o),
(398,1379,o),
(280,1379,cs),
(168,1379,l),
(154,1365,l),
(154,174,ls),
(154,63,o),
(222,-5,o),
(331,-5,cs),
(460,-5,l)
);
},
{
closed = 1;
nodes = (
(646,258,ls),
(509,258,o),
(336,245,o),
(168,216,c),
(331,-5,l),
(792,-5,ls),
(944,-5,o),
(1000,63,o),
(1000,258,c)
);
}
);
width = 1042.034;
}
);
unicode = 76;
},
{
glyphname = M;
kernLeft = M;
kernRight = M;
lastChange = "2023-06-05 08:33:36 +0000";
layers = (
{
anchors = (
{
name = bottom;
pos = (793,0);
},
{
name = top;
pos = (792,1464);
}
);
layerId = "E2DCCAAC-30DB-413E-982C-2359C46E476F";
shapes = (
{
closed = 1;
nodes = (
(169,2,l),
(188,-4,o),
(218,-8,o),
(244,-8,cs),
(269,-8,o),
(294,-6,o),
(317,-2,c),
(374,826,ls),
(380,917,o),
(384,1090,o),
(390,1203,c),
(400,1203,l),
(717,213,l),
(739,209,o),
(766,207,o),
(792,207,cs),
(817,207,o),
(846,209,o),
(869,213,c),
(1187,1203,l),
(1197,1203,l),
(1201,1090,o),
(1207,917,o),
(1213,826,cs),
(1269,-2,l),
(1293,-6,o),
(1314,-8,o),
(1339,-8,cs),
(1365,-8,o),
(1397,-4,o),
(1418,2,c),
(1312,1366,l),
(1271,1372,o),
(1228,1372,o),
(1208,1372,cs),
(1186,1372,o),
(1151,1372,o),
(1110,1366,c),
(880,664,ls),
(857,595,o),
(803,402,o),
(798,372,c),
(788,372,l),
(784,402,o),
(730,595,o),
(707,664,cs),
(477,1366,l),
(441,1372,o),
(401,1372,o),
(379,1372,cs),
(359,1372,o),
(312,1372,o),
(275,1366,c)
);
}
);
width = 1586.6;
},
{
anchors = (
{
name = bottom;
pos = (833,0);
},
{
name = top;
pos = (834,1464);
}
);
layerId = "33C6340C-19D4-4BAD-95FA-1AE5BEBDD22C";
shapes = (
{
closed = 1;
nodes = (
(109,4,l),
(155,-8,o),
(220,-12,o),
(271,-12,cs),
(319,-12,o),
(365,-10,o),
(411,-2,c),
(442,555,ls),
(450,696,o),
(457,885,o),
(458,1015,c),
(471,1015,l),
(668,201,l),
(716,193,o),
(792,190,o),
(832,190,cs),
(877,190,o),
(950,193,o),
(998,201,c),
(1195,1015,l),
(1209,1015,l),
(1209,885,o),
(1217,696,o),
(1225,555,cs),
(1255,-2,l),
(1301,-10,o),
(1347,-12,o),
(1395,-12,cs),
(1447,-12,o),
(1511,-8,o),
(1557,4,c),
(1451,1364,l),
(1384,1376,o),
(1294,1379,o),
(1235,1379,cs),
(1177,1379,o),
(1101,1376,o),
(1033,1364,c),
(915,875,ls),
(904,827,o),
(857,613,o),
(840,511,c),
(826,511,l),
(810,613,o),
(763,827,o),
(752,875,cs),
(634,1364,l),
(566,1376,o),
(490,1379,o),
(431,1379,cs),
(373,1379,o),
(283,1376,o),
(215,1364,c)
);
}
);
width = 1666.64;
},
{
anchors = (
{
name = bottom;
pos = (790,0);
},
{
name = top;
pos = (789,1464);
}
);
layerId = "11405D41-D873-4173-B059-BD48D7789B90";
shapes = (
{
closed = 1;
nodes = (
(173,2,l),
(191,-4,o),
(218,-8,o),
(242,-8,cs),
(265,-8,o),
(289,-6,o),
(310,-2,c),
(369,846,ls),
(375,934,o),
(379,1105,o),
(385,1217,c),
(395,1217,l),
(721,214,l),
(741,210,o),
(764,208,o),
(789,208,cs),
(813,208,o),
(838,210,o),
(860,214,c),
(1186,1217,l),
(1196,1217,l),
(1200,1105,o),
(1206,934,o),
(1212,846,cs),
(1270,-2,l),
(1292,-6,o),
(1311,-8,o),
(1335,-8,cs),
(1359,-8,o),
(1388,-4,o),
(1408,2,c),
(1302,1366,l),
(1262,1372,o),
(1223,1372,o),
(1206,1372,cs),
(1186,1372,o),
(1155,1372,o),
(1116,1366,c),
(877,648,ls),
(853,578,o),
(799,386,o),
(795,362,c),
(785,362,l),
(782,386,o),
(727,578,o),
(703,648,cs),
(465,1366,l),
(432,1372,o),
(394,1372,o),
(375,1372,cs),
(358,1372,o),
(314,1372,o),
(279,1366,c)
);
}
);
width = 1580.62;
},
{
anchors = (
{
name = bottom;
pos = (829,0);
},
{
name = top;
pos = (830,1464);
}
);
layerId = "E2DCE989-2657-47EA-91FE-B2106D1F3005";
shapes = (
{
closed = 1;
nodes = (
(114,4,l),
(158,-8,o),
(220,-12,o),
(269,-12,cs),
(314,-12,o),
(359,-10,o),
(402,-2,c),
(436,578,ls),
(444,716,o),
(451,903,o),
(452,1031,c),
(465,1031,l),
(673,202,l),
(719,194,o),
(790,191,o),
(828,191,cs),
(872,191,o),
(941,194,o),
(987,202,c),
(1194,1031,l),
(1208,1031,l),
(1208,903,o),
(1216,716,o),
(1224,578,cs),
(1256,-2,l),
(1300,-10,o),
(1344,-12,o),
(1390,-12,cs),
(1440,-12,o),
(1501,-8,o),
(1545,4,c),
(1439,1364,l),
(1374,1376,o),
(1288,1379,o),
(1233,1379,cs),
(1178,1379,o),
(1106,1376,o),
(1040,1364,c),
(912,856,ls),
(900,806,o),
(852,594,o),
(836,499,c),
(822,499,l),
(808,594,o),
(760,806,o),
(748,856,cs),
(620,1364,l),
(555,1376,o),
(482,1379,o),
(426,1379,cs),
(372,1379,o),
(285,1376,o),
(220,1364,c)
);
}
);
width = 1659.556;
}
);
unicode = 77;
},
{
glyphname = N;
lastChange = "2023-06-05 08:33:36 +0000";
layers = (
{
anchors = (
{
name = bottom;
pos = (671,0);
},
{
name = top;
pos = (676,1464);
}
);
layerId = "E2DCCAAC-30DB-413E-982C-2359C46E476F";
shapes = (
{
closed = 1;
nodes = (
(197,0,l),
(223,-4,o),
(247,-6,o),
(268,-6,cs),
(289,-6,o),
(313,-4,o),
(340,0,c),
(340,750,ls),
(340,889,o),
(332,1059,o),
(328,1181,c),
(342,1182,l),
(384,1366,l),
(358,1370,o),
(320,1372,o),
(289,1372,cs),
(262,1372,o),
(223,1370,o),
(197,1366,c)
);
},
{
closed = 1;
nodes = (
(957,0,l),
(1083,103,l),
(1009,178,l),
(966,265,o),
(922,362,o),
(870,459,cs),
(384,1366,l),
(260,1274,l),
(334,1182,l),
(377,1092,o),
(419,1003,o),
(470,907,cs)
);
},
{
closed = 1;
nodes = (
(1133,1372,l),
(1082,1372,ls),
(1015,1372,o),
(1003,1339,o),
(1003,1273,cs),
(1003,634,ls),
(1003,496,o),
(1009,324,o),
(1015,178,c),
(1001,178,l),
(957,0,l),
(983,-4,o),
(1014,-6,o),
(1052,-6,cs),
(1090,-6,o),
(1120,-4,o),
(1145,0,c),
(1145,1362,l)
);
}
);
width = 1342.8;
},
{
anchors = (
{
name = bottom;
pos = (696,0);
},
{
name = top;
pos = (703,1464);
}
);
layerId = "33C6340C-19D4-4BAD-95FA-1AE5BEBDD22C";
shapes = (
{
closed = 1;
nodes = (
(152,0,l),
(202,-9,o),
(266,-11,o),
(305,-11,cs),
(345,-11,o),
(398,-9,o),
(450,0,c),
(450,398,ls),
(450,564,o),
(440,825,o),
(425,995,c),
(446,1003,l),
(527,1366,l),
(457,1375,o),
(382,1377,o),
(341,1377,cs),
(300,1377,o),
(202,1372,o),
(152,1361,c)
);
},
{
closed = 1;
nodes = (
(861,0,l),
(1122,173,l),
(960,348,l),
(931,422,o),
(885,534,o),
(835,652,cs),
(527,1366,l),
(285,1170,l),
(433,999,l),
(460,922,o),
(501,819,o),
(545,716,cs)
);
},
{
closed = 1;
nodes = (
(1225,1379,l),
(1122,1379,ls),
(999,1379,o),
(943,1329,o),
(943,1186,cs),
(943,942,ls),
(943,804,o),
(951,538,o),
(968,352,c),
(945,345,l),
(861,0,l),
(931,-9,o),
(1005,-11,o),
(1047,-11,cs),
(1088,-11,o),
(1188,-6,o),
(1239,5,c),
(1239,1366,l)
);
}
);
width = 1391.52;
},
{
anchors = (
{
name = bottom;
pos = (669,0);
},
{
name = top;
pos = (674,1464);
}
);
layerId = "11405D41-D873-4173-B059-BD48D7789B90";
shapes = (
{
closed = 1;
nodes = (
(201,0,l),
(224,-4,o),
(246,-6,o),
(265,-6,cs),
(285,-6,o),
(307,-4,o),
(332,0,c),
(332,776,ls),
(332,913,o),
(324,1076,o),
(321,1195,c),
(334,1195,l),
(373,1366,l),
(350,1370,o),
(315,1372,o),
(285,1372,cs),
(259,1372,o),
(224,1370,o),
(201,1366,c)
);
},
{
closed = 1;
nodes = (
(964,0,l),
(1080,98,l),
(1013,165,l),
(969,253,o),
(925,349,o),
(873,445,cs),
(373,1366,l),
(258,1282,l),
(326,1195,l),
(371,1105,o),
(413,1017,o),
(465,921,cs)
);
},
{
closed = 1;
nodes = (
(1126,1372,l),
(1079,1372,ls),
(1016,1372,o),
(1007,1340,o),
(1007,1280,cs),
(1007,611,ls),
(1007,473,o),
(1013,308,o),
(1019,165,c),
(1005,165,l),
(964,0,l),
(987,-4,o),
(1014,-6,o),
(1052,-6,cs),
(1090,-6,o),
(1115,-4,o),
(1138,0,c),
(1138,1362,l)
);
}
);
width = 1339.16;
},
{
anchors = (
{
name = bottom;
pos = (693,0);
},
{
name = top;
pos = (701,1464);
}
);
layerId = "E2DCE989-2657-47EA-91FE-B2106D1F3005";
shapes = (
{
closed = 1;
nodes = (
(156,0,l),
(203,-9,o),
(265,-11,o),
(301,-11,cs),
(340,-11,o),
(391,-9,o),
(440,0,c),
(440,429,ls),
(440,592,o),
(430,846,o),
(417,1011,c),
(437,1019,l),
(514,1366,l),
(448,1375,o),
(377,1377,o),
(336,1377,cs),
(296,1377,o),
(203,1372,o),
(156,1361,c)
);
},
{
closed = 1;
nodes = (
(870,0,l),
(1118,167,l),
(965,333,l),
(934,408,o),
(889,519,o),
(838,635,cs),
(514,1366,l),
(282,1179,l),
(424,1015,l),
(453,937,o),
(494,835,o),
(539,733,cs)
);
},
{
closed = 1;
nodes = (
(1216,1379,l),
(1118,1379,ls),
(1000,1379,o),
(948,1330,o),
(948,1194,cs),
(948,915,ls),
(948,777,o),
(956,519,o),
(972,337,c),
(950,330,l),
(870,0,l),
(936,-9,o),
(1006,-11,o),
(1047,-11,cs),
(1088,-11,o),
(1182,-6,o),
(1230,5,c),
(1230,1366,l)
);
}
);
width = 1387.208;
}
);
metricRight = "=|";
unicode = 78;
},
{
glyphname = O;
kernLeft = C;
kernRight = O;
lastChange = "2023-06-05 08:33:36 +0000";
layers = (
{
anchors = (
{
name = bottom;
pos = (653,0);
},
{
name = ogonek;
pos = (838,8);
},
{
name = top;
pos = (653,1464);
},
{
name = topright;
pos = (1002,1346);
}
);
layerId = "E2DCCAAC-30DB-413E-982C-2359C46E476F";
shapes = (
{
closed = 1;
nodes = (
(276,943,o),
(347,1262,o),
(653,1262,cs),
(959,1262,o),
(1028,943,o),
(1028,684,cs),
(1028,425,o),
(959,104,o),
(653,104,cs),
(347,104,o),
(276,425,o),
(276,684,cs)
);
},
{
closed = 1;
nodes = (
(114,295,o),
(284,-24,o),
(653,-24,cs),
(1020,-24,o),
(1192,292,o),
(1192,684,cs),
(1192,1072,o),
(1021,1390,o),
(653,1390,cs),
(287,1390,o),
(114,1074,o),
(114,684,cs)
);
}
);
width = 1305.6;
},
{
anchors = (
{
name = bottom;
pos = (667,0);
},
{
name = ogonek;
pos = (874,1);
},
{
name = top;
pos = (667,1464);
},
{
name = topright;
pos = (1103,1337);
}
);
layerId = "33C6340C-19D4-4BAD-95FA-1AE5BEBDD22C";
shapes = (
{
closed = 1;
nodes = (
(406,894,o),
(436,1150,o),
(667,1150,cs),
(898,1150,o),
(927,894,o),
(927,684,cs),
(927,474,o),
(898,216,o),
(667,216,cs),
(436,216,o),
(406,474,o),
(406,684,cs)
);
},
{
closed = 1;
nodes = (
(72,258,o),
(260,-29,o),
(667,-29,cs),
(1070,-29,o),
(1262,254,o),
(1262,684,cs),
(1262,1109,o),
(1073,1395,o),
(667,1395,cs),
(263,1395,o),
(72,1112,o),
(72,684,cs)
);
}
);
width = 1333.44;
},
{
anchors = (
{
name = bottom;
pos = (652,0);
},
{
name = ogonek;
pos = (835,8);
},
{
name = top;
pos = (652,1464);
},
{
name = topright;
pos = (994,1346);
}
);
layerId = "11405D41-D873-4173-B059-BD48D7789B90";
shapes = (
{
closed = 1;
nodes = (
(266,947,o),
(340,1270,o),
(652,1270,cs),
(963,1270,o),
(1036,947,o),
(1036,684,cs),
(1036,421,o),
(963,96,o),
(652,96,cs),
(340,96,o),
(266,421,o),
(266,684,cs)
);
},
{
closed = 1;
nodes = (
(117,298,o),
(286,-24,o),
(652,-24,cs),
(1016,-24,o),
(1187,295,o),
(1187,684,cs),
(1187,1069,o),
(1017,1390,o),
(652,1390,cs),
(289,1390,o),
(117,1071,o),
(117,684,cs)
);
}
);
width = 1303.52;
},
{
anchors = (
{
name = bottom;
pos = (666,0);
},
{
name = ogonek;
pos = (870,1);
},
{
name = top;
pos = (666,1464);
},
{
name = topright;
pos = (1094,1338);
}
);
layerId = "E2DCE989-2657-47EA-91FE-B2106D1F3005";
shapes = (
{
closed = 1;
nodes = (
(395,899,o),
(428,1160,o),
(666,1160,cs),
(903,1160,o),
(936,899,o),
(936,684,cs),
(936,469,o),
(903,206,o),
(666,206,cs),
(428,206,o),
(395,469,o),
(395,684,cs)
);
},
{
closed = 1;
nodes = (
(76,262,o),
(263,-29,o),
(666,-29,cs),
(1065,-29,o),
(1256,258,o),
(1256,684,cs),
(1256,1105,o),
(1068,1395,o),
(666,1395,cs),
(266,1395,o),
(76,1108,o),
(76,684,cs)
);
}
);
width = 1330.976;
}
);
unicode = 79;
},
{
glyphname = P;
lastChange = "2023-06-05 08:33:36 +0000";
layers = (
{
anchors = (
{
name = top;
pos = (577,1464);
}
);
layerId = "E2DCCAAC-30DB-413E-982C-2359C46E476F";
shapes = (
{
closed = 1;
nodes = (
(1033,1228,o),
(848,1372,o),
(592,1372,cs),
(465,1372,o),
(349,1368,o),
(210,1366,c),
(197,1354,l),
(197,0,l),
(217,-4,o),
(246,-6,o),
(272,-6,cs),
(301,-6,o),
(329,-4,o),
(351,0,c),
(351,1246,l),
(424,1244,o),
(530,1244,o),
(596,1244,cs),
(817,1244,o),
(870,1081,o),
(870,944,cs),
(870,810,o),
(817,642,o),
(596,642,cs),
(530,642,o),
(360,641,o),
(287,639,c),
(287,513,l),
(592,513,ls),
(852,513,o),
(1033,662,o),
(1033,944,cs)
);
}
);
width = 1111.8;
},
{
anchors = (
{
name = top;
pos = (600,1464);
}
);
layerId = "33C6340C-19D4-4BAD-95FA-1AE5BEBDD22C";
shapes = (
{
closed = 1;
nodes = (
(1120,1226,o),
(914,1377,o),
(630,1377,cs),
(479,1377,o),
(337,1373,o),
(166,1370,c),
(152,1356,l),
(152,0,l),
(203,-9,o),
(273,-11,o),
(312,-11,cs),
(355,-11,o),
(420,-9,o),
(473,0,c),
(473,1134,l),
(527,1132,o),
(563,1132,o),
(603,1132,cs),
(763,1132,o),
(793,996,o),
(793,902,cs),
(793,806,o),
(763,671,o),
(603,671,cs),
(563,671,o),
(391,666,o),
(337,662,c),
(337,428,l),
(630,428,ls),
(914,428,o),
(1120,589,o),
(1120,902,cs)
);
}
);
width = 1177.92;
},
{
anchors = (
{
name = top;
pos = (575,1464);
}
);
layerId = "11405D41-D873-4173-B059-BD48D7789B90";
shapes = (
{
closed = 1;
nodes = (
(1027,1228,o),
(843,1372,o),
(589,1372,cs),
(464,1372,o),
(350,1368,o),
(213,1366,c),
(201,1354,l),
(201,0,l),
(218,-4,o),
(244,-6,o),
(269,-6,cs),
(297,-6,o),
(322,-4,o),
(342,0,c),
(342,1254,l),
(416,1252,o),
(527,1252,o),
(596,1252,cs),
(821,1252,o),
(876,1087,o),
(876,947,cs),
(876,810,o),
(821,640,o),
(596,640,cs),
(527,640,o),
(358,639,o),
(283,637,c),
(283,519,l),
(589,519,ls),
(847,519,o),
(1027,667,o),
(1027,947,cs)
);
}
);
width = 1106.86;
},
{
anchors = (
{
name = top;
pos = (597,1464);
}
);
layerId = "E2DCE989-2657-47EA-91FE-B2106D1F3005";
shapes = (
{
closed = 1;
nodes = (
(1113,1226,o),
(908,1377,o),
(626,1377,cs),
(478,1377,o),
(338,1373,o),
(170,1370,c),
(156,1356,l),
(156,0,l),
(204,-9,o),
(271,-11,o),
(308,-11,cs),
(350,-11,o),
(412,-9,o),
(462,0,c),
(462,1144,l),
(518,1142,o),
(560,1142,o),
(603,1142,cs),
(768,1142,o),
(800,1003,o),
(800,906,cs),
(800,806,o),
(768,669,o),
(603,669,cs),
(560,669,o),
(389,663,o),
(332,659,c),
(332,435,l),
(626,435,ls),
(909,435,o),
(1113,595,o),
(1113,906,cs)
);
}
);
width = 1172.068;
}
);
unicode = 80;
},
{
glyphname = Q;
kernLeft = C;
kernRight = O;
lastChange = "2023-06-05 08:33:36 +0000";
layers = (
{
layerId = "E2DCCAAC-30DB-413E-982C-2359C46E476F";
shapes = (
{
closed = 1;
nodes = (
(275,947,o),
(336,1262,o),
(642,1262,cs),
(947,1262,o),
(1006,947,o),
(1006,684,cs),
(1006,421,o),
(947,110,o),
(642,110,cs),
(336,110,o),
(275,421,o),
(275,684,cs)
);
},
{
closed = 1;
nodes = (
(114,281,o),
(265,-24,o),
(653,-24,cs),
(717,-24,o),
(735,-7,o),
(770,10,cs),
(1043,17,o),
(1170,372,o),
(1170,684,cs),
(1170,1078,o),
(1018,1390,o),
(642,1390,cs),
(268,1390,o),
(114,1081,o),
(114,684,cs)
);
},
{
closed = 1;
nodes = (
(925,-197,ls),
(962,-222,o),
(998,-237,o),
(1046,-237,cs),
(1096,-237,o),
(1152,-206,o),
(1157,-122,c),
(1094,-121,o),
(1042,-101,o),
(904,-2,cs),
(786,83,l),
(609,28,l)
);
}
);
width = 1283.2;
},
{
layerId = "33C6340C-19D4-4BAD-95FA-1AE5BEBDD22C";
shapes = (
{
closed = 1;
nodes = (
(400,897,o),
(437,1150,o),
(669,1150,cs),
(902,1150,o),
(936,897,o),
(936,684,cs),
(936,473,o),
(902,216,o),
(669,216,cs),
(437,216,o),
(400,473,o),
(400,684,cs)
);
},
{
closed = 1;
nodes = (
(72,266,o),
(260,-29,o),
(669,-29,cs),
(736,-29,o),
(793,3,o),
(841,41,cs),
(1142,42,o),
(1267,349,o),
(1267,682,cs),
(1267,1102,o),
(1079,1395,o),
(669,1395,cs),
(262,1395,o),
(72,1105,o),
(72,684,cs)
);
},
{
closed = 1;
nodes = (
(871,-209,ls),
(925,-257,o),
(991,-289,o),
(1084,-289,cs),
(1191,-289,o),
(1284,-202,o),
(1286,-62,c),
(1204,-61,o),
(1139,-41,o),
(1034,33,cs),
(846,166,l),
(557,68,l)
);
}
);
width = 1338.88;
},
{
layerId = "11405D41-D873-4173-B059-BD48D7789B90";
shapes = (
{
closed = 1;
nodes = (
(266,951,o),
(328,1270,o),
(640,1270,cs),
(951,1270,o),
(1011,951,o),
(1011,684,cs),
(1011,417,o),
(951,102,o),
(640,102,cs),
(328,102,o),
(266,417,o),
(266,684,cs)
);
},
{
closed = 1;
nodes = (
(117,282,o),
(265,-24,o),
(652,-24,cs),
(716,-24,o),
(731,-8,o),
(765,8,cs),
(1035,15,o),
(1163,374,o),
(1163,684,cs),
(1163,1076,o),
(1013,1390,o),
(640,1390,cs),
(268,1390,o),
(117,1079,o),
(117,684,cs)
);
},
{
closed = 1;
nodes = (
(929,-196,ls),
(965,-219,o),
(998,-233,o),
(1043,-233,cs),
(1089,-233,o),
(1142,-206,o),
(1148,-127,c),
(1086,-125,o),
(1035,-105,o),
(894,-5,cs),
(781,77,l),
(613,25,l)
);
}
);
width = 1279.04;
},
{
layerId = "E2DCE989-2657-47EA-91FE-B2106D1F3005";
shapes = (
{
closed = 1;
nodes = (
(389,902,o),
(428,1160,o),
(667,1160,cs),
(906,1160,o),
(942,902,o),
(942,684,cs),
(942,468,o),
(906,206,o),
(667,206,cs),
(428,206,o),
(389,468,o),
(389,684,cs)
);
},
{
closed = 1;
nodes = (
(76,267,o),
(260,-29,o),
(668,-29,cs),
(735,-29,o),
(788,2,o),
(835,39,cs),
(1133,39,o),
(1259,352,o),
(1259,682,cs),
(1259,1099,o),
(1074,1395,o),
(667,1395,cs),
(262,1395,o),
(76,1102,o),
(76,684,cs)
);
},
{
closed = 1;
nodes = (
(876,-208,ls),
(929,-254,o),
(991,-284,o),
(1080,-284,cs),
(1183,-284,o),
(1273,-202,o),
(1275,-67,c),
(1194,-66,o),
(1131,-46,o),
(1023,30,cs),
(841,159,l),
(562,64,l)
);
}
);
width = 1333.952;
}
);
unicode = 81;
},
{
glyphname = Q.ss02;
kernLeft = C;
kernRight = O;
lastChange = "2023-06-05 08:33:36 +0000";
layers = (
{
layerId = "E2DCCAAC-30DB-413E-982C-2359C46E476F";
shapes = (
{
closed = 1;
nodes = (
(272,-48,l),
(428,-48,o),
(528,-98,o),
(673,-168,cs),
(827,-243,o),
(918,-278,o),
(1019,-278,cs),
(1106,-278,o),
(1160,-239,o),
(1160,-158,cs),
(1160,-141,o),
(1158,-124,o),
(1156,-116,c),
(1123,-126,o),
(1091,-128,o),
(1058,-128,cs),
(923,-128,o),
(786,-69,o),
(633,-14,c),
(1087,31,o),
(1156,464,o),
(1156,686,cs),
(1156,896,o),
(1100,1130,o),
(951,1268,cs),
(870,1344,o),
(769,1390,o),
(608,1390,cs),
(294,1390,o),
(89,1146,o),
(89,765,cs),
(89,450,o),
(243,232,o),
(464,232,cs),
(556,232,o),
(594,279,o),
(594,335,cs),
(594,351,o),
(592,368,o),
(588,381,c),
(377,340,o),
(250,487,o),
(250,777,cs),
(250,1035,o),
(346,1262,o),
(610,1262,cs),
(923,1262,o),
(990,947,o),
(990,686,cs),
(990,287,o),
(826,104,o),
(496,92,cs),
(410,88,o),
(384,98,o),
(270,90,c),
(260,63,o),
(254,42,o),
(254,17,cs),
(254,0,o),
(256,-19,o),
(260,-36,c)
);
}
);
width = 1274;
},
{
layerId = "33C6340C-19D4-4BAD-95FA-1AE5BEBDD22C";
shapes = (
{
closed = 1;
nodes = (
(239,-119,l),
(432,-119,o),
(526,-168,o),
(659,-243,cs),
(802,-325,o),
(909,-379,o),
(1033,-379,cs),
(1176,-379,o),
(1266,-295,o),
(1266,-165,cs),
(1266,-125,o),
(1261,-89,o),
(1255,-76,c),
(1201,-91,o),
(1145,-97,o),
(1095,-97,cs),
(968,-97,o),
(850,-53,o),
(727,-19,c),
(1170,48,o),
(1255,435,o),
(1255,679,cs),
(1255,892,o),
(1199,1130,o),
(1034,1272,cs),
(945,1348,o),
(829,1395,o),
(648,1395,cs),
(292,1395,o),
(66,1139,o),
(66,786,cs),
(66,445,o),
(253,267,o),
(459,267,cs),
(594,267,o),
(660,339,o),
(660,448,cs),
(660,476,o),
(654,509,o),
(648,528,c),
(493,512,o),
(386,601,o),
(386,820,cs),
(386,990,o),
(452,1148,o),
(650,1148,cs),
(878,1148,o),
(926,895,o),
(926,679,cs),
(926,334,o),
(764,175,o),
(452,160,cs),
(375,156,o),
(320,160,o),
(237,152,c),
(222,106,o),
(212,49,o),
(212,-4,cs),
(212,-37,o),
(216,-73,o),
(223,-102,c)
);
}
);
width = 1343.6;
},
{
layerId = "11405D41-D873-4173-B059-BD48D7789B90";
shapes = (
{
closed = 1;
nodes = (
(275,-43,l),
(428,-43,o),
(528,-93,o),
(674,-163,cs),
(829,-237,o),
(918,-270,o),
(1018,-270,cs),
(1101,-270,o),
(1152,-235,o),
(1152,-158,cs),
(1152,-142,o),
(1150,-127,o),
(1148,-119,c),
(1117,-129,o),
(1087,-130,o),
(1055,-130,cs),
(919,-130,o),
(781,-70,o),
(626,-14,c),
(1081,30,o),
(1148,466,o),
(1148,686,cs),
(1148,896,o),
(1092,1130,o),
(945,1268,cs),
(865,1344,o),
(765,1390,o),
(605,1390,cs),
(294,1390,o),
(91,1146,o),
(91,764,cs),
(91,450,o),
(242,229,o),
(464,229,cs),
(553,229,o),
(589,275,o),
(589,326,cs),
(589,342,o),
(587,358,o),
(583,370,c),
(368,327,o),
(240,478,o),
(240,774,cs),
(240,1039,o),
(338,1270,o),
(607,1270,cs),
(927,1270,o),
(995,951,o),
(995,686,cs),
(995,283,o),
(831,99,o),
(499,87,cs),
(413,83,o),
(389,93,o),
(273,85,c),
(263,60,o),
(257,42,o),
(257,18,cs),
(257,3,o),
(259,-15,o),
(263,-31,c)
);
}
);
width = 1268.8;
},
{
layerId = "E2DCE989-2657-47EA-91FE-B2106D1F3005";
shapes = (
{
closed = 1;
nodes = (
(242,-113,l),
(432,-113,o),
(526,-162,o),
(660,-237,cs),
(805,-318,o),
(910,-370,o),
(1032,-370,cs),
(1170,-370,o),
(1256,-290,o),
(1256,-165,cs),
(1256,-126,o),
(1252,-92,o),
(1246,-80,c),
(1194,-94,o),
(1140,-99,o),
(1091,-99,cs),
(964,-99,o),
(844,-54,o),
(718,-19,c),
(1163,47,o),
(1246,437,o),
(1246,679,cs),
(1246,892,o),
(1190,1130,o),
(1027,1272,cs),
(939,1348,o),
(824,1395,o),
(644,1395,cs),
(292,1395,o),
(69,1139,o),
(69,785,cs),
(69,445,o),
(252,264,o),
(459,264,cs),
(590,264,o),
(654,334,o),
(654,438,cs),
(654,465,o),
(649,497,o),
(643,515,c),
(483,497,o),
(374,591,o),
(374,817,cs),
(374,994,o),
(442,1158,o),
(646,1158,cs),
(882,1158,o),
(932,900,o),
(932,679,cs),
(932,330,o),
(769,169,o),
(456,154,cs),
(378,150,o),
(326,155,o),
(240,147,c),
(226,103,o),
(216,49,o),
(216,-3,cs),
(216,-33,o),
(220,-68,o),
(227,-96,c)
);
}
);
width = 1337.44;
}
);
},
{
glyphname = R;
kernRight = R;
lastChange = "2023-06-05 08:33:36 +0000";
layers = (
{
anchors = (
{
name = bottom;
pos = (608,0);
},
{
name = top;
pos = (591,1464);
}
);
layerId = "E2DCCAAC-30DB-413E-982C-2359C46E476F";
shapes = (
{
closed = 1;
nodes = (
(1049,1221,o),
(892,1372,o),
(614,1372,cs),
(486,1372,o),
(349,1368,o),
(210,1366,c),
(197,1354,l),
(197,0,l),
(217,-4,o),
(246,-6,o),
(272,-6,cs),
(301,-6,o),
(329,-4,o),
(351,0,c),
(351,1246,l),
(424,1244,o),
(546,1244,o),
(612,1244,cs),
(832,1244,o),
(887,1107,o),
(887,976,cs),
(887,850,o),
(832,708,o),
(612,708,cs),
(515,708,o),
(380,706,o),
(287,702,c),
(287,576,l),
(558,576,ls),
(692,576,o),
(740,497,o),
(779,393,cs),
(894,89,ls),
(919,23,o),
(942,-12,o),
(1003,-12,cs),
(1038,-12,o),
(1088,3,o),
(1109,38,c),
(1077,64,o),
(1058,93,o),
(1025,181,cs),
(921,451,ls),
(893,524,o),
(847,592,o),
(786,612,c),
(947,660,o),
(1049,795,o),
(1049,976,cs)
);
}
);
width = 1184.6;
},
{
anchors = (
{
name = bottom;
pos = (650,0);
},
{
name = top;
pos = (604,1464);
}
);
layerId = "33C6340C-19D4-4BAD-95FA-1AE5BEBDD22C";
shapes = (
{
closed = 1;
nodes = (
(1132,1246,o),
(923,1377,o),
(645,1377,cs),
(493,1377,o),
(337,1373,o),
(166,1370,c),
(152,1356,l),
(152,0,l),
(203,-9,o),
(272,-11,o),
(310,-11,cs),
(353,-11,o),
(416,-9,o),
(469,0,c),
(469,1138,l),
(527,1136,o),
(577,1136,o),
(617,1136,cs),
(770,1136,o),
(805,1047,o),
(805,943,cs),
(805,843,o),
(770,750,o),
(617,750,cs),
(575,750,o),
(417,744,o),
(339,740,c),
(339,501,l),
(553,501,ls),
(659,501,o),
(698,445,o),
(721,376,cs),
(793,167,ls),
(836,44,o),
(874,-17,o),
(989,-17,cs),
(1075,-17,o),
(1161,22,o),
(1201,76,c),
(1159,110,o),
(1125,161,o),
(1103,224,cs),
(1043,393,ls),
(1012,481,o),
(963,550,o),
(889,577,c),
(1003,622,o),
(1132,750,o),
(1132,943,cs)
);
}
);
width = 1229.84;
},
{
anchors = (
{
name = bottom;
pos = (605,0);
},
{
name = top;
pos = (590,1464);
}
);
layerId = "11405D41-D873-4173-B059-BD48D7789B90";
shapes = (
{
closed = 1;
nodes = (
(1043,1219,o),
(890,1372,o),
(612,1372,cs),
(486,1372,o),
(350,1368,o),
(213,1366,c),
(201,1354,l),
(201,0,l),
(218,-4,o),
(244,-6,o),
(269,-6,cs),
(297,-6,o),
(323,-4,o),
(342,0,c),
(342,1254,l),
(416,1252,o),
(544,1252,o),
(612,1252,cs),
(837,1252,o),
(893,1111,o),
(893,979,cs),
(893,850,o),
(837,705,o),
(612,705,cs),
(511,705,o),
(377,703,o),
(283,699,c),
(283,581,l),
(558,581,ls),
(695,581,o),
(743,501,o),
(783,394,cs),
(902,83,ls),
(925,22,o),
(947,-12,o),
(1004,-12,cs),
(1035,-12,o),
(1083,2,o),
(1102,35,c),
(1071,60,o),
(1053,88,o),
(1019,178,cs),
(912,455,ls),
(884,527,o),
(838,595,o),
(778,615,c),
(943,663,o),
(1043,799,o),
(1043,979,cs)
);
}
);
width = 1181.22;
},
{
anchors = (
{
name = bottom;
pos = (646,0);
},
{
name = top;
pos = (603,1464);
}
);
layerId = "E2DCE989-2657-47EA-91FE-B2106D1F3005";
shapes = (
{
closed = 1;
nodes = (
(1125,1243,o),
(921,1377,o),
(643,1377,cs),
(493,1377,o),
(338,1373,o),
(170,1370,c),
(156,1356,l),
(156,0,l),
(204,-9,o),
(270,-11,o),
(306,-11,cs),
(348,-11,o),
(409,-9,o),
(459,0,c),
(459,1148,l),
(518,1146,o),
(575,1146,o),
(617,1146,cs),
(775,1146,o),
(812,1052,o),
(812,946,cs),
(812,843,o),
(775,746,o),
(617,746,cs),
(570,746,o),
(413,740,o),
(334,736,c),
(334,507,l),
(553,507,ls),
(662,507,o),
(702,450,o),
(726,377,cs),
(802,160,ls),
(843,43,o),
(880,-17,o),
(990,-17,cs),
(1071,-17,o),
(1155,21,o),
(1192,72,c),
(1152,106,o),
(1119,155,o),
(1096,221,cs),
(1032,398,ls),
(1002,485,o),
(953,554,o),
(880,580,c),
(998,626,o),
(1125,754,o),
(1125,946,cs)
);
}
);
width = 1225.836;
}
);
unicode = 82;
},
{
glyphname = S;
kernLeft = S;
kernRight = S;
lastChange = "2023-06-05 08:33:36 +0000";
layers = (
{
anchors = (
{
name = bottom;
pos = (556,0);
},
{
name = top;
pos = (565,1464);
}
);
layerId = "E2DCCAAC-30DB-413E-982C-2359C46E476F";
shapes = (
{
closed = 1;
nodes = (
(203,35,o),
(374,-24,o),
(542,-24,cs),
(861,-24,o),
(1013,139,o),
(1013,362,cs),
(1013,546,o),
(873,658,o),
(715,724,cs),
(480,822,ls),
(375,866,o),
(286,925,o),
(286,1033,cs),
(286,1167,o),
(402,1259,o),
(569,1259,cs),
(670,1259,o),
(795,1221,o),
(901,1167,c),
(936,1196,o),
(961,1249,o),
(962,1293,c),
(858,1344,o),
(718,1390,o),
(564,1390,cs),
(297,1390,o),
(130,1220,o),
(130,1020,cs),
(130,860,o),
(230,756,o),
(399,684,cs),
(641,582,ls),
(761,531,o),
(854,451,o),
(854,330,cs),
(854,194,o),
(735,111,o),
(549,111,cs),
(414,111,o),
(266,167,o),
(148,248,c),
(115,223,o),
(82,172,o),
(77,126,c)
);
}
);
width = 1110.2;
},
{
anchors = (
{
name = bottom;
pos = (551,0);
},
{
name = top;
pos = (565,1464);
}
);
layerId = "33C6340C-19D4-4BAD-95FA-1AE5BEBDD22C";
shapes = (
{
closed = 1;
nodes = (
(178,23,o),
(374,-29,o),
(537,-29,cs),
(886,-29,o),
(1062,156,o),
(1062,399,cs),
(1062,572,o),
(954,714,o),
(760,794,cs),
(514,895,ls),
(426,932,o),
(397,970,o),
(397,1021,cs),
(397,1075,o),
(441,1139,o),
(556,1139,cs),
(664,1139,o),
(815,1090,o),
(917,1042,c),
(979,1099,o),
(1020,1189,o),
(1025,1281,c),
(921,1335,o),
(745,1395,o),
(556,1395,cs),
(284,1395,o),
(69,1227,o),
(69,978,cs),
(69,787,o),
(190,678,o),
(355,609,cs),
(596,509,ls),
(708,462,o),
(722,402,o),
(722,359,cs),
(722,295,o),
(675,227,o),
(559,227,cs),
(416,227,o),
(266,291,o),
(153,358,c),
(92,305,o),
(38,209,o),
(30,119,c)
);
}
);
width = 1113.68;
},
{
anchors = (
{
name = bottom;
pos = (556,0);
},
{
name = top;
pos = (565,1464);
}
);
layerId = "11405D41-D873-4173-B059-BD48D7789B90";
shapes = (
{
closed = 1;
nodes = (
(205,36,o),
(374,-24,o),
(542,-24,cs),
(859,-24,o),
(1009,138,o),
(1009,359,cs),
(1009,544,o),
(867,654,o),
(711,719,cs),
(477,817,ls),
(371,861,o),
(278,921,o),
(278,1034,cs),
(278,1174,o),
(399,1268,o),
(570,1268,cs),
(670,1268,o),
(794,1231,o),
(900,1176,c),
(933,1203,o),
(957,1253,o),
(957,1294,c),
(853,1344,o),
(716,1390,o),
(564,1390,cs),
(298,1390,o),
(135,1220,o),
(135,1023,cs),
(135,865,o),
(233,762,o),
(403,689,cs),
(645,587,ls),
(765,536,o),
(864,455,o),
(864,328,cs),
(864,186,o),
(739,102,o),
(548,102,cs),
(414,102,o),
(266,158,o),
(148,240,c),
(117,217,o),
(85,169,o),
(81,126,c)
);
}
);
width = 1109.94;
},
{
anchors = (
{
name = bottom;
pos = (551,0);
},
{
name = top;
pos = (565,1464);
}
);
layerId = "E2DCE989-2657-47EA-91FE-B2106D1F3005";
shapes = (
{
closed = 1;
nodes = (
(181,24,o),
(374,-29,o),
(537,-29,cs),
(883,-29,o),
(1057,155,o),
(1057,395,cs),
(1057,570,o),
(947,709,o),
(756,788,cs),
(511,889,ls),
(421,926,o),
(387,966,o),
(387,1022,cs),
(387,1084,o),
(437,1150,o),
(557,1150,cs),
(664,1150,o),
(814,1102,o),
(916,1053,c),
(975,1107,o),
(1015,1194,o),
(1019,1282,c),
(915,1336,o),
(743,1395,o),
(557,1395,cs),
(285,1395,o),
(74,1227,o),
(74,982,cs),
(74,793,o),
(194,686,o),
(359,615,cs),
(600,515,ls),
(713,468,o),
(733,407,o),
(733,357,cs),
(733,286,o),
(680,217,o),
(558,217,cs),
(416,217,o),
(266,280,o),
(153,348,c),
(95,298,o),
(42,205,o),
(34,119,c)
);
}
);
width = 1113.372;
}
);
unicode = 83;
},
{
glyphname = T;
kernLeft = T;
kernRight = T;
lastChange = "2023-06-05 08:33:36 +0000";
layers = (
{
anchors = (
{
name = bottom;
pos = (485,0);
},
{
name = top;
pos = (483,1464);
}
);
layerId = "E2DCCAAC-30DB-413E-982C-2359C46E476F";
shapes = (
{
closed = 1;
nodes = (
(299,1234,ls),
(325,1234,o),
(382,1236,o),
(408,1236,cs),
(561,1236,ls),
(588,1236,o),
(646,1234,o),
(670,1234,cs),
(842,1234,ls),
(905,1234,o),
(934,1253,o),
(934,1303,cs),
(934,1324,o),
(930,1347,o),
(924,1366,c),
(44,1366,l),
(39,1343,o),
(37,1321,o),
(37,1300,cs),
(37,1279,o),
(39,1256,o),
(44,1234,c)
);
},
{
closed = 1;
nodes = (
(408,0,l),
(430,-4,o),
(459,-6,o),
(485,-6,cs),
(510,-6,o),
(539,-4,o),
(561,0,c),
(561,1088,ls),
(561,1142,o),
(561,1180,o),
(561,1236,cs),
(561,1300,l),
(408,1300,l),
(408,1236,ls),
(408,1180,o),
(408,1142,o),
(408,1088,cs)
);
}
);
width = 965.1;
},
{
anchors = (
{
name = bottom;
pos = (512,0);
},
{
name = top;
pos = (511,1464);
}
);
layerId = "33C6340C-19D4-4BAD-95FA-1AE5BEBDD22C";
shapes = (
{
closed = 1;
nodes = (
(225,1100,ls),
(254,1100,o),
(322,1102,o),
(351,1102,cs),
(672,1102,ls),
(702,1102,o),
(769,1100,o),
(798,1100,cs),
(857,1100,ls),
(972,1100,o),
(1024,1139,o),
(1024,1243,cs),
(1024,1284,o),
(1018,1333,o),
(1008,1366,c),
(18,1366,l),
(9,1318,o),
(7,1269,o),
(7,1232,cs),
(7,1196,o),
(9,1148,o),
(18,1100,c)
);
},
{
closed = 1;
nodes = (
(351,0,l),
(406,-9,o),
(467,-11,o),
(512,-11,cs),
(556,-11,o),
(617,-9,o),
(672,0,c),
(672,954,ls),
(672,1008,o),
(670,1046,o),
(670,1102,cs),
(670,1234,l),
(353,1234,l),
(353,1102,ls),
(353,1046,o),
(351,1008,o),
(351,954,cs)
);
}
);
width = 1019.04;
},
{
anchors = (
{
name = bottom;
pos = (483,0);
},
{
name = top;
pos = (481,1464);
}
);
layerId = "11405D41-D873-4173-B059-BD48D7789B90";
shapes = (
{
closed = 1;
nodes = (
(304,1244,ls),
(330,1244,o),
(386,1246,o),
(412,1246,cs),
(553,1246,ls),
(579,1246,o),
(637,1244,o),
(661,1244,cs),
(841,1244,ls),
(900,1244,o),
(927,1262,o),
(927,1307,cs),
(927,1327,o),
(923,1348,o),
(918,1366,c),
(46,1366,l),
(41,1345,o),
(39,1325,o),
(39,1305,cs),
(39,1285,o),
(41,1264,o),
(46,1244,c)
);
},
{
closed = 1;
nodes = (
(412,0,l),
(432,-4,o),
(459,-6,o),
(483,-6,cs),
(506,-6,o),
(533,-4,o),
(553,0,c),
(553,1098,ls),
(553,1152,o),
(553,1190,o),
(553,1246,cs),
(553,1305,l),
(412,1305,l),
(412,1246,ls),
(412,1190,o),
(412,1152,o),
(412,1098,cs)
);
}
);
width = 961.07;
},
{
anchors = (
{
name = bottom;
pos = (510,0);
},
{
name = top;
pos = (509,1464);
}
);
layerId = "E2DCE989-2657-47EA-91FE-B2106D1F3005";
shapes = (
{
closed = 1;
nodes = (
(231,1112,ls),
(260,1112,o),
(327,1114,o),
(356,1114,cs),
(662,1114,ls),
(692,1114,o),
(758,1112,o),
(787,1112,cs),
(856,1112,ls),
(966,1112,o),
(1016,1149,o),
(1016,1248,cs),
(1016,1288,o),
(1010,1334,o),
(1000.997,1366,c),
(21,1366,l),
(11,1321,o),
(9,1274,o),
(9,1238,cs),
(9,1203,o),
(11,1158,o),
(21,1112,c)
);
},
{
closed = 1;
nodes = (
(356,0,l),
(409,-9,o),
(466,-11,o),
(510,-11,cs),
(552,-11,o),
(609,-9,o),
(662,0,c),
(662,966,ls),
(662,1020,o),
(660,1058,o),
(660,1114,cs),
(660,1240,l),
(358,1240,l),
(358,1114,ls),
(358,1058,o),
(356,1020,o),
(356,966,cs)
);
}
);
width = 1014.266;
}
);
unicode = 84;
},
{
glyphname = U;
kernLeft = U;
kernRight = U;
lastChange = "2023-06-05 08:33:36 +0000";
layers = (
{
anchors = (
{
name = bottom;
pos = (666,0);
},
{
name = ogonek;
pos = (863,8);
},
{
name = top;
pos = (666,1464);
},
{
name = topright;
pos = (1152,1366);
}
);
layerId = "E2DCCAAC-30DB-413E-982C-2359C46E476F";
shapes = (
{
closed = 1;
nodes = (
(1152,1366,l),
(1130,1370,o),
(1101,1372,o),
(1073,1372,cs),
(1046,1372,o),
(1018,1370,o),
(998,1366,c),
(998,468,ls),
(998,229,o),
(876,103,o),
(666,103,cs),
(457,103,o),
(335,229,o),
(335,468,cs),
(335,1273,ls),
(335,1339,o),
(322,1372,o),
(255,1372,cs),
(193,1372,l),
(181,1360,l),
(181,466,ls),
(181,140,o),
(383,-24,o),
(665,-24,cs),
(950,-24,o),
(1152,140,o),
(1152,466,cs)
);
}
);
width = 1332.8;
},
{
anchors = (
{
name = bottom;
pos = (673,0);
},
{
name = ogonek;
pos = (908,8);
},
{
name = top;
pos = (668,1464);
},
{
name = topright;
pos = (1214,1366);
}
);
layerId = "33C6340C-19D4-4BAD-95FA-1AE5BEBDD22C";
shapes = (
{
closed = 1;
nodes = (
(1214,1366,l),
(1163,1375,o),
(1089,1377,o),
(1050,1377,cs),
(1008,1377,o),
(947,1375,o),
(894,1366,c),
(894,501,ls),
(894,318,o),
(834,225,o),
(673,225,cs),
(513,225,o),
(453,318,o),
(453,501,cs),
(453,1177,ls),
(453,1320,o),
(386,1379,o),
(263,1379,cs),
(146,1379,l),
(132,1365,l),
(132,504,ls),
(132,166,o),
(327,-29,o),
(673,-29,cs),
(1020,-29,o),
(1214,166,o),
(1214,504,cs)
);
}
);
width = 1346.72;
},
{
anchors = (
{
name = bottom;
pos = (666,0);
},
{
name = ogonek;
pos = (859,8);
},
{
name = top;
pos = (666,1464);
},
{
name = topright;
pos = (1147,1366);
}
);
layerId = "11405D41-D873-4173-B059-BD48D7789B90";
shapes = (
{
closed = 1;
nodes = (
(1147,1366,l),
(1127,1370,o),
(1102,1372,o),
(1075,1372,cs),
(1049,1372,o),
(1023,1370,o),
(1006,1366,c),
(1006,465,ls),
(1006,222,o),
(879,94,o),
(666,94,cs),
(453,94,o),
(326,222,o),
(326,465,cs),
(326,1280,ls),
(326,1340,o),
(317,1372,o),
(254,1372,cs),
(197,1372,l),
(185,1360,l),
(185,463,ls),
(185,138,o),
(387,-24,o),
(664,-24,cs),
(945,-24,o),
(1147,138,o),
(1147,463,cs)
);
}
);
width = 1331.76;
},
{
anchors = (
{
name = bottom;
pos = (673,0);
},
{
name = ogonek;
pos = (904,8);
},
{
name = top;
pos = (668,1464);
},
{
name = topright;
pos = (1209,1366);
}
);
layerId = "E2DCE989-2657-47EA-91FE-B2106D1F3005";
shapes = (
{
closed = 1;
nodes = (
(1209,1366,l),
(1160,1375,o),
(1090,1377,o),
(1053,1377,cs),
(1012,1377,o),
(953,1375,o),
(903,1366,c),
(903,498,ls),
(903,310,o),
(838,214,o),
(673,214,cs),
(508,214,o),
(443,310,o),
(443,498,cs),
(443,1186,ls),
(443,1321,o),
(380,1379,o),
(262,1379,cs),
(150,1379,l),
(137,1365,l),
(137,500,ls),
(137,164,o),
(332,-29,o),
(672,-29,cs),
(1014,-29,o),
(1209,164,o),
(1209,500,cs)
);
}
);
width = 1345.488;
}
);
unicode = 85;
},
{
glyphname = V;
lastChange = "2023-06-05 08:33:36 +0000";
layers = (
{
anchors = (
{
name = bottom;
pos = (561,0);
},
{
name = top;
pos = (570,1464);
}
);
layerId = "E2DCCAAC-30DB-413E-982C-2359C46E476F";
shapes = (
{
closed = 1;
nodes = (
(581,149,l),
(573,149,o),
(569,151,o),
(565,165,cs),
(537,264,o),
(498,411,o),
(472,499,cs),
(235,1304,ls),
(218,1362,o),
(189,1378,o),
(150,1378,cs),
(117,1378,o),
(84,1368,o),
(54,1353,c),
(441,72,ls),
(459,11,o),
(488,-8,o),
(549,-8,cs),
(589,-8,o),
(623,-6,o),
(663,-2,c),
(1071,1351,l),
(1065,1364,l),
(1047,1368,o),
(1021,1372,o),
(994,1372,cs),
(968,1372,o),
(946,1370,o),
(928,1366,c)
);
}
);
width = 1113.7;
},
{
anchors = (
{
name = bottom;
pos = (604,0);
},
{
name = top;
pos = (610,1464);
}
);
layerId = "33C6340C-19D4-4BAD-95FA-1AE5BEBDD22C";
shapes = (
{
closed = 1;
nodes = (
(633,267,l),
(622,267,o),
(616,271,o),
(612,292,cs),
(593,409,o),
(568,538,o),
(536,656,cs),
(382,1225,ls),
(354,1335,o),
(305,1383,o),
(210,1383,cs),
(140,1383,o),
(75,1363,o),
(17,1337,c),
(350,132,ls),
(382,19,o),
(446,-12,o),
(566,-12,cs),
(649,-12,o),
(747,-8,o),
(821,0,c),
(1196,1339,l),
(1183,1357,l),
(1139,1372,o),
(1075,1377,o),
(1036,1377,cs),
(994,1377,o),
(944,1377,o),
(897,1366,c)
);
}
);
width = 1212.88;
},
{
anchors = (
{
name = bottom;
pos = (558,0);
},
{
name = top;
pos = (567,1464);
}
);
layerId = "11405D41-D873-4173-B059-BD48D7789B90";
shapes = (
{
closed = 1;
nodes = (
(577,140,l),
(569,140,o),
(565,142,o),
(561,156,cs),
(533,253,o),
(493,402,o),
(467,487,cs),
(224,1310,ls),
(208,1364,o),
(180,1378,o),
(145,1378,cs),
(115,1378,o),
(84,1368,o),
(57,1354,c),
(448,67,ls),
(465,10,o),
(491,-8,o),
(548,-8,cs),
(585,-8,o),
(614,-6,o),
(651,-2,c),
(1062,1352,l),
(1056,1364,l),
(1040,1368,o),
(1017,1372,o),
(991,1372,cs),
(966,1372,o),
(946,1370,o),
(930,1366,c)
);
}
);
width = 1106.29;
},
{
anchors = (
{
name = bottom;
pos = (601,0);
},
{
name = top;
pos = (606,1464);
}
);
layerId = "E2DCE989-2657-47EA-91FE-B2106D1F3005";
shapes = (
{
closed = 1;
nodes = (
(628,257,l),
(617,257,o),
(612,260,o),
(608,281,cs),
(588,396,o),
(562,527,o),
(530,642,cs),
(369,1233,ls),
(342,1337,o),
(295,1383,o),
(205,1383,cs),
(137,1383,o),
(76,1363,o),
(21,1338,c),
(358,127,ls),
(389,18,o),
(450,-12,o),
(565,-12,cs),
(644,-12,o),
(736,-8,o),
(807,0,c),
(1185,1340,l),
(1173,1357,l),
(1130,1372,o),
(1070,1377,o),
(1032,1377,cs),
(992,1377,o),
(944,1377,o),
(899,1366,c)
);
}
);
width = 1204.102;
}
);
unicode = 86;
},
{
glyphname = W;
kernLeft = W;
kernRight = W;
lastChange = "2023-06-05 08:33:36 +0000";
layers = (
{
anchors = (
{
name = bottom;
pos = (828,0);
},
{
name = top;
pos = (828,1464);
}
);
layerId = "E2DCCAAC-30DB-413E-982C-2359C46E476F";
shapes = (
{
closed = 1;
nodes = (
(336,75,ls),
(351,4,o),
(396,-8,o),
(444,-8,cs),
(480,-8,o),
(541,-6,o),
(579,0,c),
(720,666,ls),
(746,786,o),
(784,980,o),
(820,1176,c),
(832,1176,l),
(867,980,o),
(904,783,o),
(926,666,cs),
(1038,73,ls),
(1050,4,o),
(1087,-8,o),
(1134,-8,cs),
(1172,-8,o),
(1239,-6,o),
(1279,2,c),
(1577,1353,l),
(1569,1364,l),
(1545,1370,o),
(1518,1372,o),
(1494,1372,cs),
(1471,1372,o),
(1444,1370,o),
(1424,1366,c),
(1248,530,ls),
(1229,441,o),
(1192,255,o),
(1171,126,c),
(1160,126,o),
(1158,128,o),
(1154,147,cs),
(928,1336,l),
(906,1341,o),
(857,1343,o),
(828,1343,cs),
(802,1343,o),
(756,1341,o),
(727,1336,c),
(479,126,l),
(469,126,o),
(467,126,o),
(463,147,cs),
(446,243,o),
(410,441,o),
(394,529,cs),
(246,1297,ls),
(235,1355,o),
(214,1378,o),
(166,1378,cs),
(138,1378,o),
(112,1376,o),
(77,1359,c)
);
}
);
width = 1641.5;
},
{
anchors = (
{
name = bottom;
pos = (905,0);
},
{
name = top;
pos = (905,1464);
}
);
layerId = "33C6340C-19D4-4BAD-95FA-1AE5BEBDD22C";
shapes = (
{
closed = 1;
nodes = (
(266,133,ls),
(291,4,o),
(367,-12,o),
(470,-12,cs),
(557,-12,o),
(661,-6,o),
(737,2,c),
(828,565,ls),
(854,724,o),
(879,903,o),
(893,1029,c),
(909,1029,l),
(919,903,o),
(942,722,o),
(966,565,cs),
(1034,133,ls),
(1054,4,o),
(1134,-12,o),
(1229,-12,cs),
(1313,-12,o),
(1429,-6,o),
(1502,2,c),
(1767,1337,l),
(1751,1357,l),
(1709,1370,o),
(1650,1377,o),
(1600,1377,cs),
(1556,1377,o),
(1504,1375,o),
(1457,1366,c),
(1343,695,ls),
(1320,559,o),
(1295,377,o),
(1284,267,c),
(1272,267,o),
(1266,267,o),
(1262,294,cs),
(1109,1340,l),
(1049,1351,o),
(970,1355,o),
(905,1355,cs),
(842,1355,o),
(763,1351,o),
(700,1340,c),
(535,267,l),
(521,267,o),
(517,269,o),
(515,294,cs),
(506,390,o),
(481,561,o),
(460,691,cs),
(376,1208,ls),
(355,1345,o),
(311,1383,o),
(199,1383,cs),
(142,1383,o),
(77,1367,o),
(30,1347,c)
);
}
);
width = 1806.8;
},
{
anchors = (
{
name = bottom;
pos = (822,0);
},
{
name = top;
pos = (822,1464);
}
);
layerId = "11405D41-D873-4173-B059-BD48D7789B90";
shapes = (
{
closed = 1;
nodes = (
(341,71,ls),
(355,4,o),
(398,-8,o),
(442,-8,cs),
(474,-8,o),
(532,-6,o),
(567,0,c),
(712,674,ls),
(738,791,o),
(777,986,o),
(815,1187,c),
(826,1187,l),
(863,986,o),
(901,787,o),
(923,674,cs),
(1038,69,ls),
(1050,4,o),
(1083,-8,o),
(1127,-8,cs),
(1162,-8,o),
(1225,-6,o),
(1262,2,c),
(1563,1354,l),
(1555,1364,l),
(1533,1370,o),
(1508,1372,o),
(1486,1372,cs),
(1465,1372,o),
(1439,1370,o),
(1421,1366,c),
(1241,517,ls),
(1222,432,o),
(1184,246,o),
(1162,116,c),
(1152,116,o),
(1150,118,o),
(1146,136,cs),
(915,1336,l),
(895,1340,o),
(848,1342,o),
(822,1342,cs),
(799,1342,o),
(756,1340,o),
(729,1336,c),
(475,116,l),
(465,116,o),
(463,115,o),
(459,136,cs),
(441,232,o),
(405,432,o),
(389,517,cs),
(236,1304,ls),
(226,1356,o),
(207,1378,o),
(163,1378,cs),
(138,1378,o),
(115,1376,o),
(81,1360,c)
);
}
);
width = 1629.15;
},
{
anchors = (
{
name = bottom;
pos = (898,0);
},
{
name = top;
pos = (898,1464);
}
);
layerId = "E2DCE989-2657-47EA-91FE-B2106D1F3005";
shapes = (
{
closed = 1;
nodes = (
(272,128,ls),
(296,4,o),
(369,-12,o),
(468,-12,cs),
(550,-12,o),
(650,-6,o),
(723,2,c),
(818,574,ls),
(844,729,o),
(871,910,o),
(887,1042,c),
(902,1042,l),
(914,910,o),
(938,727,o),
(962,574,cs),
(1034,128,ls),
(1054,4,o),
(1130,-12,o),
(1221,-12,cs),
(1301,-12,o),
(1412,-6,o),
(1482,2,c),
(1750,1338,l),
(1735,1357,l),
(1694,1370,o),
(1639,1377,o),
(1590,1377,cs),
(1549,1377,o),
(1499,1375,o),
(1454,1366,c),
(1335,680,ls),
(1312,549,o),
(1286,366,o),
(1274,255,c),
(1262,255,o),
(1256,255,o),
(1252,281,cs),
(1093,1340,l),
(1036,1350,o),
(960,1354,o),
(898,1354,cs),
(838,1354,o),
(763,1350,o),
(703,1340,c),
(530,255,l),
(516,255,o),
(512,256,o),
(510,281,cs),
(501,377,o),
(475,550,o),
(454,676,cs),
(365,1216,ls),
(344,1346,o),
(303,1383,o),
(196,1383,cs),
(142,1383,o),
(80,1368,o),
(34,1348,c)
);
}
);
width = 1792.17;
}
);
unicode = 87;
},
{
glyphname = X;
lastChange = "2023-06-05 08:33:36 +0000";
layers = (
{
anchors = (
{
name = top;
pos = (578,1464);
}
);
layerId = "E2DCCAAC-30DB-413E-982C-2359C46E476F";
shapes = (
{
closed = 1;
nodes = (
(897,51,l),
(926,4,o),
(960,-12,o),
(993,-12,cs),
(1025,-12,o),
(1063,-1,o),
(1097,24,c),
(303,1315,ls),
(273,1362,o),
(240,1378,o),
(207,1378,cs),
(175,1378,o),
(137,1368,o),
(103,1343,c)
);
},
{
closed = 1;
nodes = (
(569,819,l),
(505,752,l),
(46,19,l),
(52,7,l),
(68,-2,o),
(100,-8,o),
(132,-8,cs),
(154,-8,o),
(188,-4,o),
(200,0,c),
(582,628,l),
(646,693,l),
(1053,1347,l),
(1047,1360,l),
(1031,1368,o),
(1000,1374,o),
(968,1374,cs),
(946,1374,o),
(915,1370,o),
(904,1366,c)
);
}
);
width = 1143.1;
},
{
anchors = (
{
name = top;
pos = (612,1464);
}
);
layerId = "33C6340C-19D4-4BAD-95FA-1AE5BEBDD22C";
shapes = (
{
closed = 1;
nodes = (
(801,107,l),
(862,11,o),
(916,-19,o),
(1007,-19,cs),
(1074,-19,o),
(1152,7,o),
(1215,50,c),
(460,1261,ls),
(400,1355,o),
(348,1385,o),
(257,1385,cs),
(191,1385,o),
(112,1359,o),
(49,1316,c)
);
},
{
closed = 1;
nodes = (
(614,939,l),
(484,794,l),
(17,33,l),
(25,15,l),
(70,0,o),
(135,-12,o),
(196,-12,cs),
(251,-12,o),
(296,-8,o),
(330,0,c),
(619,487,l),
(749,633,l),
(1175,1335,l),
(1167,1351,l),
(1125,1366,o),
(1060,1378,o),
(999,1378,cs),
(944,1378,o),
(899,1374,o),
(866,1366,c)
);
}
);
width = 1231.84;
},
{
anchors = (
{
name = top;
pos = (575,1464);
}
);
layerId = "11405D41-D873-4173-B059-BD48D7789B90";
shapes = (
{
closed = 1;
nodes = (
(904,47,l),
(931,4,o),
(963,-12,o),
(992,-12,cs),
(1021,-12,o),
(1056,-2,o),
(1088,22,c),
(291,1319,ls),
(264,1362,o),
(232,1378,o),
(203,1378,cs),
(174,1378,o),
(139,1368,o),
(107,1345,c)
);
},
{
closed = 1;
nodes = (
(565,810,l),
(506,749,l),
(48,18,l),
(54,6,l),
(68,-2,o),
(97,-8,o),
(127,-8,cs),
(147,-8,o),
(180,-4,o),
(190,0,c),
(579,638,l),
(638,697,l),
(1044,1348,l),
(1038,1360,l),
(1024,1368,o),
(995,1374,o),
(966,1374,cs),
(946,1374,o),
(916,1370,o),
(907,1366,c)
);
}
);
width = 1136.47;
},
{
anchors = (
{
name = top;
pos = (609,1464);
}
);
layerId = "E2DCE989-2657-47EA-91FE-B2106D1F3005";
shapes = (
{
closed = 1;
nodes = (
(810,102,l),
(868,11,o),
(920,-19,o),
(1006,-19,cs),
(1069,-19,o),
(1144,6,o),
(1205,48,c),
(446,1266,ls),
(389,1355,o),
(338,1385,o),
(252,1385,cs),
(190,1385,o),
(115,1360,o),
(54,1319,c)
);
},
{
closed = 1;
nodes = (
(610,928,l),
(485,790,l),
(19,32,l),
(27,14,l),
(70,0,o),
(132,-12,o),
(190,-12,cs),
(243,-12,o),
(286,-8,o),
(319,0,c),
(615,499,l),
(740,638,l),
(1164,1336,l),
(1156,1352,l),
(1116,1366,o),
(1055,1378,o),
(997,1378,cs),
(944,1378,o),
(900,1374,o),
(870,1366,c)
);
}
);
width = 1223.986;
}
);
unicode = 88;
},
{
glyphname = Y;
kernLeft = Y;
kernRight = Y;
lastChange = "2023-06-05 08:33:36 +0000";
layers = (
{
anchors = (
{
name = bottom;
pos = (482,0);
},
{
name = top;
pos = (489,1464);
}
);
layerId = "E2DCCAAC-30DB-413E-982C-2359C46E476F";
shapes = (
{
closed = 1;
nodes = (
(407,0,l),
(426,-4,o),
(455,-6,o),
(482,-6,cs),
(510,-6,o),
(538,-4,o),
(560,0,c),
(560,542,l),
(407,542,l)
);
},
{
closed = 1;
nodes = (
(580,843,ls),
(565,804,o),
(518,681,o),
(497,613,c),
(487,613,l),
(467,679,o),
(433,779,o),
(407,842,cs),
(214,1307,ls),
(195,1355,o),
(172,1380,o),
(130,1380,cs),
(103,1380,o),
(73,1373,o),
(30,1349,c),
(427,403,l),
(542,403,l),
(937,1351,l),
(930,1364,l),
(907,1370,o),
(883,1374,o),
(856,1374,cs),
(835,1374,o),
(809,1372,o),
(788,1366,c)
);
}
);
width = 963;
},
{
anchors = (
{
name = bottom;
pos = (544,0);
},
{
name = top;
pos = (549,1464);
}
);
layerId = "33C6340C-19D4-4BAD-95FA-1AE5BEBDD22C";
shapes = (
{
closed = 1;
nodes = (
(382,0,l),
(433,-9,o),
(505,-11,o),
(544,-11,cs),
(587,-11,o),
(650,-9,o),
(703,0,c),
(703,612,l),
(382,612,l)
);
},
{
closed = 1;
nodes = (
(655,1027,ls),
(619,936,o),
(582,830,o),
(557,729,c),
(545,729,l),
(517,837,o),
(487,932,o),
(454,1016,cs),
(359,1255,ls),
(322,1345,o),
(280,1382,o),
(190,1382,cs),
(122,1382,o),
(50,1359,o),
(-5,1328,c),
(402,382,l),
(687,382,l),
(1090,1337,l),
(1077,1355,l),
(1034,1370,o),
(974,1378,o),
(920,1378,cs),
(878,1378,o),
(834,1376,o),
(790,1366,c)
);
}
);
width = 1084.8;
},
{
anchors = (
{
name = bottom;
pos = (477,0);
},
{
name = top;
pos = (485,1464);
}
);
layerId = "11405D41-D873-4173-B059-BD48D7789B90";
shapes = (
{
closed = 1;
nodes = (
(409,0,l),
(426,-4,o),
(451,-6,o),
(477,-6,cs),
(504,-6,o),
(530,-4,o),
(549,0,c),
(549,537,l),
(409,537,l)
);
},
{
closed = 1;
nodes = (
(575,829,ls),
(561,794,o),
(513,670,o),
(493,604,c),
(483,604,l),
(463,667,o),
(429,767,o),
(403,829,cs),
(203,1311,ls),
(186,1356,o),
(164,1380,o),
(125,1380,cs),
(102,1380,o),
(75,1374,o),
(33,1350,c),
(429,404,l),
(531,404,l),
(925,1352,l),
(919,1364,l),
(898,1370,o),
(876,1374,o),
(851,1374,cs),
(832,1374,o),
(807,1372,o),
(788,1366,c)
);
}
);
width = 953.9;
},
{
anchors = (
{
name = bottom;
pos = (539,0);
},
{
name = top;
pos = (544,1464);
}
);
layerId = "E2DCE989-2657-47EA-91FE-B2106D1F3005";
shapes = (
{
closed = 1;
nodes = (
(385,0,l),
(433,-9,o),
(500,-11,o),
(539,-11,cs),
(580,-11,o),
(640,-9,o),
(690,0,c),
(690,606,l),
(385,606,l)
);
},
{
closed = 1;
nodes = (
(649,1011,ls),
(614,925,o),
(576,817,o),
(552,719,c),
(540,719,l),
(512,823,o),
(482,918,o),
(450,1001,cs),
(346,1260,ls),
(311,1346,o),
(270,1382,o),
(185,1382,cs),
(121,1382,o),
(53,1360,o),
(-2,1329,c),
(405,383,l),
(674,383,l),
(1076,1338,l),
(1064,1356,l),
(1023,1370,o),
(966,1378,o),
(914,1378,cs),
(875,1378,o),
(831,1376,o),
(790,1366,c)
);
}
);
width = 1074.02;
}
);
unicode = 89;
},
{
glyphname = Z;
kernLeft = Z;
kernRight = Z;
lastChange = "2023-06-05 08:33:36 +0000";
layers = (
{
anchors = (
{
name = bottom;
pos = (557,0);
},
{
name = top;
pos = (563,1464);
}
);
layerId = "E2DCCAAC-30DB-413E-982C-2359C46E476F";
shapes = (
{
closed = 1;
nodes = (
(129,180,ls),
(113,153,o),
(106,126,o),
(106,103,cs),
(106,85,o),
(108,66,o),
(129,0,c),
(885,0,ls),
(970,0,o),
(999,35,o),
(999,91,cs),
(999,118,o),
(993,145,o),
(985,170,c),
(932,146,o),
(853,137,o),
(743,137,cs),
(482,137,ls),
(432,137,o),
(357,135,o),
(273,127,c),
(267,133,l),
(319,208,o),
(379,292,o),
(425,363,cs),
(958,1190,ls),
(974,1217,o),
(982,1240,o),
(982,1261,cs),
(982,1279,o),
(978,1301,o),
(959,1366,c),
(168,1366,l),
(159,1339,o),
(155,1312,o),
(155,1284,cs),
(155,1267,o),
(157,1248,o),
(162,1231,c),
(502,1231,ls),
(552,1231,o),
(768,1235,o),
(816,1245,c),
(822,1239,l),
(763,1155,o),
(711,1086,o),
(668,1018,cs)
);
}
);
width = 1105.1;
},
{
anchors = (
{
name = bottom;
pos = (571,0);
},
{
name = top;
pos = (577,1464);
}
);
layerId = "33C6340C-19D4-4BAD-95FA-1AE5BEBDD22C";
shapes = (
{
closed = 1;
nodes = (
(113,310,ls),
(87,275,o),
(75,230,o),
(75,192,cs),
(75,165,o),
(79,141,o),
(110,0,c),
(875,0,ls),
(997,0,o),
(1084,54,o),
(1084,169,cs),
(1084,219,o),
(1075,274,o),
(1063,313,c),
(1009,287,o),
(935,266,o),
(837,266,cs),
(726,266,ls),
(641,266,o),
(512,259,o),
(426,252,c),
(420,258,l),
(472,312,o),
(537,393,o),
(576,446,cs),
(1022,1058,ls),
(1049,1097,o),
(1057,1134,o),
(1057,1170,cs),
(1057,1194,o),
(1055,1216,o),
(1013,1366,c),
(128,1366,l),
(114,1312,o),
(106,1268,o),
(106,1213,cs),
(106,1178,o),
(108,1144,o),
(118,1106,c),
(405,1106,ls),
(486,1106,o),
(620,1111,o),
(713,1123,c),
(719,1117,l),
(669,1063,o),
(597,974,o),
(558,921,cs)
);
}
);
width = 1159.04;
},
{
anchors = (
{
name = bottom;
pos = (556,0);
},
{
name = top;
pos = (562,1464);
}
);
layerId = "11405D41-D873-4173-B059-BD48D7789B90";
shapes = (
{
closed = 1;
nodes = (
(130,170,ls),
(115,144,o),
(108,118,o),
(108,96,cs),
(108,79,o),
(110,61,o),
(130,0,c),
(886,0,ls),
(968,0,o),
(993,34,o),
(993,85,cs),
(993,110,o),
(987,136,o),
(979,159,c),
(926,136,o),
(847,128,o),
(736,128,cs),
(464,128,ls),
(416,128,o),
(345,126,o),
(261,118,c),
(255,124,l),
(307,200,o),
(367,284,o),
(414,357,cs),
(953,1200,ls),
(969,1226,o),
(977,1248,o),
(977,1268,cs),
(977,1285,o),
(972,1307,o),
(955,1366,c),
(171,1366,l),
(163,1341,o),
(159,1315,o),
(159,1289,cs),
(159,1274,o),
(161,1256,o),
(165,1240,c),
(509,1240,ls),
(557,1240,o),
(779,1244,o),
(824,1254,c),
(830,1248,l),
(770,1162,o),
(720,1094,o),
(676,1025,cs)
);
}
);
width = 1101.07;
},
{
anchors = (
{
name = bottom;
pos = (570,0);
},
{
name = top;
pos = (576,1464);
}
);
layerId = "E2DCE989-2657-47EA-91FE-B2106D1F3005";
shapes = (
{
closed = 1;
nodes = (
(114,299,ls),
(90,264,o),
(77,221,o),
(77,184,cs),
(77,158,o),
(81,135,o),
(111,0,c),
(876,0,ls),
(995,0,o),
(1077,53,o),
(1077,162,cs),
(1077,210,o),
(1068,263,o),
(1056,300,c),
(1002,275,o),
(928,255,o),
(828,255,cs),
(705,255,ls),
(622,255,o),
(498,248,o),
(412,241,c),
(406,247,l),
(458,303,o),
(523,384,o),
(563,439,cs),
(1016,1069,ls),
(1043,1108,o),
(1051,1144,o),
(1051,1178,cs),
(1051,1201,o),
(1048,1223,o),
(1008,1366,c),
(132,1366,l),
(118,1315,o),
(111,1272,o),
(111,1219,cs),
(111,1186,o),
(113,1153,o),
(122,1117,c),
(413,1117,ls),
(492,1117,o),
(633,1122,o),
(722,1134,c),
(728,1128,l),
(678,1072,o),
(607,984,o),
(568,929,cs)
);
}
);
width = 1154.266;
}
);
unicode = 90;
},
{
glyphname = a;
kernLeft = a;
kernRight = a;
lastChange = "2023-06-05 08:33:36 +0000";
layers = (
{
anchors = (
{
name = bottom;
pos = (493,0);
},
{
name = ogonek;
pos = (829,-14);
},
{
name = top;
pos = (483,1084);
}
);
layerId = "E2DCCAAC-30DB-413E-982C-2359C46E476F";
shapes = (
{
closed = 1;
nodes = (
(102,124,o),
(196,-24,o),
(391,-24,cs),
(563,-24,o),
(693,108,o),
(762,189,c),
(737,324,l),
(653,175,o),
(517,102,o),
(411,102,cs),
(307,102,o),
(252,180,o),
(252,277,cs),
(252,404,o),
(340,477,o),
(479,477,cs),
(569,477,o),
(668,471,o),
(747,453,c),
(747,559,l),
(662,580,o),
(560,588,o),
(477,588,cs),
(254,588,o),
(102,488,o),
(102,266,cs)
);
},
{
closed = 1;
nodes = (
(847,110,o),
(840,173,o),
(840,257,cs),
(840,669,ls),
(840,885,o),
(738,1001,o),
(530,1001,cs),
(390,1001,o),
(238,952,o),
(138,908,c),
(138,867,o),
(162,815,o),
(189,792,c),
(295,839,o),
(407,875,o),
(515,875,cs),
(626,875,o),
(696,819,o),
(696,671,cs),
(696,207,l),
(697,103,o),
(730,22,o),
(829,-14,c),
(859,1,o),
(886,35,o),
(896,63,c)
);
}
);
width = 1007.1;
},
{
anchors = (
{
name = bottom;
pos = (510,0);
},
{
name = ogonek;
pos = (872,-16);
},
{
name = top;
pos = (500,1084);
}
);
layerId = "33C6340C-19D4-4BAD-95FA-1AE5BEBDD22C";
shapes = (
{
closed = 1;
nodes = (
(60,129,o),
(158,-29,o),
(364,-29,cs),
(544,-29,o),
(648,71,o),
(727,164,c),
(683,362,l),
(626,262,o),
(536,201,o),
(456,201,cs),
(399,201,o),
(364,240,o),
(364,294,cs),
(364,369,o),
(400,421,o),
(489,421,cs),
(542,421,o),
(635,421,o),
(693,408,c),
(693,606,l),
(620,620,o),
(516,621,o),
(456,621,cs),
(250,621,o),
(60,514,o),
(60,273,cs)
);
},
{
closed = 1;
nodes = (
(929,172,o),
(911,216,o),
(911,274,cs),
(911,681,ls),
(911,934,o),
(731,1022,o),
(556,1022,cs),
(427,1022,o),
(233,989,o),
(98,934,c),
(104,857,o),
(129,768,o),
(173,717,c),
(278,748,o),
(382,781,o),
(468,781,cs),
(558,781,o),
(599,737,o),
(599,654,cs),
(599,226,l),
(617,120,o),
(695,-13,o),
(872,-16,c),
(911,15,o),
(956,89,o),
(967,145,c)
);
}
);
width = 1026.24;
},
{
anchors = (
{
name = bottom;
pos = (492,0);
},
{
name = ogonek;
pos = (826,-14);
},
{
name = top;
pos = (482,1084);
}
);
layerId = "11405D41-D873-4173-B059-BD48D7789B90";
shapes = (
{
closed = 1;
nodes = (
(105,124,o),
(199,-24,o),
(393,-24,cs),
(564,-24,o),
(697,111,o),
(765,191,c),
(741,321,l),
(655,169,o),
(516,94,o),
(407,94,cs),
(300,94,o),
(244,175,o),
(244,276,cs),
(244,407,o),
(335,481,o),
(478,481,cs),
(571,481,o),
(671,475,o),
(751,457,c),
(751,555,l),
(665,577,o),
(563,585,o),
(478,585,cs),
(254,585,o),
(105,486,o),
(105,266,cs)
);
},
{
closed = 1;
nodes = (
(841,105,o),
(835,170,o),
(835,256,cs),
(835,668,ls),
(835,881,o),
(738,1000,o),
(528,1000,cs),
(387,1000,o),
(238,949,o),
(141,906,c),
(141,868,o),
(165,819,o),
(190,797,c),
(296,846,o),
(409,882,o),
(519,882,cs),
(631,882,o),
(703,825,o),
(703,672,cs),
(703,206,l),
(703,102,o),
(733,25,o),
(826,-14,c),
(855,0,o),
(881,31,o),
(891,57,c)
);
}
);
width = 1005.67;
},
{
anchors = (
{
name = bottom;
pos = (509,0);
},
{
name = ogonek;
pos = (869,-16);
},
{
name = top;
pos = (499,1084);
}
);
layerId = "E2DCE989-2657-47EA-91FE-B2106D1F3005";
shapes = (
{
closed = 1;
nodes = (
(64,129,o),
(162,-29,o),
(367,-29,cs),
(545,-29,o),
(652,75,o),
(730,167,c),
(688,358,l),
(629,255,o),
(535,192,o),
(452,192,cs),
(390,192,o),
(354,235,o),
(354,293,cs),
(354,372,o),
(395,426,o),
(488,426,cs),
(545,426,o),
(638,426,o),
(698,412,c),
(698,602,l),
(624,616,o),
(520,618,o),
(457,618,cs),
(250,618,o),
(64,512,o),
(64,273,cs)
);
},
{
closed = 1;
nodes = (
(922,167,o),
(905,213,o),
(905,273,cs),
(905,680,ls),
(905,929,o),
(731,1021,o),
(554,1021,cs),
(423,1021,o),
(233,985,o),
(102,932,c),
(107,858,o),
(132,772,o),
(174,723,c),
(279,756,o),
(385,790,o),
(472,790,cs),
(564,790,o),
(607,744,o),
(607,655,cs),
(607,225,l),
(624,119,o),
(698,-10,o),
(869,-16,c),
(906,14,o),
(950,84,o),
(961,138,c)
);
}
);
width = 1024.546;
}
);
unicode = 97;
},
{
glyphname = b;
kernLeft = h;
lastChange = "2023-06-05 08:33:36 +0000";
layers = (
{
anchors = (
{
name = bottom;
pos = (522,0);
},
{
name = top;
pos = (552,1520);
}
);
layerId = "E2DCCAAC-30DB-413E-982C-2359C46E476F";
shapes = (
{
closed = 1;
nodes = (
(322,1369,ls),
(322,1435,o),
(310,1470,o),
(243,1470,cs),
(189,1470,l),
(177,1458,l),
(177,50,l),
(322,50,l)
);
},
{
closed = 1;
nodes = (
(946,793,o),
(830,997,o),
(605,997,cs),
(437,997,o),
(312,880,o),
(262,804,c),
(285,672,l),
(343,779,o),
(462,868,o),
(583,868,cs),
(695,868,o),
(796,762,o),
(796,502,cs),
(796,227,o),
(670,100,o),
(524,100,cs),
(417,100,o),
(340,120,o),
(253,170,c),
(177,50,l),
(290,8,o),
(406,-14,o),
(525,-14,cs),
(737,-14,o),
(946,139,o),
(946,503,cs)
);
}
);
width = 1047.3;
},
{
anchors = (
{
name = bottom;
pos = (522,0);
},
{
name = top;
pos = (564,1520);
}
);
layerId = "33C6340C-19D4-4BAD-95FA-1AE5BEBDD22C";
shapes = (
{
closed = 1;
nodes = (
(425,1284,ls),
(425,1423,o),
(374,1472,o),
(251,1472,cs),
(133,1472,l),
(119,1458,l),
(119,50,l),
(425,50,l)
);
},
{
closed = 1;
nodes = (
(1010,805,o),
(892,1018,o),
(655,1018,cs),
(515,1018,o),
(416,957,o),
(335,877,c),
(379,641,l),
(428,732,o),
(504,769,o),
(562,767,cs),
(648,765,o),
(690,689,o),
(690,507,cs),
(690,321,o),
(639,206,o),
(517,206,cs),
(425,206,o),
(342,232,o),
(267,280,c),
(119,50,l),
(226,8,o),
(366,-18,o),
(511,-18,cs),
(817,-18,o),
(1012,188,o),
(1010,513,cs)
);
}
);
width = 1069.92;
},
{
anchors = (
{
name = bottom;
pos = (522,0);
},
{
name = top;
pos = (551,1520);
}
);
layerId = "11405D41-D873-4173-B059-BD48D7789B90";
shapes = (
{
closed = 1;
nodes = (
(314,1375,ls),
(314,1436,o),
(305,1470,o),
(242,1470,cs),
(193,1470,l),
(181,1458,l),
(181,50,l),
(314,50,l)
);
},
{
closed = 1;
nodes = (
(941,792,o),
(825,996,o),
(601,996,cs),
(431,996,o),
(304,874,o),
(257,799,c),
(278,674,l),
(337,783,o),
(459,876,o),
(584,876,cs),
(699,876,o),
(804,767,o),
(804,502,cs),
(804,220,o),
(672,92,o),
(524,92,cs),
(416,92,o),
(340,112,o),
(252,162,c),
(181,50,l),
(295,8,o),
(409,-14,o),
(526,-14,cs),
(731,-14,o),
(941,135,o),
(941,502,cs)
);
}
);
width = 1045.61;
},
{
anchors = (
{
name = bottom;
pos = (522,0);
},
{
name = top;
pos = (563,1520);
}
);
layerId = "E2DCE989-2657-47EA-91FE-B2106D1F3005";
shapes = (
{
closed = 1;
nodes = (
(416,1291,ls),
(416,1424,o),
(368,1472,o),
(250,1472,cs),
(138,1472,l),
(124,1458,l),
(124,50,l),
(416,50,l)
);
},
{
closed = 1;
nodes = (
(1004,804,o),
(887,1017,o),
(650,1017,cs),
(508,1017,o),
(407,950,o),
(329,871,c),
(370,643,l),
(421,736,o),
(500,778,o),
(563,776,cs),
(652,774,o),
(700,695,o),
(700,507,cs),
(700,312,o),
(641,196,o),
(517,196,cs),
(424,196,o),
(342,222,o),
(266,270,c),
(124,50,l),
(232,8,o),
(370,-18,o),
(512,-18,cs),
(810,-18,o),
(1006,183,o),
(1004,512,cs)
);
}
);
width = 1067.918;
}
);
unicode = 98;
},
{
glyphname = c;
kernLeft = c;
kernRight = c;
lastChange = "2023-06-05 08:33:36 +0000";
layers = (
{
anchors = (
{
name = bottom;
pos = (494,0);
},
{
name = top;
pos = (502,1084);
}
);
layerId = "E2DCCAAC-30DB-413E-982C-2359C46E476F";
shapes = (
{
closed = 1;
nodes = (
(734,629,o),
(753,627,o),
(774,627,cs),
(840,627,o),
(853,670,o),
(853,721,cs),
(853,826,o),
(760,1005,o),
(506,1005,cs),
(299,1005,o),
(104,844,o),
(104,483,cs),
(104,231,o),
(208,-24,o),
(494,-24,cs),
(635,-24,o),
(749,34,o),
(841,120,c),
(833,156,o),
(799,196,o),
(770,215,c),
(697,159,o),
(613,104,o),
(514,104,cs),
(355,104,o),
(259,227,o),
(259,483,cs),
(259,748,o),
(357,887,o),
(502,887,cs),
(670,887,o),
(718,750,o),
(711,634,c)
);
}
);
width = 938.6;
},
{
anchors = (
{
name = bottom;
pos = (501,0);
},
{
name = top;
pos = (504,1084);
}
);
layerId = "33C6340C-19D4-4BAD-95FA-1AE5BEBDD22C";
shapes = (
{
closed = 1;
nodes = (
(657,547,o),
(692,544,o),
(745,544,cs),
(833,544,o),
(898,591,o),
(898,696,cs),
(898,894,o),
(733,1028,o),
(508,1028,cs),
(289,1028,o),
(60,884,o),
(60,497,cs),
(60,177,o),
(213,-29,o),
(501,-29,cs),
(649,-29,o),
(801,30,o),
(890,124,c),
(876,185,o),
(822,269,o),
(772,298,c),
(709,253,o),
(630,214,o),
(552,214,cs),
(438,214,o),
(379,285,o),
(379,497,cs),
(379,706,o),
(409,796,o),
(502,796,cs),
(606,796,o),
(619,710,o),
(619,555,c)
);
}
);
width = 949.04;
},
{
anchors = (
{
name = bottom;
pos = (494,0);
},
{
name = top;
pos = (502,1084);
}
);
layerId = "11405D41-D873-4173-B059-BD48D7789B90";
shapes = (
{
closed = 1;
nodes = (
(740,635,o),
(757,633,o),
(776,633,cs),
(840,633,o),
(849,676,o),
(849,723,cs),
(849,821,o),
(762,1003,o),
(506,1003,cs),
(300,1003,o),
(107,841,o),
(107,482,cs),
(107,235,o),
(208,-24,o),
(494,-24,cs),
(634,-24,o),
(745,34,o),
(837,120,c),
(830,154,o),
(797,191,o),
(770,209,c),
(696,152,o),
(612,96,o),
(511,96,cs),
(349,96,o),
(250,223,o),
(250,482,cs),
(250,751,o),
(353,894,o),
(502,894,cs),
(675,894,o),
(726,753,o),
(718,640,c)
);
}
);
width = 937.82;
},
{
anchors = (
{
name = bottom;
pos = (501,0);
},
{
name = top;
pos = (504,1084);
}
);
layerId = "E2DCE989-2657-47EA-91FE-B2106D1F3005";
shapes = (
{
closed = 1;
nodes = (
(664,554,o),
(697,551,o),
(747,551,cs),
(833,551,o),
(894,599,o),
(894,699,cs),
(894,888,o),
(735,1025,o),
(508,1025,cs),
(290,1025,o),
(64,880,o),
(64,496,cs),
(64,182,o),
(213,-29,o),
(501,-29,cs),
(648,-29,o),
(796,30,o),
(885,124,c),
(873,183,o),
(819,263,o),
(772,291,c),
(708,244,o),
(629,204,o),
(548,204,cs),
(431,204,o),
(368,280,o),
(368,496,cs),
(368,710,o),
(404,804,o),
(502,804,cs),
(612,804,o),
(628,714,o),
(628,563,c)
);
}
);
width = 948.116;
}
);
unicode = 99;
},
{
glyphname = d;
kernLeft = d;
lastChange = "2023-06-05 08:33:36 +0000";
layers = (
{
anchors = (
{
name = bottom;
pos = (538,0);
},
{
name = top;
pos = (486,1520);
},
{
name = topright;
pos = (871,981);
}
);
layerId = "E2DCCAAC-30DB-413E-982C-2359C46E476F";
shapes = (
{
closed = 1;
nodes = (
(871,1369,ls),
(871,1435,o),
(859,1470,o),
(792,1470,cs),
(738,1470,l),
(726,1458,l),
(726,229,ls),
(726,122,o),
(753,24,o),
(859,-14,c),
(890,1,o),
(917,35,o),
(927,63,c),
(878,109,o),
(871,192,o),
(871,277,cs)
);
},
{
closed = 1;
nodes = (
(102,180,o),
(218,-24,o),
(437,-24,cs),
(620,-24,o),
(755,106,o),
(804,226,c),
(777,366,l),
(727,203,o),
(587,105,o),
(466,105,cs),
(355,105,o),
(252,211,o),
(252,478,cs),
(252,755,o),
(369,869,o),
(490,869,cs),
(609,869,o),
(713,793,o),
(790,734,c),
(798,866,l),
(702,940,o),
(596,997,o),
(475,997,cs),
(301,997,o),
(102,843,o),
(102,479,cs)
);
}
);
width = 1049.6;
},
{
anchors = (
{
name = bottom;
pos = (565,0);
},
{
name = top;
pos = (509,1520);
},
{
name = topright;
pos = (954,998);
}
);
layerId = "33C6340C-19D4-4BAD-95FA-1AE5BEBDD22C";
shapes = (
{
closed = 1;
nodes = (
(954,1284,ls),
(954,1423,o),
(908,1472,o),
(785,1472,cs),
(663,1472,l),
(649,1458,l),
(649,285,ls),
(649,118,o),
(739,-13,o),
(915,-16,c),
(954,15,o),
(999,89,o),
(1010,145,c),
(977,169,o),
(954,225,o),
(954,289,cs)
);
},
{
closed = 1;
nodes = (
(64,184,o),
(180,-29,o),
(423,-29,cs),
(620,-29,o),
(780,135,o),
(799,297,c),
(728,474,l),
(675,263,o),
(568,221,o),
(504,221,cs),
(435,221,o),
(384,300,o),
(384,485,cs),
(384,670,o),
(423,786,o),
(519,786,cs),
(584,786,o),
(668,733,o),
(746,670,c),
(796,892,l),
(707,945,o),
(603,1018,o),
(465,1018,cs),
(245,1018,o),
(64,831,o),
(64,487,cs)
);
}
);
width = 1077.44;
},
{
anchors = (
{
name = bottom;
pos = (536,0);
},
{
name = top;
pos = (484,1520);
},
{
name = topright;
pos = (865,980);
}
);
layerId = "11405D41-D873-4173-B059-BD48D7789B90";
shapes = (
{
closed = 1;
nodes = (
(865,1375,ls),
(865,1436,o),
(855,1470,o),
(792,1470,cs),
(743,1470,l),
(732,1458,l),
(732,225,ls),
(732,122,o),
(754,27,o),
(855,-14,c),
(885,0,o),
(911,31,o),
(921,57,c),
(870,105,o),
(865,189,o),
(865,276,cs)
);
},
{
closed = 1;
nodes = (
(105,180,o),
(221,-24,o),
(438,-24,cs),
(620,-24,o),
(753,104,o),
(804,221,c),
(781,358,l),
(731,199,o),
(588,96,o),
(463,96,cs),
(349,96,o),
(242,204,o),
(242,478,cs),
(242,761,o),
(365,875,o),
(488,875,cs),
(611,875,o),
(717,797,o),
(793,739,c),
(798,864,l),
(702,940,o),
(596,996,o),
(476,996,cs),
(305,996,o),
(105,844,o),
(105,478,cs)
);
}
);
width = 1047.52;
},
{
anchors = (
{
name = bottom;
pos = (563,0);
},
{
name = top;
pos = (506,1520);
},
{
name = topright;
pos = (947,997);
}
);
layerId = "E2DCE989-2657-47EA-91FE-B2106D1F3005";
shapes = (
{
closed = 1;
nodes = (
(947,1291,ls),
(947,1424,o),
(903,1472,o),
(785,1472,cs),
(669,1472,l),
(656,1458,l),
(656,280,ls),
(656,118,o),
(740,-9,o),
(910,-16,c),
(948,14,o),
(992,84,o),
(1003,138,c),
(968,164,o),
(947,222,o),
(947,288,cs)
);
},
{
closed = 1;
nodes = (
(68,184,o),
(184,-29,o),
(424,-29,cs),
(620,-29,o),
(777,133,o),
(799,291,c),
(733,464,l),
(680,258,o),
(569,211,o),
(500,211,cs),
(428,211,o),
(373,292,o),
(373,485,cs),
(373,677,o),
(418,793,o),
(517,793,cs),
(587,793,o),
(672,738,o),
(750,676,c),
(796,890,l),
(707,945,o),
(603,1017,o),
(466,1017,cs),
(250,1017,o),
(68,832,o),
(68,486,cs)
);
}
);
width = 1074.976;
}
);
unicode = 100;
},
{
glyphname = e;
kernLeft = c;
kernRight = e;
lastChange = "2023-06-05 08:33:36 +0000";
layers = (
{
anchors = (
{
name = bottom;
pos = (516,0);
},
{
name = ogonek;
pos = (670,0);
},
{
name = top;
pos = (510,1084);
}
);
layerId = "E2DCCAAC-30DB-413E-982C-2359C46E476F";
shapes = (
{
closed = 1;
nodes = (
(881,445,l),
(888,494,o),
(890,527,o),
(890,578,cs),
(890,814,o),
(761,1005,o),
(504,1005,cs),
(249,1005,o),
(104,788,o),
(104,492,cs),
(104,219,o),
(199,-24,o),
(498,-24,cs),
(635,-24,o),
(770,23,o),
(862,88,c),
(858,120,o),
(836,165,o),
(808,191,c),
(721,141,o),
(625,106,o),
(518,106,cs),
(322,106,o),
(261,262,o),
(261,479,cs),
(261,526,ls),
(261,745,o),
(346,891,o),
(504,891,cs),
(674,891,o),
(740,753,o),
(740,587,cs),
(740,559,l),
(194,559,l),
(194,445,l)
);
}
);
width = 1005.3;
},
{
anchors = (
{
name = bottom;
pos = (519,0);
},
{
name = ogonek;
pos = (717,0);
},
{
name = top;
pos = (510,1084);
}
);
layerId = "33C6340C-19D4-4BAD-95FA-1AE5BEBDD22C";
shapes = (
{
closed = 1;
nodes = (
(898,398,l),
(917,465,o),
(925,515,o),
(925,604,cs),
(925,845,o),
(771,1028,o),
(508,1028,cs),
(189,1028,o),
(60,793,o),
(60,492,cs),
(60,227,o),
(154,-29,o),
(505,-29,cs),
(647,-29,o),
(797,11,o),
(899,84,c),
(889,146,o),
(862,223,o),
(815,269,c),
(735,235,o),
(646,209,o),
(556,209,cs),
(395,209,o),
(374,330,o),
(374,467,cs),
(374,561,ls),
(374,728,o),
(408,806,o),
(506,806,cs),
(601,806,o),
(637,728,o),
(637,636,cs),
(637,613,l),
(260,613,l),
(260,398,l)
);
}
);
width = 993.12;
},
{
anchors = (
{
name = bottom;
pos = (516,0);
},
{
name = ogonek;
pos = (666,0);
},
{
name = top;
pos = (510,1084);
}
);
layerId = "11405D41-D873-4173-B059-BD48D7789B90";
shapes = (
{
closed = 1;
nodes = (
(880,449,l),
(886,496,o),
(887,528,o),
(887,576,cs),
(887,812,o),
(760,1003,o),
(504,1003,cs),
(253,1003,o),
(107,788,o),
(107,492,cs),
(107,218,o),
(203,-24,o),
(498,-24,cs),
(634,-24,o),
(768,24,o),
(859,88,c),
(856,118,o),
(834,161,o),
(808,185,c),
(720,134,o),
(624,98,o),
(515,98,cs),
(317,98,o),
(252,257,o),
(252,480,cs),
(252,523,ls),
(252,746,o),
(341,897,o),
(504,897,cs),
(679,897,o),
(748,755,o),
(748,583,cs),
(748,555,l),
(189,555,l),
(189,449,l)
);
}
);
width = 1006.21;
},
{
anchors = (
{
name = bottom;
pos = (519,0);
},
{
name = ogonek;
pos = (713,0);
},
{
name = top;
pos = (510,1084);
}
);
layerId = "E2DCE989-2657-47EA-91FE-B2106D1F3005";
shapes = (
{
closed = 1;
nodes = (
(897,402,l),
(915,467,o),
(922,516,o),
(922,602,cs),
(922,843,o),
(770,1025,o),
(508,1025,cs),
(194,1025,o),
(64,793,o),
(64,492,cs),
(64,226,o),
(158,-29,o),
(505,-29,cs),
(646,-29,o),
(795,12,o),
(895,84,c),
(887,144,o),
(860,218,o),
(815,262,c),
(734,226,o),
(645,200,o),
(552,200,cs),
(389,200,o),
(364,324,o),
(364,468,cs),
(364,558,ls),
(364,729,o),
(403,813,o),
(506,813,cs),
(607,813,o),
(646,731,o),
(646,631,cs),
(646,608,l),
(254,608,l),
(254,402,l)
);
}
);
width = 994.198;
}
);
unicode = 101;
},
{
glyphname = f;
kernLeft = f;
kernRight = f;
lastChange = "2023-06-05 08:33:36 +0000";
layers = (
{
anchors = (
{
name = top;
pos = (442,1530);
}
);
layerId = "E2DCCAAC-30DB-413E-982C-2359C46E476F";
shapes = (
{
closed = 1;
nodes = (
(44,983,l),
(40,962,o),
(37,947,o),
(37,926,cs),
(37,905,o),
(40,888,o),
(44,869,c),
(286,873,l),
(644,869,l),
(649,888,o),
(651,905,o),
(651,926,cs),
(651,947,o),
(649,962,o),
(644,983,c),
(285,979,l)
);
},
{
closed = 1;
nodes = (
(216,0,l),
(237,-4,o),
(265,-6,o),
(288,-6,cs),
(312,-6,o),
(339,-4,o),
(361,0,c),
(361,911,l),
(347,1010,o),
(335,1098,o),
(335,1180,cs),
(335,1298,o),
(394,1365,o),
(491,1365,cs),
(549,1365,o),
(615,1351,o),
(674,1333,c),
(697,1358,o),
(710,1399,o),
(710,1435,c),
(653,1458,o),
(554,1478,o),
(483,1478,cs),
(294,1478,o),
(195,1351,o),
(195,1187,cs),
(195,1110,o),
(208,1015,o),
(216,915,c)
);
}
);
width = 640.8;
},
{
anchors = (
{
name = top;
pos = (468,1521);
}
);
layerId = "33C6340C-19D4-4BAD-95FA-1AE5BEBDD22C";
shapes = (
{
closed = 1;
nodes = (
(4,1000,l),
(-4,966,o),
(-8,926,o),
(-8,891,cs),
(-8,856,o),
(-4,813,o),
(4,778,c),
(324,784,l),
(721,778,l),
(729,813,o),
(733,856,o),
(733,891,cs),
(733,926,o),
(729,966,o),
(721,1000,c),
(328,996,l)
);
},
{
closed = 1;
nodes = (
(176,0,l),
(223,-8,o),
(277,-11,o),
(326,-11,cs),
(378,-11,o),
(433,-8,o),
(481,0,c),
(481,866,l),
(471,940,o),
(449,1034,o),
(449,1109,cs),
(449,1199,o),
(498,1245,o),
(583,1245,cs),
(638,1245,o),
(698,1229,o),
(738,1219,c),
(779,1261,o),
(807,1354,o),
(805,1425,c),
(736,1451,o),
(624,1480,o),
(499,1480,cs),
(290,1480,o),
(150,1330,o),
(150,1131,cs),
(150,1040,o),
(168,955,o),
(176,868,c)
);
}
);
width = 724.32;
},
{
anchors = (
{
name = top;
pos = (440,1530);
}
);
layerId = "11405D41-D873-4173-B059-BD48D7789B90";
shapes = (
{
closed = 1;
nodes = (
(47,982,l),
(43,962,o),
(41,948,o),
(41,929,cs),
(41,909,o),
(43,893,o),
(47,876,c),
(283,880,l),
(638,876,l),
(643,893,o),
(645,909,o),
(645,929,cs),
(645,948,o),
(643,962,o),
(638,982,c),
(282,978,l)
);
},
{
closed = 1;
nodes = (
(219,0,l),
(238,-4,o),
(264,-6,o),
(285,-6,cs),
(307,-6,o),
(332,-4,o),
(352,0,c),
(352,915,l),
(338,1015,o),
(326,1103,o),
(326,1185,cs),
(326,1306,o),
(386,1374,o),
(484,1374,cs),
(542,1374,o),
(609,1360,o),
(669,1342,c),
(691,1365,o),
(703,1403,o),
(703,1436,c),
(647,1458,o),
(549,1478,o),
(482,1478,cs),
(294,1478,o),
(199,1352,o),
(199,1191,cs),
(199,1115,o),
(211,1019,o),
(219,919,c)
);
}
);
width = 634.56;
},
{
anchors = (
{
name = top;
pos = (465,1522);
}
);
layerId = "E2DCE989-2657-47EA-91FE-B2106D1F3005";
shapes = (
{
closed = 1;
nodes = (
(8,999,l),
(0,966,o),
(-4,927,o),
(-4,894,cs),
(-4,861,o),
(0,819,o),
(8,786,c),
(320,792,l),
(714,786,l),
(722,819,o),
(726,861,o),
(726,894,cs),
(726,927,o),
(722,966,o),
(714,999,c),
(325,995,l)
);
},
{
closed = 1;
nodes = (
(180,0,l),
(224,-8,o),
(276,-11,o),
(322,-11,cs),
(372,-11,o),
(424,-8,o),
(470,0,c),
(470,870,l),
(460,946,o),
(439,1040,o),
(439,1115,cs),
(439,1208,o),
(489,1256,o),
(574,1256,cs),
(630,1256,o),
(691,1240,o),
(732,1229,c),
(772,1269,o),
(799,1358,o),
(797,1426,c),
(729,1451,o),
(618,1480,o),
(498,1480,cs),
(290,1480,o),
(154,1331,o),
(154,1136,cs),
(154,1046,o),
(172,960,o),
(180,872,c)
);
}
);
width = 716.928;
}
);
unicode = 102;
},
{
glyphname = g;
kernLeft = d;
lastChange = "2023-06-05 08:33:36 +0000";
layers = (
{
anchors = (
{
name = bottom;
pos = (511,-418);
},
{
name = top;
pos = (525,1084);
}
);
layerId = "E2DCCAAC-30DB-413E-982C-2359C46E476F";
shapes = (
{
closed = 1;
nodes = (
(919,946,o),
(892,980,o),
(861,995,c),
(755,957,o),
(731,859,o),
(731,752,c),
(731,0,ls),
(731,-170,o),
(696,-320,o),
(461,-320,cs),
(388,-320,o),
(270,-296,o),
(188,-256,c),
(164,-283,o),
(147,-332,o),
(146,-372,c),
(231,-408,o),
(354,-440,o),
(476,-440,cs),
(621,-440,o),
(727,-383,o),
(782,-315,cs),
(846,-237,o),
(873,-126,o),
(873,76,cs),
(873,704,ls),
(873,789,o),
(880,872,o),
(929,918,c)
);
},
{
closed = 1;
nodes = (
(102,185,o),
(218,-16,o),
(443,-16,cs),
(611,-16,o),
(738,106,o),
(787,184,c),
(763,311,l),
(706,203,o),
(586,113,o),
(464,113,cs),
(349,113,o),
(252,221,o),
(252,488,cs),
(252,763,o),
(365,877,o),
(494,877,cs),
(609,877,o),
(728,801,o),
(794,712,c),
(810,845,l),
(734,927,o),
(637,1005,o),
(474,1005,cs),
(301,1005,o),
(102,850,o),
(102,489,cs)
);
}
);
width = 1047.4;
},
{
anchors = (
{
name = bottom;
pos = (527,-418);
},
{
name = top;
pos = (551,1084);
}
);
layerId = "33C6340C-19D4-4BAD-95FA-1AE5BEBDD22C";
shapes = (
{
closed = 1;
nodes = (
(1004,909,o),
(956,984,o),
(917,1014,c),
(741,1011,o),
(651,880,o),
(651,714,c),
(651,-7,ls),
(651,-130,o),
(595,-210,o),
(449,-210,cs),
(361,-210,o),
(265,-188,o),
(179,-150,c),
(135,-201,o),
(102,-303,o),
(102,-376,c),
(206,-415,o),
(352,-442,o),
(478,-442,cs),
(638,-442,o),
(774,-397,o),
(853,-296,cs),
(916,-216,o),
(956,-99,o),
(956,182,cs),
(956,709,ls),
(956,773,o),
(979,830,o),
(1012,854,c)
);
},
{
closed = 1;
nodes = (
(64,193,o),
(180,-20,o),
(424,-20,cs),
(564,-20,o),
(694,64,o),
(760,177,c),
(716,394,l),
(664,286,o),
(582,231,o),
(502,231,cs),
(434,231,o),
(384,310,o),
(384,495,cs),
(384,681,o),
(423,795,o),
(520,795,cs),
(592,795,o),
(688,718,o),
(765,573,c),
(815,828,l),
(765,915,o),
(660,1028,o),
(465,1028,cs),
(247,1028,o),
(64,841,o),
(64,497,cs)
);
}
);
width = 1071.76;
},
{
anchors = (
{
name = bottom;
pos = (510,-418);
},
{
name = top;
pos = (523,1084);
}
);
layerId = "11405D41-D873-4173-B059-BD48D7789B90";
shapes = (
{
closed = 1;
nodes = (
(913,949,o),
(887,980,o),
(857,994,c),
(756,953,o),
(737,858,o),
(737,755,c),
(737,0,ls),
(737,-173,o),
(704,-328,o),
(462,-328,cs),
(390,-328,o),
(270,-304,o),
(188,-264,c),
(166,-289,o),
(151,-334,o),
(149,-372,c),
(233,-408,o),
(354,-440,o),
(476,-440,cs),
(620,-440,o),
(723,-382,o),
(777,-316,cs),
(841,-238,o),
(867,-128,o),
(867,68,cs),
(867,704,ls),
(867,790,o),
(872,875,o),
(923,923,c)
);
},
{
closed = 1;
nodes = (
(105,184,o),
(221,-16,o),
(444,-16,cs),
(615,-16,o),
(741,109,o),
(789,184,c),
(767,305,l),
(709,197,o),
(586,104,o),
(461,104,cs),
(343,104,o),
(242,214,o),
(242,488,cs),
(242,769,o),
(361,883,o),
(492,883,cs),
(610,883,o),
(731,807,o),
(796,722,c),
(810,846,l),
(732,928,o),
(635,1003,o),
(474,1003,cs),
(305,1003,o),
(105,850,o),
(105,488,cs)
);
}
);
width = 1045.58;
},
{
anchors = (
{
name = bottom;
pos = (526,-418);
},
{
name = top;
pos = (548,1084);
}
);
layerId = "E2DCE989-2657-47EA-91FE-B2106D1F3005";
shapes = (
{
closed = 1;
nodes = (
(997,913,o),
(950,984,o),
(912,1013,c),
(742,1006,o),
(658,879,o),
(658,718,c),
(658,-7,ls),
(658,-134,o),
(604,-220,o),
(450,-220,cs),
(363,-220,o),
(265,-198,o),
(180,-160,c),
(137,-208,o),
(106,-305,o),
(106,-376,c),
(209,-415,o),
(352,-442,o),
(478,-442,cs),
(637,-442,o),
(770,-396,o),
(847,-297,cs),
(910,-217,o),
(949,-101,o),
(949,172,cs),
(949,709,ls),
(949,774,o),
(970,834,o),
(1005,860,c)
);
},
{
closed = 1;
nodes = (
(68,192,o),
(184,-20,o),
(425,-20,cs),
(568,-20,o),
(698,68,o),
(763,177,c),
(720,387,l),
(668,279,o),
(582,221,o),
(498,221,cs),
(427,221,o),
(373,302,o),
(373,495,cs),
(373,688,o),
(418,802,o),
(518,802,cs),
(593,802,o),
(692,725,o),
(767,585,c),
(815,829,l),
(763,916,o),
(657,1025,o),
(466,1025,cs),
(252,1025,o),
(68,842,o),
(68,496,cs)
);
}
);
width = 1069.604;
}
);
unicode = 103;
},
{
glyphname = h;
kernLeft = h;
kernRight = h;
lastChange = "2023-06-05 08:33:36 +0000";
layers = (
{
anchors = (
{
name = bottom;
pos = (553,0);
},
{
name = top;
pos = (550,1520);
}
);
layerId = "E2DCCAAC-30DB-413E-982C-2359C46E476F";
shapes = (
{
closed = 1;
nodes = (
(322,1369,ls),
(322,1435,o),
(310,1470,o),
(243,1470,cs),
(189,1470,l),
(177,1458,l),
(177,0,l),
(196,-4,o),
(220,-6,o),
(249,-6,cs),
(277,-6,o),
(303,-4,o),
(322,0,c)
);
},
{
closed = 1;
nodes = (
(923,685,ls),
(923,855,o),
(855,997,o),
(666,997,cs),
(520,997,o),
(368,919,o),
(282,810,c),
(282,653,l),
(348,769,o),
(506,863,o),
(629,863,cs),
(744,863,o),
(775,796,o),
(775,638,cs),
(775,85,ls),
(775,20,o),
(797,-12,o),
(853,-12,cs),
(887,-12,o),
(925,1,o),
(946,20,c),
(927,64,o),
(923,125,o),
(923,190,cs)
);
}
);
width = 1087.9;
},
{
anchors = (
{
name = bottom;
pos = (563,0);
},
{
name = top;
pos = (545,1520);
}
);
layerId = "33C6340C-19D4-4BAD-95FA-1AE5BEBDD22C";
shapes = (
{
closed = 1;
nodes = (
(425,1284,ls),
(425,1423,o),
(378,1472,o),
(255,1472,cs),
(133,1472,l),
(119,1458,l),
(119,0,l),
(167,-8,o),
(220,-11,o),
(270,-11,cs),
(326,-11,o),
(381,-8,o),
(425,0,c)
);
},
{
closed = 1;
nodes = (
(972,660,ls),
(972,869,o),
(874,1016,o),
(692,1016,cs),
(549,1016,o),
(443,929,o),
(350,837,c),
(350,564,l),
(410,689,o),
(511,736,o),
(573,736,cs),
(640,736,o),
(659,693,o),
(659,603,cs),
(659,177,ls),
(659,53,o),
(701,-16,o),
(826,-16,cs),
(904,-16,o),
(975,13,o),
(1021,51,c),
(985,102,o),
(972,172,o),
(972,250,cs)
);
}
);
width = 1086.16;
},
{
anchors = (
{
name = bottom;
pos = (552,0);
},
{
name = top;
pos = (550,1520);
}
);
layerId = "11405D41-D873-4173-B059-BD48D7789B90";
shapes = (
{
closed = 1;
nodes = (
(314,1375,ls),
(314,1436,o),
(305,1470,o),
(242,1470,cs),
(193,1470,l),
(181,1458,l),
(181,0,l),
(198,-4,o),
(220,-6,o),
(248,-6,cs),
(273,-6,o),
(297,-4,o),
(314,0,c)
);
},
{
closed = 1;
nodes = (
(919,687,ls),
(919,854,o),
(854,996,o),
(664,996,cs),
(518,996,o),
(363,918,o),
(277,808,c),
(277,660,l),
(343,775,o),
(506,872,o),
(633,872,cs),
(752,872,o),
(784,804,o),
(784,641,cs),
(784,78,ls),
(784,17,o),
(804,-12,o),
(855,-12,cs),
(886,-12,o),
(921,0,o),
(941,18,c),
(923,61,o),
(919,121,o),
(919,185,cs)
);
}
);
width = 1088.03;
},
{
anchors = (
{
name = bottom;
pos = (562,0);
},
{
name = top;
pos = (545,1520);
}
);
layerId = "E2DCE989-2657-47EA-91FE-B2106D1F3005";
shapes = (
{
closed = 1;
nodes = (
(416,1291,ls),
(416,1424,o),
(372,1472,o),
(254,1472,cs),
(138,1472,l),
(124,1458,l),
(124,0,l),
(169,-8,o),
(220,-11,o),
(269,-11,cs),
(321,-11,o),
(374,-8,o),
(416,0,c)
);
},
{
closed = 1;
nodes = (
(967,663,ls),
(967,868,o),
(873,1015,o),
(690,1015,cs),
(547,1015,o),
(437,928,o),
(344,835,c),
(344,572,l),
(405,696,o),
(511,747,o),
(578,747,cs),
(649,747,o),
(669,702,o),
(669,606,cs),
(669,168,ls),
(669,50,o),
(710,-16,o),
(829,-16,cs),
(903,-16,o),
(970,12,o),
(1015,49,c),
(980,98,o),
(967,168,o),
(967,245,cs)
);
}
);
width = 1086.314;
}
);
unicode = 104;
},
{
glyphname = k;
kernLeft = h;
kernRight = k;
lastChange = "2023-06-05 08:33:36 +0000";
layers = (
{
anchors = (
{
name = bottom;
pos = (532,0);
},
{
name = top;
pos = (532,1084);
}
);
layerId = "E2DCCAAC-30DB-413E-982C-2359C46E476F";
shapes = (
{
closed = 1;
nodes = (
(322,1369,ls),
(322,1435,o),
(310,1470,o),
(243,1470,cs),
(189,1470,l),
(177,1458,l),
(177,0,l),
(196,-4,o),
(220,-6,o),
(249,-6,cs),
(277,-6,o),
(303,-4,o),
(322,0,c)
);
},
{
closed = 1;
nodes = (
(761,358,ls),
(700,494,o),
(633,549,o),
(489,549,cs),
(247,549,l),
(247,435,l),
(314,441,ls),
(362,445,o),
(402,447,o),
(429,447,cs),
(542,447,o),
(580,414,o),
(630,300,cs),
(723,92,ls),
(751,28,o),
(772,-12,o),
(837,-12,cs),
(876,-12,o),
(918,9,o),
(936,33,c),
(901,57,o),
(870,112,o),
(840,182,cs)
);
},
{
closed = 1;
nodes = (
(866,969,l),
(854,985,l),
(827,987,o),
(809,987,o),
(781,987,cs),
(719,987,o),
(698,960,o),
(667,915,cs),
(453,597,ls),
(441,581,o),
(427,571,o),
(409,571,cs),
(259,563,l),
(259,495,l),
(421,495,ls),
(503,495,o),
(562,521,o),
(612,597,cs)
);
}
);
width = 979.8;
},
{
anchors = (
{
name = bottom;
pos = (565,0);
},
{
name = top;
pos = (565,1084);
}
);
layerId = "33C6340C-19D4-4BAD-95FA-1AE5BEBDD22C";
shapes = (
{
closed = 1;
nodes = (
(425,1284,ls),
(425,1423,o),
(378,1472,o),
(255,1472,cs),
(133,1472,l),
(119,1458,l),
(119,0,l),
(165,-8,o),
(218,-11,o),
(270,-11,cs),
(324,-11,o),
(381,-8,o),
(425,0,c)
);
},
{
closed = 1;
nodes = (
(886,398,ls),
(839,536,o),
(725,594,o),
(580,594,cs),
(266,594,l),
(266,379,l),
(347,389,ls),
(391,395,o),
(429,400,o),
(487,400,cs),
(542,400,o),
(575,381,o),
(603,296,cs),
(662,123,ls),
(695,23,o),
(732,-16,o),
(821,-16,cs),
(902,-16,o),
(982,26,o),
(1031,82,c),
(990,111,o),
(968,149,o),
(935,252,cs)
);
},
{
closed = 1;
nodes = (
(978,986,l),
(966,1002,l),
(909,1004,o),
(858,1006,o),
(791,1006,cs),
(707,1006,o),
(654,967,o),
(617,892,cs),
(513,691,ls),
(497,663,o),
(485,656,o),
(456,656,cs),
(304,654,l),
(304,511,l),
(477,511,ls),
(650,511,o),
(763,570,o),
(824,688,cs)
);
}
);
width = 1045.92;
},
{
anchors = (
{
name = bottom;
pos = (529,0);
},
{
name = top;
pos = (529,1084);
}
);
layerId = "11405D41-D873-4173-B059-BD48D7789B90";
shapes = (
{
closed = 1;
nodes = (
(314,1375,ls),
(314,1436,o),
(305,1470,o),
(242,1470,cs),
(193,1470,l),
(181,1458,l),
(181,0,l),
(198,-4,o),
(220,-6,o),
(248,-6,cs),
(273,-6,o),
(297,-4,o),
(314,0,c)
);
},
{
closed = 1;
nodes = (
(752,355,ls),
(690,491,o),
(626,545,o),
(482,545,cs),
(246,545,l),
(246,439,l),
(311,445,ls),
(360,449,o),
(400,451,o),
(425,451,cs),
(542,451,o),
(580,417,o),
(632,300,cs),
(727,90,ls),
(755,28,o),
(775,-12,o),
(838,-12,cs),
(874,-12,o),
(913,8,o),
(929,29,c),
(894,53,o),
(862,109,o),
(833,177,cs)
);
},
{
closed = 1;
nodes = (
(858,968,l),
(846,984,l),
(821,986,o),
(805,986,o),
(780,986,cs),
(720,986,o),
(701,960,o),
(671,917,cs),
(449,590,ls),
(437,575,o),
(423,565,o),
(405,565,cs),
(255,556,l),
(255,494,l),
(417,494,ls),
(492,494,o),
(547,517,o),
(596,590,cs)
);
}
);
width = 974.86;
},
{
anchors = (
{
name = bottom;
pos = (562,0);
},
{
name = top;
pos = (562,1084);
}
);
layerId = "E2DCE989-2657-47EA-91FE-B2106D1F3005";
shapes = (
{
closed = 1;
nodes = (
(416,1291,ls),
(416,1424,o),
(372,1472,o),
(254,1472,cs),
(138,1472,l),
(124,1458,l),
(124,0,l),
(167,-8,o),
(218,-11,o),
(269,-11,cs),
(320,-11,o),
(374,-8,o),
(416,0,c)
);
},
{
closed = 1;
nodes = (
(875,394,ls),
(827,532,o),
(716,590,o),
(572,590,cs),
(265,590,l),
(265,384,l),
(344,394,ls),
(389,400,o),
(427,404,o),
(482,404,cs),
(542,404,o),
(575,384,o),
(605,296,cs),
(667,121,ls),
(700,23,o),
(736,-16,o),
(822,-16,cs),
(900,-16,o),
(976,25,o),
(1023,77,c),
(982,106,o),
(959,145,o),
(927,246,cs)
);
},
{
closed = 1;
nodes = (
(968,985,l),
(956,1001,l),
(902,1003,o),
(853,1005,o),
(790,1005,cs),
(708,1005,o),
(658,967,o),
(622,895,cs),
(508,682,ls),
(492,656,o),
(480,649,o),
(452,649,cs),
(300,646,l),
(300,510,l),
(472,510,ls),
(637,510,o),
(746,565,o),
(805,680,cs)
);
}
);
width = 1040.068;
}
);
unicode = 107;
},
{
glyphname = l;
kernLeft = l;
kernRight = l;
lastChange = "2023-06-05 08:33:36 +0000";
layers = (
{
anchors = (
{
name = bottom;
pos = (330,0);
},
{
name = periodcentered;
pos = (566,786);
},
{
name = top;
pos = (239,1563);
},
{
name = topright;
pos = (318,981);
}
);
layerId = "E2DCCAAC-30DB-413E-982C-2359C46E476F";
shapes = (
{
closed = 1;
nodes = (
(393,115,l),
(344,115,o),
(318,143,o),
(318,199,cs),
(318,1369,ls),
(318,1435,o),
(306,1470,o),
(239,1470,cs),
(185,1470,l),
(173,1458,l),
(173,158,ls),
(173,50,o),
(241,-8,o),
(341,-8,cs),
(383,-8,o),
(448,-2,o),
(487,4,c),
(490,13,o),
(490,24,o),
(490,35,cs),
(490,64,o),
(485,93,o),
(477,115,c)
);
}
);
width = 565.5;
},
{
anchors = (
{
name = bottom;
pos = (357,0);
},
{
name = periodcentered;
pos = (626,786);
},
{
name = top;
pos = (262,1544);
},
{
name = topright;
pos = (422,998);
}
);
layerId = "33C6340C-19D4-4BAD-95FA-1AE5BEBDD22C";
shapes = (
{
closed = 1;
nodes = (
(509,228,l),
(447,228,o),
(422,261,o),
(422,323,cs),
(422,1284,ls),
(422,1423,o),
(376,1472,o),
(253,1472,cs),
(131,1472,l),
(117,1458,l),
(117,268,ls),
(117,77,o),
(185,-10,o),
(366,-10,cs),
(443,-10,o),
(521,0,o),
(581,9,c),
(587,30,o),
(589,57,o),
(589,80,cs),
(589,130,o),
(579,184,o),
(564,228,c)
);
}
);
width = 626.4;
},
{
anchors = (
{
name = bottom;
pos = (328,0);
},
{
name = periodcentered;
pos = (561,786);
},
{
name = top;
pos = (237,1564);
},
{
name = topright;
pos = (310,980);
}
);
layerId = "11405D41-D873-4173-B059-BD48D7789B90";
shapes = (
{
closed = 1;
nodes = (
(384,106,l),
(336,106,o),
(310,134,o),
(310,190,cs),
(310,1375,ls),
(310,1436,o),
(301,1470,o),
(238,1470,cs),
(189,1470,l),
(177,1458,l),
(177,150,ls),
(177,48,o),
(245,-8,o),
(339,-8,cs),
(379,-8,o),
(443,-2,o),
(480,4,c),
(483,12,o),
(482,21,o),
(482,31,cs),
(482,59,o),
(478,86,o),
(471,106,c)
);
}
);
width = 560.95;
},
{
anchors = (
{
name = bottom;
pos = (355,0);
},
{
name = periodcentered;
pos = (621,786);
},
{
name = top;
pos = (259,1545);
},
{
name = topright;
pos = (413,997);
}
);
layerId = "E2DCE989-2657-47EA-91FE-B2106D1F3005";
shapes = (
{
closed = 1;
nodes = (
(499,218,l),
(438,218,o),
(413,251,o),
(413,312,cs),
(413,1291,ls),
(413,1424,o),
(370,1472,o),
(252,1472,cs),
(136,1472,l),
(122,1458,l),
(122,258,ls),
(122,75,o),
(190,-10,o),
(363,-10,cs),
(438,-10,o),
(515,0,o),
(572,9,c),
(579,29,o),
(580,54,o),
(580,76,cs),
(580,124,o),
(570,176,o),
(557,218,c)
);
}
);
width = 621.01;
}
);
unicode = 108;
},
{
glyphname = m;
kernLeft = m;
kernRight = h;
lastChange = "2023-06-05 08:33:36 +0000";
layers = (
{
anchors = (
{
name = bottom;
pos = (797,0);
},
{
name = top;
pos = (790,1084);
}
);
layerId = "E2DCCAAC-30DB-413E-982C-2359C46E476F";
shapes = (
{
closed = 1;
nodes = (
(189,987,l),
(177,973,l),
(177,0,l),
(196,-4,o),
(222,-6,o),
(251,-6,cs),
(279,-6,o),
(305,-4,o),
(324,0,c),
(324,884,ls),
(324,951,o),
(311,987,o),
(244,987,cs)
);
},
{
closed = 1;
nodes = (
(722,0,l),
(742,-4,o),
(768,-6,o),
(797,-6,cs),
(824,-6,o),
(850,-4,o),
(870,0,c),
(870,691,ls),
(870,859,o),
(792,999,o),
(618,999,cs),
(489,999,o),
(354,917,o),
(271,785,c),
(271,621,l),
(336,768,o),
(480,865,o),
(587,865,cs),
(686,865,o),
(722,799,o),
(722,640,cs)
);
},
{
closed = 1;
nodes = (
(1269,85,ls),
(1269,20,o),
(1291,-12,o),
(1347,-12,cs),
(1381,-12,o),
(1419,1,o),
(1440,20,c),
(1421,64,o),
(1417,125,o),
(1417,190,cs),
(1417,690,ls),
(1417,859,o),
(1340,999,o),
(1166,999,cs),
(1037,999,o),
(916,925,o),
(813,817,c),
(813,620,l),
(889,777,o),
(1029,865,o),
(1134,865,cs),
(1233,865,o),
(1269,801,o),
(1269,642,c)
);
}
);
width = 1582;
},
{
anchors = (
{
name = bottom;
pos = (811,0);
},
{
name = top;
pos = (794,1084);
}
);
layerId = "33C6340C-19D4-4BAD-95FA-1AE5BEBDD22C";
shapes = (
{
closed = 1;
nodes = (
(133,1012,l),
(119,998,l),
(119,0,l),
(165,-8,o),
(224,-11,o),
(276,-11,cs),
(329,-11,o),
(388,-8,o),
(432,0,c),
(432,785,ls),
(432,924,o),
(369,1012,o),
(249,1012,cs)
);
},
{
closed = 1;
nodes = (
(654,0,l),
(700,-8,o),
(759,-11,o),
(811,-11,cs),
(864,-11,o),
(923,-8,o),
(967,0,c),
(967,701,ls),
(967,884,o),
(867,1016,o),
(693,1016,cs),
(549,1016,o),
(425,903,o),
(331,797,c),
(331,527,l),
(365,620,o),
(478,734,o),
(564,736,cs),
(607,736,o),
(654,708,o),
(654,602,c)
);
},
{
closed = 1;
nodes = (
(1189,177,ls),
(1189,53,o),
(1231,-16,o),
(1357,-16,cs),
(1435,-16,o),
(1506,13,o),
(1552,51,c),
(1515,102,o),
(1502,172,o),
(1502,250,cs),
(1502,697,ls),
(1502,880,o),
(1411,1016,o),
(1236,1016,cs),
(1095,1016,o),
(947,913,o),
(858,805,c),
(858,516,l),
(905,619,o),
(1017,736,o),
(1096,736,cs),
(1139,736,o),
(1189,710,o),
(1189,604,c)
);
}
);
width = 1616.8;
},
{
anchors = (
{
name = bottom;
pos = (796,0);
},
{
name = top;
pos = (790,1084);
}
);
layerId = "11405D41-D873-4173-B059-BD48D7789B90";
shapes = (
{
closed = 1;
nodes = (
(193,985,l),
(181,971,l),
(181,0,l),
(198,-4,o),
(222,-6,o),
(249,-6,cs),
(275,-6,o),
(299,-4,o),
(316,0,c),
(316,892,ls),
(316,953,o),
(307,985,o),
(244,985,cs)
);
},
{
closed = 1;
nodes = (
(727,0,l),
(745,-4,o),
(768,-6,o),
(796,-6,cs),
(821,-6,o),
(845,-4,o),
(863,0,c),
(863,690,ls),
(863,857,o),
(787,998,o),
(613,998,cs),
(485,998,o),
(349,918,o),
(267,784,c),
(267,628,l),
(334,779,o),
(480,875,o),
(589,874,cs),
(692,874,o),
(727,806,o),
(727,643,cs)
);
},
{
closed = 1;
nodes = (
(1275,78,ls),
(1275,17,o),
(1295,-12,o),
(1346,-12,cs),
(1377,-12,o),
(1413,0,o),
(1432,18,c),
(1414,61,o),
(1411,121,o),
(1411,185,cs),
(1411,690,ls),
(1411,858,o),
(1335,998,o),
(1161,998,cs),
(1033,998,o),
(914,926,o),
(809,818,c),
(809,628,l),
(888,789,o),
(1030,874,o),
(1137,874,cs),
(1240,874,o),
(1275,808,o),
(1275,645,c)
);
}
);
width = 1579.4;
},
{
anchors = (
{
name = bottom;
pos = (810,0);
},
{
name = top;
pos = (794,1084);
}
);
layerId = "E2DCE989-2657-47EA-91FE-B2106D1F3005";
shapes = (
{
closed = 1;
nodes = (
(138,1009,l),
(124,995,l),
(124,0,l),
(167,-8,o),
(224,-11,o),
(273,-11,cs),
(324,-11,o),
(381,-8,o),
(422,0,c),
(422,794,ls),
(422,927,o),
(364,1009,o),
(249,1009,cs)
);
},
{
closed = 1;
nodes = (
(660,0,l),
(704,-8,o),
(760,-11,o),
(810,-11,cs),
(860,-11,o),
(917,-8,o),
(959,0,c),
(959,700,ls),
(959,881,o),
(861,1015,o),
(687,1015,cs),
(544,1015,o),
(419,904,o),
(326,796,c),
(326,536,l),
(363,633,o),
(478,746,o),
(567,747,cs),
(615,747,o),
(660,716,o),
(660,606,cs)
);
},
{
closed = 1;
nodes = (
(1196,168,ls),
(1196,50,o),
(1236,-16,o),
(1356,-16,cs),
(1430,-16,o),
(1499,12,o),
(1542,49,c),
(1506,98,o),
(1495,168,o),
(1495,245,cs),
(1495,697,ls),
(1495,879,o),
(1405,1015,o),
(1230,1015,cs),
(1090,1015,o),
(945,914,o),
(854,806,c),
(854,525,l),
(904,633,o),
(1018,747,o),
(1100,747,cs),
(1148,747,o),
(1196,718,o),
(1196,608,c)
);
}
);
width = 1613.72;
}
);
unicode = 109;
},
{
glyphname = n;
kernLeft = m;
kernRight = h;
lastChange = "2023-06-05 08:33:36 +0000";
layers = (
{
anchors = (
{
name = bottom;
pos = (553,0);
},
{
name = top;
pos = (554,1084);
}
);
layerId = "E2DCCAAC-30DB-413E-982C-2359C46E476F";
shapes = (
{
closed = 1;
nodes = (
(189,987,l),
(177,975,l),
(177,0,l),
(196,-4,o),
(222,-6,o),
(251,-6,cs),
(279,-6,o),
(305,-4,o),
(324,0,c),
(324,884,ls),
(324,951,o),
(311,987,o),
(244,987,cs)
);
},
{
closed = 1;
nodes = (
(925,687,ls),
(925,857,o),
(857,999,o),
(668,999,cs),
(522,999,o),
(371,921,o),
(284,812,c),
(284,655,l),
(350,771,o),
(509,865,o),
(631,865,cs),
(746,865,o),
(778,798,o),
(778,640,cs),
(778,85,ls),
(778,20,o),
(799,-12,o),
(855,-12,cs),
(889,-12,o),
(927,1,o),
(949,20,c),
(930,64,o),
(925,125,o),
(925,190,cs)
);
}
);
width = 1090.2;
},
{
anchors = (
{
name = bottom;
pos = (563,0);
},
{
name = top;
pos = (561,1084);
}
);
layerId = "33C6340C-19D4-4BAD-95FA-1AE5BEBDD22C";
shapes = (
{
closed = 1;
nodes = (
(133,1012,l),
(119,998,l),
(119,0,l),
(165,-8,o),
(224,-11,o),
(276,-11,cs),
(329,-11,o),
(388,-8,o),
(432,0,c),
(432,785,ls),
(432,924,o),
(371,1012,o),
(251,1012,cs)
);
},
{
closed = 1;
nodes = (
(979,660,l),
(979,869,o),
(882,1016,o),
(699,1016,cs),
(557,1016,o),
(451,929,o),
(357,838,c),
(357,564,l),
(418,689,o),
(519,736,o),
(581,736,cs),
(647,736,o),
(666,694,o),
(666,603,cs),
(666,177,ls),
(666,53,o),
(708,-16,o),
(834,-16,cs),
(912,-16,o),
(983,13,o),
(1029,51,c),
(992,102,o),
(979,172,o),
(979,250,cs)
);
}
);
width = 1093.68;
},
{
anchors = (
{
name = bottom;
pos = (552,0);
},
{
name = top;
pos = (554,1084);
}
);
layerId = "11405D41-D873-4173-B059-BD48D7789B90";
shapes = (
{
closed = 1;
nodes = (
(193,985,l),
(181,973,l),
(181,0,l),
(198,-4,o),
(222,-6,o),
(249,-6,cs),
(275,-6,o),
(299,-4,o),
(316,0,c),
(316,892,ls),
(316,953,o),
(307,985,o),
(244,985,cs)
);
},
{
closed = 1;
nodes = (
(921,689,ls),
(921,856,o),
(855,998,o),
(666,998,cs),
(519,998,o),
(365,920,o),
(279,810,c),
(279,662,l),
(345,777,o),
(508,874,o),
(635,874,cs),
(754,874,o),
(786,806,o),
(786,643,cs),
(786,78,ls),
(786,17,o),
(806,-12,o),
(856,-12,cs),
(887,-12,o),
(923,0,o),
(943,18,c),
(925,61,o),
(921,121,o),
(921,185,cs)
);
}
);
width = 1089.94;
},
{
anchors = (
{
name = bottom;
pos = (562,0);
},
{
name = top;
pos = (561,1084);
}
);
layerId = "E2DCE989-2657-47EA-91FE-B2106D1F3005";
shapes = (
{
closed = 1;
nodes = (
(138,1009,l),
(124,995,l),
(124,0,l),
(167,-8,o),
(224,-11,o),
(273,-11,cs),
(324,-11,o),
(381,-8,o),
(422,0,c),
(422,794,ls),
(422,927,o),
(366,1009,o),
(251,1009,cs)
);
},
{
closed = 1;
nodes = (
(974,663,ls),
(974,868,o),
(879,1015,o),
(697,1015,cs),
(554,1015,o),
(444,928,o),
(351,836,c),
(351,572,l),
(412,696,o),
(518,747,o),
(586,747,cs),
(656,747,o),
(676,703,o),
(676,607,cs),
(676,168,ls),
(676,50,o),
(716,-16,o),
(835,-16,cs),
(909,-16,o),
(978,12,o),
(1022,49,c),
(987,98,o),
(974,168,o),
(974,245,cs)
);
}
);
width = 1093.372;
}
);
unicode = 110;
},
{
glyphname = o;
kernLeft = c;
kernRight = o;
lastChange = "2023-06-05 08:33:36 +0000";
layers = (
{
anchors = (
{
name = bottom;
pos = (518,0);
},
{
name = ogonek;
pos = (664,0);
},
{
name = top;
pos = (518,1084);
},
{
name = topright;
pos = (778,961);
}
);
layerId = "E2DCCAAC-30DB-413E-982C-2359C46E476F";
shapes = (
{
closed = 1;
nodes = (
(935,786,o),
(795,1005,o),
(518,1005,cs),
(246,1005,o),
(104,787,o),
(104,491,cs),
(104,196,o),
(243,-24,o),
(518,-24,cs),
(793,-24,o),
(935,192,o),
(935,491,cs)
);
},
{
closed = 1;
nodes = (
(257,687,o),
(321,891,o),
(520,891,cs),
(718,891,o),
(781,687,o),
(781,491,cs),
(781,292,o),
(718,92,o),
(520,92,cs),
(321,92,o),
(257,292,o),
(257,491,cs)
);
}
);
width = 1038.3;
},
{
anchors = (
{
name = bottom;
pos = (522,0);
},
{
name = ogonek;
pos = (701,0);
},
{
name = top;
pos = (522,1084);
},
{
name = topright;
pos = (862,969);
}
);
layerId = "33C6340C-19D4-4BAD-95FA-1AE5BEBDD22C";
shapes = (
{
closed = 1;
nodes = (
(984,818,o),
(826,1028,o),
(522,1028,cs),
(220,1028,o),
(60,820,o),
(60,499,cs),
(60,180,o),
(217,-29,o),
(522,-29,cs),
(823,-29,o),
(984,178,o),
(984,499,cs)
);
},
{
closed = 1;
nodes = (
(381,664,o),
(399,795,o),
(522,795,cs),
(645,795,o),
(663,664,o),
(663,499,cs),
(663,334,o),
(645,204,o),
(522,204,cs),
(399,204,o),
(381,334,o),
(381,499,cs)
);
}
);
width = 1043.52;
},
{
anchors = (
{
name = bottom;
pos = (518,0);
},
{
name = ogonek;
pos = (661,0);
},
{
name = top;
pos = (518,1084);
},
{
name = topright;
pos = (772,960);
}
);
layerId = "11405D41-D873-4173-B059-BD48D7789B90";
shapes = (
{
closed = 1;
nodes = (
(931,784,o),
(793,1003,o),
(518,1003,cs),
(248,1003,o),
(107,784,o),
(107,490,cs),
(107,197,o),
(245,-24,o),
(518,-24,cs),
(791,-24,o),
(931,193,o),
(931,490,cs)
);
},
{
closed = 1;
nodes = (
(248,689,o),
(315,898,o),
(520,898,cs),
(723,898,o),
(790,689,o),
(790,490,cs),
(790,289,o),
(723,84,o),
(520,84,cs),
(315,84,o),
(248,289,o),
(248,490,cs)
);
}
);
width = 1037.91;
},
{
anchors = (
{
name = bottom;
pos = (522,0);
},
{
name = ogonek;
pos = (697,0);
},
{
name = top;
pos = (522,1084);
},
{
name = topright;
pos = (855,968);
}
);
layerId = "E2DCE989-2657-47EA-91FE-B2106D1F3005";
shapes = (
{
closed = 1;
nodes = (
(979,816,o),
(824,1025,o),
(522,1025,cs),
(223,1025,o),
(64,817,o),
(64,498,cs),
(64,181,o),
(220,-29,o),
(522,-29,cs),
(821,-29,o),
(979,179,o),
(979,498,cs)
);
},
{
closed = 1;
nodes = (
(370,667,o),
(392,804,o),
(522,804,cs),
(651,804,o),
(673,667,o),
(673,498,cs),
(673,330,o),
(651,194,o),
(522,194,cs),
(392,194,o),
(370,330,o),
(370,498,cs)
);
}
);
width = 1043.058;
}
);
unicode = 111;
},
{
glyphname = p;
kernLeft = m;
kernRight = p;
lastChange = "2023-06-05 08:33:36 +0000";
layers = (
{
anchors = (
{
name = top;
pos = (524,1084);
}
);
layerId = "E2DCCAAC-30DB-413E-982C-2359C46E476F";
shapes = (
{
closed = 1;
nodes = (
(189,987,l),
(177,975,l),
(177,-418,l),
(189,-430,l),
(243,-430,ls),
(310,-430,o),
(322,-395,o),
(322,-329,cs),
(322,882,ls),
(322,950,o),
(308,987,o),
(241,987,cs)
);
},
{
closed = 1;
nodes = (
(950,801,o),
(834,1005,o),
(614,1005,cs),
(431,1005,o),
(296,875,o),
(248,755,c),
(274,615,l),
(324,778,o),
(465,876,o),
(585,876,cs),
(697,876,o),
(800,770,o),
(800,503,cs),
(800,226,o),
(682,112,o),
(562,112,cs),
(443,112,o),
(338,188,o),
(262,247,c),
(254,116,l),
(349,41,o),
(455,-16,o),
(576,-16,cs),
(751,-16,o),
(950,138,o),
(950,503,cs)
);
}
);
width = 1051.4;
},
{
anchors = (
{
name = top;
pos = (524,1084);
}
);
layerId = "33C6340C-19D4-4BAD-95FA-1AE5BEBDD22C";
shapes = (
{
closed = 1;
nodes = (
(133,1012,l),
(119,998,l),
(119,-418,l),
(133,-432,l),
(255,-432,ls),
(378,-432,o),
(426,-383,o),
(426,-244,cs),
(426,748,ls),
(426,912,o),
(343,1012,o),
(216,1012,cs)
);
},
{
closed = 1;
nodes = (
(1012,815,o),
(896,1028,o),
(652,1028,cs),
(456,1028,o),
(296,863,o),
(277,701,c),
(347,524,l),
(401,736,o),
(508,777,o),
(571,777,cs),
(641,777,o),
(692,699,o),
(692,513,cs),
(692,329,o),
(653,213,o),
(557,213,cs),
(492,213,o),
(408,265,o),
(330,329,c),
(280,107,l),
(368,53,o),
(472,-20,o),
(611,-20,cs),
(831,-20,o),
(1012,167,o),
(1012,511,cs)
);
}
);
width = 1075.76;
},
{
anchors = (
{
name = top;
pos = (524,1084);
}
);
layerId = "11405D41-D873-4173-B059-BD48D7789B90";
shapes = (
{
closed = 1;
nodes = (
(193,985,l),
(181,973,l),
(181,-418,l),
(193,-430,l),
(242,-430,ls),
(305,-430,o),
(314,-396,o),
(314,-335,cs),
(314,892,ls),
(314,953,o),
(305,985,o),
(243,985,cs)
);
},
{
closed = 1;
nodes = (
(945,800,o),
(829,1003,o),
(611,1003,cs),
(429,1003,o),
(296,876,o),
(246,759,c),
(269,622,l),
(318,781,o),
(462,884,o),
(586,884,cs),
(701,884,o),
(808,775,o),
(808,502,cs),
(808,218,o),
(684,104,o),
(562,104,cs),
(439,104,o),
(333,182,o),
(257,241,c),
(252,116,l),
(348,40,o),
(454,-16,o),
(573,-16,cs),
(745,-16,o),
(945,136,o),
(945,502,cs)
);
}
);
width = 1049.58;
},
{
anchors = (
{
name = top;
pos = (524,1084);
}
);
layerId = "E2DCE989-2657-47EA-91FE-B2106D1F3005";
shapes = (
{
closed = 1;
nodes = (
(138,1009,l),
(124,995,l),
(124,-418,l),
(138,-432,l),
(254,-432,ls),
(372,-432,o),
(417,-384,o),
(417,-251,cs),
(417,760,ls),
(417,916,o),
(340,1009,o),
(219,1009,cs)
);
},
{
closed = 1;
nodes = (
(1007,814,o),
(891,1025,o),
(648,1025,cs),
(453,1025,o),
(296,864,o),
(275,706,c),
(341,532,l),
(394,740,o),
(505,786,o),
(572,786,cs),
(646,786,o),
(702,705,o),
(702,512,cs),
(702,320,o),
(655,204,o),
(557,204,cs),
(487,204,o),
(402,258,o),
(324,322,c),
(278,108,l),
(367,52,o),
(471,-20,o),
(608,-20,cs),
(824,-20,o),
(1007,165,o),
(1007,510,cs)
);
}
);
width = 1073.604;
}
);
unicode = 112;
},
{
glyphname = q;
kernLeft = d;
lastChange = "2023-06-05 08:33:36 +0000";
layers = (
{
layerId = "E2DCCAAC-30DB-413E-982C-2359C46E476F";
shapes = (
{
closed = 1;
nodes = (
(102,185,o),
(218,-16,o),
(443,-16,cs),
(611,-16,o),
(738,102,o),
(787,180,c),
(763,311,l),
(706,203,o),
(586,113,o),
(464,113,cs),
(353,113,o),
(252,221,o),
(252,488,cs),
(252,763,o),
(369,877,o),
(494,877,cs),
(609,877,o),
(728,801,o),
(794,712,c),
(810,849,l),
(734,931,o),
(637,1005,o),
(474,1005,cs),
(301,1005,o),
(102,850,o),
(102,489,cs)
);
},
{
closed = 1;
nodes = (
(728,-329,ls),
(728,-395,o),
(740,-430,o),
(807,-430,cs),
(861,-430,l),
(873,-418,l),
(873,704,ls),
(873,789,o),
(880,872,o),
(929,918,c),
(919,946,o),
(892,980,o),
(861,995,c),
(755,957,o),
(728,859,o),
(728,752,cs)
);
}
);
width = 1047.7;
},
{
layerId = "33C6340C-19D4-4BAD-95FA-1AE5BEBDD22C";
shapes = (
{
closed = 1;
nodes = (
(64,193,o),
(180,-20,o),
(424,-20,cs),
(564,-20,o),
(694,64,o),
(760,176,c),
(716,394,l),
(664,286,o),
(582,231,o),
(502,231,cs),
(435,231,o),
(384,310,o),
(384,495,cs),
(384,681,o),
(423,795,o),
(520,795,cs),
(592,795,o),
(688,718,o),
(765,573,c),
(815,828,l),
(765,915,o),
(660,1028,o),
(465,1028,cs),
(247,1028,o),
(64,841,o),
(64,497,cs)
);
},
{
closed = 1;
nodes = (
(649,-244,ls),
(649,-383,o),
(696,-432,o),
(819,-432,cs),
(941,-432,l),
(955,-418,l),
(955,709,ls),
(955,773,o),
(977,830,o),
(1011,854,c),
(999,909,o),
(954,984,o),
(915,1014,c),
(739,1011,o),
(649,880,o),
(649,714,cs)
);
}
);
width = 1077.28;
},
{
layerId = "11405D41-D873-4173-B059-BD48D7789B90";
shapes = (
{
closed = 1;
nodes = (
(105,184,o),
(221,-16,o),
(444,-16,cs),
(615,-16,o),
(741,105,o),
(789,180,c),
(767,305,l),
(709,197,o),
(586,104,o),
(461,104,cs),
(347,104,o),
(242,214,o),
(242,488,cs),
(242,769,o),
(365,883,o),
(492,883,cs),
(610,883,o),
(731,807,o),
(796,722,c),
(810,850,l),
(732,932,o),
(635,1003,o),
(474,1003,cs),
(305,1003,o),
(105,850,o),
(105,488,cs)
);
},
{
closed = 1;
nodes = (
(734,-335,ls),
(734,-396,o),
(743,-430,o),
(806,-430,cs),
(855,-430,l),
(867,-418,l),
(867,704,ls),
(867,790,o),
(873,875,o),
(923,923,c),
(913,949,o),
(887,980,o),
(857,994,c),
(756,953,o),
(734,858,o),
(734,755,cs)
);
}
);
width = 1045.49;
},
{
layerId = "E2DCE989-2657-47EA-91FE-B2106D1F3005";
shapes = (
{
closed = 1;
nodes = (
(68,192,o),
(184,-20,o),
(425,-20,cs),
(568,-20,o),
(698,68,o),
(763,176,c),
(720,387,l),
(668,279,o),
(582,221,o),
(498,221,cs),
(428,221,o),
(373,302,o),
(373,495,cs),
(373,688,o),
(418,802,o),
(518,802,cs),
(593,802,o),
(692,725,o),
(767,585,c),
(815,829,l),
(763,916,o),
(657,1025,o),
(466,1025,cs),
(252,1025,o),
(68,842,o),
(68,496,cs)
);
},
{
closed = 1;
nodes = (
(657,-251,ls),
(657,-384,o),
(700,-432,o),
(818,-432,cs),
(934,-432,l),
(948,-418,l),
(948,709,ls),
(948,774,o),
(969,834,o),
(1004,860,c),
(992,913,o),
(949,984,o),
(910,1013,c),
(740,1006,o),
(657,879,o),
(657,718,cs)
);
}
);
width = 1074.662;
}
);
unicode = 113;
},
{
glyphname = r;
kernLeft = r;
kernRight = r;
lastChange = "2023-06-05 08:33:36 +0000";
layers = (
{
anchors = (
{
name = bottom;
pos = (269,0);
},
{
name = top;
pos = (395,1084);
}
);
layerId = "E2DCCAAC-30DB-413E-982C-2359C46E476F";
shapes = (
{
closed = 1;
nodes = (
(652,993,o),
(620,995,o),
(598,995,cs),
(373,995,o),
(285,778,o),
(284,607,c),
(311,574,l),
(336,674,o),
(408,849,o),
(586,849,c),
(608,849,o),
(633,848,o),
(655,846,c),
(681,885,o),
(690,941,o),
(690,987,c)
);
},
{
closed = 1;
nodes = (
(158,877,o),
(195,808,o),
(195,708,cs),
(195,0,l),
(214,-4,o),
(240,-6,o),
(269,-6,cs),
(297,-6,o),
(323,-4,o),
(342,0,c),
(342,723,l),
(337,859,o),
(291,958,o),
(186,995,c),
(158,978,o),
(131,940,o),
(122,913,c)
);
}
);
width = 705.1;
},
{
anchors = (
{
name = bottom;
pos = (292,0);
},
{
name = top;
pos = (418,1084);
}
);
layerId = "33C6340C-19D4-4BAD-95FA-1AE5BEBDD22C";
shapes = (
{
closed = 1;
nodes = (
(753,1005,o),
(721,1012,o),
(660,1012,cs),
(425,1012,o),
(368,771,o),
(354,551,c),
(389,504,l),
(446,645,o),
(505,724,o),
(612,724,c),
(646,720,o),
(680,716,o),
(715,703,c),
(766,791,o),
(793,922,o),
(793,995,c)
);
},
{
closed = 1;
nodes = (
(92,830,o),
(135,764,o),
(135,646,cs),
(135,0,l),
(181,-8,o),
(240,-11,o),
(292,-11,cs),
(346,-11,o),
(405,-8,o),
(448,0,c),
(448,669,l),
(429,869,o),
(340,1000,o),
(155,1014,c),
(116,983,o),
(71,909,o),
(60,853,c)
);
}
);
width = 793.84;
},
{
anchors = (
{
name = bottom;
pos = (267,0);
},
{
name = top;
pos = (393,1084);
}
);
layerId = "11405D41-D873-4173-B059-BD48D7789B90";
shapes = (
{
closed = 1;
nodes = (
(644,992,o),
(612,994,o),
(593,994,cs),
(369,994,o),
(279,778,o),
(279,611,c),
(305,579,l),
(328,676,o),
(401,858,o),
(584,858,c),
(605,858,o),
(629,858,o),
(651,857,c),
(675,892,o),
(682,942,o),
(682,986,c)
);
},
{
closed = 1;
nodes = (
(163,881,o),
(199,811,o),
(199,713,cs),
(199,0,l),
(217,-4,o),
(240,-6,o),
(267,-6,cs),
(293,-6,o),
(317,-4,o),
(334,0,c),
(334,727,l),
(330,858,o),
(287,955,o),
(188,994,c),
(161,978,o),
(135,942,o),
(127,917,c)
);
}
);
width = 698.47;
},
{
anchors = (
{
name = bottom;
pos = (289,0);
},
{
name = top;
pos = (415,1084);
}
);
layerId = "E2DCE989-2657-47EA-91FE-B2106D1F3005";
shapes = (
{
closed = 1;
nodes = (
(744,1004,o),
(712,1011,o),
(655,1011,cs),
(420,1011,o),
(361,771,o),
(348,556,c),
(382,510,l),
(436,647,o),
(497,735,o),
(610,735,c),
(642,731,o),
(676,727,o),
(710,716,c),
(759,800,o),
(784,923,o),
(784,994,c)
);
},
{
closed = 1;
nodes = (
(98,834,o),
(140,768,o),
(140,651,cs),
(140,0,l),
(184,-8,o),
(240,-11,o),
(289,-11,cs),
(341,-11,o),
(398,-8,o),
(438,0,c),
(438,674,l),
(420,868,o),
(335,996,o),
(157,1013,c),
(120,983,o),
(76,911,o),
(65,858,c)
);
}
);
width = 785.986;
}
);
unicode = 114;
},
{
glyphname = s;
kernLeft = s;
kernRight = s;
lastChange = "2023-06-05 08:33:36 +0000";
layers = (
{
anchors = (
{
name = bottom;
pos = (427,0);
},
{
name = top;
pos = (432,1084);
}
);
layerId = "E2DCCAAC-30DB-413E-982C-2359C46E476F";
shapes = (
{
closed = 1;
nodes = (
(157,24,o),
(272,-24,o),
(412,-24,cs),
(627,-24,o),
(782,81,o),
(782,258,cs),
(782,404,o),
(683,493,o),
(534,548,cs),
(411,594,ls),
(312,631,o),
(262,672,o),
(262,740,cs),
(262,829,o),
(335,885,o),
(440,885,cs),
(542,885,o),
(638,853,o),
(701,824,c),
(730,853,o),
(748,900,o),
(747,940,c),
(667,977,o),
(543,1005,o),
(444,1005,cs),
(261,1005,o),
(109,902,o),
(109,730,cs),
(109,583,o),
(228,503,o),
(364,453,cs),
(483,409,ls),
(575,375,o),
(628,314,o),
(628,247,cs),
(626,156,o),
(542,92,o),
(415,92,cs),
(314,92,o),
(214,138,o),
(132,184,c),
(103,160,o),
(76,111,o),
(74,76,c)
);
}
);
width = 869;
},
{
anchors = (
{
name = bottom;
pos = (445,0);
},
{
name = top;
pos = (445,1084);
}
);
layerId = "33C6340C-19D4-4BAD-95FA-1AE5BEBDD22C";
shapes = (
{
closed = 1;
nodes = (
(133,15,o),
(267,-29,o),
(410,-29,cs),
(681,-29,o),
(842,97,o),
(842,296,cs),
(842,466,o),
(728,564,o),
(576,618,cs),
(452,662,ls),
(398,681,o),
(376,703,o),
(376,738,cs),
(376,773,o),
(404,802,o),
(458,802,cs),
(553,802,o),
(654,764,o),
(737,727,c),
(787,764,o),
(827,871,o),
(823,944,c),
(736,987,o),
(581,1028,o),
(455,1028,cs),
(220,1028,o),
(68,900,o),
(68,697,cs),
(68,536,o),
(177,449,o),
(318,397,cs),
(429,357,ls),
(493,334,o),
(520,305,o),
(520,266,cs),
(520,226,o),
(480,196,o),
(403,196,cs),
(309,196,o),
(214,233,o),
(127,279,c),
(80,231,o),
(41,136,o),
(39,69,c)
);
}
);
width = 886.4;
},
{
anchors = (
{
name = bottom;
pos = (426,0);
},
{
name = top;
pos = (431,1084);
}
);
layerId = "11405D41-D873-4173-B059-BD48D7789B90";
shapes = (
{
closed = 1;
nodes = (
(159,24,o),
(272,-24,o),
(412,-24,cs),
(623,-24,o),
(777,80,o),
(777,255,cs),
(777,399,o),
(679,488,o),
(531,543,cs),
(408,589,ls),
(306,627,o),
(253,670,o),
(253,740,cs),
(253,833,o),
(330,891,o),
(439,891,cs),
(541,891,o),
(637,860,o),
(698,831,c),
(726,860,o),
(742,902,o),
(742,940,c),
(662,976,o),
(540,1003,o),
(443,1003,cs),
(264,1003,o),
(112,902,o),
(112,733,cs),
(112,587,o),
(232,507,o),
(368,457,cs),
(487,413,ls),
(581,378,o),
(636,314,o),
(636,246,cs),
(634,151,o),
(547,84,o),
(416,84,cs),
(314,84,o),
(214,131,o),
(132,177,c),
(105,155,o),
(79,109,o),
(77,76,c)
);
}
);
width = 867.7;
},
{
anchors = (
{
name = bottom;
pos = (444,0);
},
{
name = top;
pos = (444,1084);
}
);
layerId = "E2DCE989-2657-47EA-91FE-B2106D1F3005";
shapes = (
{
closed = 1;
nodes = (
(136,16,o),
(267,-29,o),
(410,-29,cs),
(676,-29,o),
(837,96,o),
(837,292,cs),
(837,461,o),
(724,558,o),
(572,612,cs),
(448,656,ls),
(391,676,o),
(366,701,o),
(366,738,cs),
(366,778,o),
(398,809,o),
(457,809,cs),
(552,809,o),
(653,772,o),
(733,735,c),
(782,772,o),
(820,873,o),
(817,944,c),
(730,986,o),
(577,1025,o),
(454,1025,cs),
(224,1025,o),
(72,900,o),
(72,700,cs),
(72,540,o),
(182,454,o),
(322,402,cs),
(434,362,ls),
(500,338,o),
(530,306,o),
(530,265,cs),
(530,220,o),
(485,187,o),
(404,187,cs),
(309,187,o),
(214,225,o),
(127,271,c),
(83,225,o),
(44,133,o),
(42,69,c)
);
}
);
width = 884.86;
}
);
unicode = 115;
},
{
glyphname = t;
kernLeft = t;
kernRight = t;
lastChange = "2023-06-05 08:33:36 +0000";
layers = (
{
anchors = (
{
name = bottom;
pos = (389,0);
},
{
name = top;
pos = (315,1361);
},
{
name = topright;
pos = (356,981);
}
);
layerId = "E2DCCAAC-30DB-413E-982C-2359C46E476F";
shapes = (
{
closed = 1;
nodes = (
(211,158,ls),
(211,50,o),
(282,-8,o),
(394,-8,cs),
(472,-8,o),
(534,-4,o),
(597,4,c),
(599,13,o),
(599,24,o),
(599,35,cs),
(599,64,o),
(595,93,o),
(587,115,c),
(435,115,ls),
(377,115,o),
(356,149,o),
(356,197,cs),
(356,1278,l),
(344,1291,l),
(290,1291,ls),
(223,1291,o),
(211,1256,o),
(211,1190,cs)
);
},
{
closed = 1;
nodes = (
(306,979,l),
(70,983,l),
(66,962,o),
(64,947,o),
(64,926,cs),
(64,905,o),
(66,888,o),
(70,869,c),
(307,873,l),
(609,869,l),
(614,888,o),
(616,905,o),
(616,926,cs),
(616,947,o),
(614,962,o),
(609,983,c)
);
}
);
width = 674.3;
},
{
anchors = (
{
name = bottom;
pos = (418,0);
},
{
name = top;
pos = (342,1369);
},
{
name = topright;
pos = (466,998);
}
);
layerId = "33C6340C-19D4-4BAD-95FA-1AE5BEBDD22C";
shapes = (
{
closed = 1;
nodes = (
(161,268,ls),
(161,77,o),
(244,-10,o),
(425,-10,cs),
(505,-10,o),
(611,0,o),
(684,9,c),
(690,30,o),
(691,57,o),
(691,80,cs),
(691,128,o),
(682,184,o),
(667,228,c),
(555,228,ls),
(491,228,o),
(466,262,o),
(466,322,cs),
(466,1285,l),
(452,1299,l),
(330,1299,ls),
(207,1299,o),
(161,1251,o),
(161,1111,cs)
);
},
{
closed = 1;
nodes = (
(339,995,l),
(4,1000,l),
(-5,962,o),
(-9,926,o),
(-9,891,cs),
(-9,853,o),
(-5,815,o),
(4,778,c),
(330,784,l),
(703,778,l),
(713,815,o),
(717,853,o),
(717,891,cs),
(717,926,o),
(713,962,o),
(703,1000,c)
);
}
);
width = 749.12;
},
{
anchors = (
{
name = bottom;
pos = (387,0);
},
{
name = top;
pos = (313,1360);
},
{
name = topright;
pos = (348,980);
}
);
layerId = "11405D41-D873-4173-B059-BD48D7789B90";
shapes = (
{
closed = 1;
nodes = (
(215,150,ls),
(215,48,o),
(285,-8,o),
(392,-8,cs),
(469,-8,o),
(528,-4,o),
(591,4,c),
(592,12,o),
(592,21,o),
(592,31,cs),
(592,59,o),
(589,86,o),
(581,106,c),
(426,106,ls),
(368,106,o),
(348,140,o),
(348,188,cs),
(348,1278,l),
(336,1290,l),
(287,1290,ls),
(224,1290,o),
(215,1256,o),
(215,1196,cs)
);
},
{
closed = 1;
nodes = (
(303,978,l),
(75,982,l),
(71,962,o),
(69,948,o),
(69,929,cs),
(69,909,o),
(71,893,o),
(75,876,c),
(305,880,l),
(602,876,l),
(606,893,o),
(608,909,o),
(608,929,cs),
(608,948,o),
(606,962,o),
(602,982,c)
);
}
);
width = 668.71;
},
{
anchors = (
{
name = bottom;
pos = (416,0);
},
{
name = top;
pos = (340,1368);
},
{
name = topright;
pos = (456,997);
}
);
layerId = "E2DCE989-2657-47EA-91FE-B2106D1F3005";
shapes = (
{
closed = 1;
nodes = (
(166,258,ls),
(166,75,o),
(248,-10,o),
(423,-10,cs),
(502,-10,o),
(604,0,o),
(677,9,c),
(682,29,o),
(682,54,o),
(682,76,cs),
(682,122,o),
(675,176,o),
(660,218,c),
(544,218,ls),
(481,218,o),
(456,252,o),
(456,311,cs),
(456,1285,l),
(442,1298,l),
(326,1298,ls),
(208,1298,o),
(166,1251,o),
(166,1119,cs)
);
},
{
closed = 1;
nodes = (
(336,994,l),
(10,999,l),
(1,962,o),
(-3,927,o),
(-3,894,cs),
(-3,858,o),
(1,821,o),
(10,786,c),
(327,792,l),
(694,786,l),
(704,821,o),
(708,858,o),
(708,894,cs),
(708,927,o),
(704,962,o),
(694,999,c)
);
}
);
width = 742.498;
}
);
unicode = 116;
},
{
glyphname = u;
kernLeft = u;
kernRight = u;
lastChange = "2023-06-05 08:33:36 +0000";
layers = (
{
anchors = (
{
name = bottom;
pos = (536,0);
},
{
name = ogonek;
pos = (902,-14);
},
{
name = top;
pos = (538,1084);
},
{
name = topright;
pos = (914,981);
}
);
layerId = "E2DCCAAC-30DB-413E-982C-2359C46E476F";
shapes = (
{
closed = 1;
nodes = (
(914,981,l),
(894,985,o),
(868,987,o),
(839,987,cs),
(811,987,o),
(785,985,o),
(766,981,c),
(766,229,ls),
(766,122,o),
(796,24,o),
(902,-14,c),
(932,1,o),
(959,35,o),
(970,63,c),
(920,109,o),
(914,192,o),
(914,277,cs)
);
},
{
closed = 1;
nodes = (
(165,295,ls),
(165,124,o),
(233,-18,o),
(422,-18,cs),
(568,-18,o),
(720,61,o),
(806,170,c),
(806,326,l),
(740,210,o),
(582,116,o),
(459,116,cs),
(344,116,o),
(313,183,o),
(313,341,cs),
(313,896,ls),
(313,961,o),
(291,993,o),
(235,993,cs),
(201,993,o),
(163,980,o),
(142,961,c),
(161,917,o),
(165,856,o),
(165,792,cs)
);
}
);
width = 1092.3;
},
{
anchors = (
{
name = bottom;
pos = (540,0);
},
{
name = ogonek;
pos = (935,-16);
},
{
name = top;
pos = (531,1084);
},
{
name = topright;
pos = (974,998);
}
);
layerId = "33C6340C-19D4-4BAD-95FA-1AE5BEBDD22C";
shapes = (
{
closed = 1;
nodes = (
(974,998,l),
(929,1006,o),
(870,1010,o),
(818,1010,cs),
(764,1010,o),
(705,1006,o),
(662,998,c),
(662,289,ls),
(662,122,o),
(758,-13,o),
(935,-16,c),
(974,15,o),
(1019,85,o),
(1030,141,c),
(997,165,o),
(974,221,o),
(974,285,cs)
);
},
{
closed = 1;
nodes = (
(115,338,ls),
(115,129,o),
(212,-18,o),
(395,-18,cs),
(537,-18,o),
(643,69,o),
(736,161,c),
(736,434,l),
(676,309,o),
(575,263,o),
(513,263,cs),
(447,263,o),
(427,305,o),
(427,395,cs),
(427,821,ls),
(427,945,o),
(385,1014,o),
(260,1014,cs),
(182,1014,o),
(111,985,o),
(65,947,c),
(101,896,o),
(115,827,o),
(115,748,cs)
);
}
);
width = 1097.52;
},
{
anchors = (
{
name = bottom;
pos = (536,0);
},
{
name = ogonek;
pos = (899,-14);
},
{
name = top;
pos = (538,1084);
},
{
name = topright;
pos = (909,980);
}
);
layerId = "11405D41-D873-4173-B059-BD48D7789B90";
shapes = (
{
closed = 1;
nodes = (
(909,980,l),
(891,984,o),
(868,985,o),
(840,985,cs),
(815,985,o),
(791,984,o),
(774,980,c),
(774,225,ls),
(774,122,o),
(799,27,o),
(899,-14,c),
(929,0,o),
(955,31,o),
(965,57,c),
(914,105,o),
(909,190,o),
(909,276,cs)
);
},
{
closed = 1;
nodes = (
(169,292,ls),
(169,124,o),
(234,-18,o),
(424,-18,cs),
(570,-18,o),
(726,60,o),
(811,170,c),
(811,318,l),
(745,202,o),
(582,105,o),
(455,105,cs),
(336,105,o),
(304,174,o),
(304,337,cs),
(304,901,ls),
(304,962,o),
(284,992,o),
(233,992,cs),
(202,992,o),
(167,980,o),
(148,962,c),
(165,918,o),
(169,858,o),
(169,795,cs)
);
}
);
width = 1091.91;
},
{
anchors = (
{
name = bottom;
pos = (540,0);
},
{
name = ogonek;
pos = (932,-16);
},
{
name = top;
pos = (531,1084);
},
{
name = topright;
pos = (969,997);
}
);
layerId = "E2DCE989-2657-47EA-91FE-B2106D1F3005";
shapes = (
{
closed = 1;
nodes = (
(969,997,l),
(926,1005,o),
(870,1007,o),
(819,1007,cs),
(768,1007,o),
(712,1005,o),
(671,997,c),
(671,284,ls),
(671,122,o),
(762,-9,o),
(932,-16,c),
(970,14,o),
(1014,80,o),
(1025,134,c),
(990,160,o),
(969,219,o),
(969,284,cs)
);
},
{
closed = 1;
nodes = (
(120,335,ls),
(120,129,o),
(213,-18,o),
(397,-18,cs),
(539,-18,o),
(650,68,o),
(742,162,c),
(742,424,l),
(682,300,o),
(575,250,o),
(508,250,cs),
(438,250,o),
(417,294,o),
(417,390,cs),
(417,827,ls),
(417,946,o),
(376,1013,o),
(257,1013,cs),
(183,1013,o),
(116,985,o),
(72,948,c),
(106,897,o),
(120,829,o),
(120,752,cs)
);
}
);
width = 1097.058;
}
);
unicode = 117;
},
{
glyphname = v;
kernLeft = v;
kernRight = v;
lastChange = "2023-06-05 08:33:36 +0000";
layers = (
{
anchors = (
{
name = bottom;
pos = (446,0);
},
{
name = top;
pos = (442,1084);
}
);
layerId = "E2DCCAAC-30DB-413E-982C-2359C46E476F";
shapes = (
{
closed = 1;
nodes = (
(458,128,l),
(446,128,o),
(444,130,o),
(440,144,cs),
(425,206,o),
(382,350,o),
(345,462,cs),
(187,938,ls),
(174,980,o),
(149,995,o),
(113,995,cs),
(87,995,o),
(63,990,o),
(22,970,c),
(321,87,ls),
(349,1,o),
(372,-10,o),
(433,-10,cs),
(466,-10,o),
(504,-8,o),
(536,0,c),
(612,213,o),
(763,655,o),
(863,972,c),
(859,978,l),
(836,985,o),
(814,989,o),
(786,989,cs),
(769,989,o),
(750,989,o),
(727,983,c)
);
}
);
width = 884.3;
},
{
anchors = (
{
name = bottom;
pos = (484,0);
},
{
name = top;
pos = (479,1084);
}
);
layerId = "33C6340C-19D4-4BAD-95FA-1AE5BEBDD22C";
shapes = (
{
closed = 1;
nodes = (
(498,238,l),
(486,238,o),
(481,238,o),
(478,254,cs),
(468,314,o),
(453,420,o),
(434,497,cs),
(344,870,ls),
(319,978,o),
(262,1016,o),
(163,1016,cs),
(112,1016,o),
(46,997,o),
(-9,974,c),
(230,137,ls),
(266,15,o),
(328,-12,o),
(447,-12,cs),
(526,-12,o),
(612,-8,o),
(681,0,c),
(753,230,o),
(877,680,o),
(957,970,c),
(948,983,l),
(900,1002,o),
(840,1008,o),
(786,1008,cs),
(748,1008,o),
(710,1005,o),
(673,997,c)
);
}
);
width = 959.12;
},
{
anchors = (
{
name = bottom;
pos = (443,0);
},
{
name = top;
pos = (439,1084);
}
);
layerId = "11405D41-D873-4173-B059-BD48D7789B90";
shapes = (
{
closed = 1;
nodes = (
(455,120,l),
(443,120,o),
(441,122,o),
(437,136,cs),
(422,198,o),
(377,345,o),
(338,459,cs),
(175,943,ls),
(163,980,o),
(140,994,o),
(109,994,cs),
(85,994,o),
(64,990,o),
(24,970,c),
(328,83,ls),
(355,0,o),
(375,-10,o),
(432,-10,cs),
(461,-10,o),
(496,-8,o),
(525,0,c),
(602,212,o),
(754,653,o),
(856,972,c),
(852,978,l),
(831,984,o),
(812,988,o),
(786,988,cs),
(770,988,o),
(753,988,o),
(731,982,c)
);
}
);
width = 878.71;
},
{
anchors = (
{
name = bottom;
pos = (480,0);
},
{
name = top;
pos = (475,1084);
}
);
layerId = "E2DCE989-2657-47EA-91FE-B2106D1F3005";
shapes = (
{
closed = 1;
nodes = (
(494,228,l),
(482,228,o),
(477,228,o),
(474,244,cs),
(465,304,o),
(447,414,o),
(426,494,cs),
(330,876,ls),
(306,978,o),
(252,1015,o),
(158,1015,cs),
(109,1015,o),
(47,997,o),
(-7,974,c),
(238,132,ls),
(273,14,o),
(332,-12,o),
(446,-12,cs),
(521,-12,o),
(602,-8,o),
(668,0,c),
(741,229,o),
(867,677,o),
(948,970,c),
(940,983,l),
(894,1001,o),
(838,1007,o),
(786,1007,cs),
(749,1007,o),
(714,1004,o),
(678,996,c)
);
}
);
width = 952.498;
}
);
unicode = 118;
},
{
glyphname = w;
kernLeft = w;
kernRight = w;
lastChange = "2023-06-05 08:33:36 +0000";
layers = (
{
anchors = (
{
name = bottom;
pos = (711,0);
},
{
name = top;
pos = (711,1084);
}
);
layerId = "E2DCCAAC-30DB-413E-982C-2359C46E476F";
shapes = (
{
closed = 1;
nodes = (
(280,87,ls),
(300,3,o),
(341,-8,o),
(385,-8,cs),
(423,-8,o),
(478,-6,o),
(511,0,c),
(607,399,ls),
(633,509,o),
(673,690,o),
(705,836,c),
(713,836,l),
(746,690,o),
(781,508,o),
(804,399,cs),
(874,87,ls),
(892,2,o),
(933,-8,o),
(989,-8,cs),
(1025,-8,o),
(1076,-6,o),
(1104,-2,c),
(1353,972,l),
(1348,978,l),
(1331,985,o),
(1306,989,o),
(1279,989,cs),
(1252,989,o),
(1225,987,o),
(1208,983,c),
(1088,471,ls),
(1060,355,o),
(1035,241,o),
(1006,111,c),
(995,111,o),
(993,113,o),
(990,129,cs),
(800,980,l),
(780,985,o),
(735,987,o),
(710,987,cs),
(688,987,o),
(641,985,o),
(619,980,c),
(419,111,l),
(410,111,o),
(406,113,o),
(403,129,cs),
(385,208,o),
(358,349,o),
(330,471,cs),
(224,937,ls),
(214,985,o),
(186,995,o),
(156,995,cs),
(132,995,o),
(104,991,o),
(65,972,c)
);
}
);
width = 1408;
},
{
anchors = (
{
name = bottom;
pos = (754,0);
},
{
name = top;
pos = (754,1084);
}
);
layerId = "33C6340C-19D4-4BAD-95FA-1AE5BEBDD22C";
shapes = (
{
closed = 1;
nodes = (
(203,134,ls),
(230,15,o),
(287,-12,o),
(404,-12,cs),
(479,-12,o),
(575,-8,o),
(640,0,c),
(696,349,ls),
(711,448,o),
(733,586,o),
(748,722,c),
(760,722,l),
(775,584,o),
(797,444,o),
(811,345,cs),
(845,130,ls),
(863,7,o),
(921,-12,o),
(1041,-12,cs),
(1114,-12,o),
(1208,-10,o),
(1271,0,c),
(1504,965,l),
(1495,983,l),
(1451,1006,o),
(1372,1010,o),
(1329,1010,cs),
(1292,1010,o),
(1244,1006,o),
(1210,997,c),
(1121,560,ls),
(1097,437,o),
(1080,323,o),
(1066,231,c),
(1055,231,o),
(1053,235,o),
(1050,247,cs),
(937,987,l),
(890,999,o),
(793,1003,o),
(752,1003,cs),
(714,1003,o),
(622,999,o),
(572,987,c),
(462,231,l),
(450,231,o),
(448,235,o),
(446,247,cs),
(439,316,o),
(420,431,o),
(394,560,cs),
(332,883,ls),
(315,968,o),
(283,1016,o),
(183,1016,cs),
(128,1016,o),
(69,1003,o),
(9,979,c)
);
}
);
width = 1512.4;
},
{
anchors = (
{
name = bottom;
pos = (708,0);
},
{
name = top;
pos = (708,1084);
}
);
layerId = "11405D41-D873-4173-B059-BD48D7789B90";
shapes = (
{
closed = 1;
nodes = (
(286,83,ls),
(305,2,o),
(345,-8,o),
(384,-8,cs),
(419,-8,o),
(471,-6,o),
(502,0,c),
(600,403,ls),
(627,513,o),
(669,698,o),
(702,844,c),
(709,844,l),
(744,698,o),
(780,513,o),
(804,403,cs),
(876,84,ls),
(894,2,o),
(934,-8,o),
(985,-8,cs),
(1018,-8,o),
(1066,-6,o),
(1091,-2,c),
(1342,972,l),
(1337,978,l),
(1322,984,o),
(1301,988,o),
(1275,988,cs),
(1249,988,o),
(1224,986,o),
(1208,982,c),
(1085,464,ls),
(1057,349,o),
(1031,235,o),
(1001,102,c),
(991,102,o),
(989,104,o),
(985,120,cs),
(790,980,l),
(772,984,o),
(731,986,o),
(707,986,cs),
(686,986,o),
(642,984,o),
(623,980,c),
(416,102,l),
(407,102,o),
(403,104,o),
(400,120,cs),
(381,200,o),
(353,343,o),
(325,464,cs),
(216,941,ls),
(206,986,o),
(179,994,o),
(154,994,cs),
(132,994,o),
(107,990,o),
(69,972,c)
);
}
);
width = 1400.2;
},
{
anchors = (
{
name = bottom;
pos = (751,0);
},
{
name = top;
pos = (751,1084);
}
);
layerId = "E2DCE989-2657-47EA-91FE-B2106D1F3005";
shapes = (
{
closed = 1;
nodes = (
(210,130,ls),
(236,14,o),
(292,-12,o),
(403,-12,cs),
(474,-12,o),
(567,-8,o),
(629,0,c),
(688,354,ls),
(704,453,o),
(728,595,o),
(745,732,c),
(756,732,l),
(773,594,o),
(796,450,o),
(811,350,cs),
(847,127,ls),
(865,7,o),
(922,-12,o),
(1036,-12,cs),
(1106,-12,o),
(1197,-10,o),
(1256,0,c),
(1491,965,l),
(1482,983,l),
(1440,1005,o),
(1366,1009,o),
(1324,1009,cs),
(1288,1009,o),
(1243,1005,o),
(1210,996,c),
(1118,552,ls),
(1093,430,o),
(1076,316,o),
(1061,220,c),
(1050,220,o),
(1048,224,o),
(1045,237,cs),
(925,987,l),
(880,998,o),
(788,1002,o),
(748,1002,cs),
(712,1002,o),
(623,998,o),
(576,987,c),
(459,220,l),
(446,220,o),
(444,224,o),
(443,237,cs),
(434,306,o),
(415,424,o),
(388,552,cs),
(322,888,ls),
(306,969,o),
(275,1015,o),
(181,1015,cs),
(128,1015,o),
(72,1002,o),
(14,979,c)
);
}
);
width = 1503.16;
}
);
unicode = 119;
},
{
glyphname = x;
lastChange = "2023-06-05 08:33:36 +0000";
layers = (
{
anchors = (
{
name = top;
pos = (441,1084);
}
);
layerId = "E2DCCAAC-30DB-413E-982C-2359C46E476F";
shapes = (
{
closed = 1;
nodes = (
(675,31,l),
(694,3,o),
(714,-14,o),
(750,-14,cs),
(784,-14,o),
(827,4,o),
(854,22,c),
(249,952,ls),
(229,980,o),
(210,997,o),
(174,997,cs),
(140,997,o),
(98,979,o),
(71,961,c)
);
},
{
closed = 1;
nodes = (
(435,601,l),
(383,545,l),
(44,17,l),
(50,4,l),
(66,-4,o),
(93,-10,o),
(121,-10,cs),
(143,-10,o),
(177,-6,o),
(188,-2,c),
(465,442,l),
(511,492,l),
(811,964,l),
(805,977,l),
(791,983,o),
(764,989,o),
(732,989,cs),
(711,989,o),
(680,985,o),
(669,981,c)
);
}
);
width = 897.7;
},
{
anchors = (
{
name = top;
pos = (479,1084);
}
);
layerId = "33C6340C-19D4-4BAD-95FA-1AE5BEBDD22C";
shapes = (
{
closed = 1;
nodes = (
(590,76,l),
(630,13,o),
(676,-18,o),
(754,-18,cs),
(824,-18,o),
(905,9,o),
(966,51,c),
(396,921,ls),
(354,985,o),
(316,1018,o),
(238,1018,cs),
(173,1018,o),
(94,998,o),
(26,949,c)
);
},
{
closed = 1;
nodes = (
(443,661,l),
(364,590,l),
(4,31,l),
(13,11,l),
(61,-6,o),
(118,-12,o),
(179,-12,cs),
(225,-12,o),
(268,-10,o),
(300,0,c),
(523,378,l),
(596,450,l),
(933,968,l),
(925,989,l),
(878,1002,o),
(828,1010,o),
(770,1010,cs),
(727,1010,o),
(682,1006,o),
(648,998,c)
);
}
);
width = 962.08;
},
{
anchors = (
{
name = top;
pos = (438,1084);
}
);
layerId = "11405D41-D873-4173-B059-BD48D7789B90";
shapes = (
{
closed = 1;
nodes = (
(681,27,l),
(699,2,o),
(717,-14,o),
(750,-14,cs),
(781,-14,o),
(821,4,o),
(846,20,c),
(238,954,ls),
(220,980,o),
(202,996,o),
(169,996,cs),
(137,996,o),
(98,978,o),
(75,962,c)
);
},
{
closed = 1;
nodes = (
(434,597,l),
(384,541,l),
(47,16,l),
(53,4,l),
(66,-4,o),
(91,-10,o),
(117,-10,cs),
(137,-10,o),
(170,-6,o),
(180,-2,c),
(461,447,l),
(505,495,l),
(802,964,l),
(796,976,l),
(785,982,o),
(759,988,o),
(729,988,cs),
(710,988,o),
(680,984,o),
(670,980,c)
);
}
);
width = 892.89;
},
{
anchors = (
{
name = top;
pos = (475,1084);
}
);
layerId = "E2DCE989-2657-47EA-91FE-B2106D1F3005";
shapes = (
{
closed = 1;
nodes = (
(597,72,l),
(636,12,o),
(680,-18,o),
(754,-18,cs),
(820,-18,o),
(898,9,o),
(956,49,c),
(383,923,ls),
(343,985,o),
(306,1017,o),
(232,1017,cs),
(170,1017,o),
(94,997,o),
(30,950,c)
);
},
{
closed = 1;
nodes = (
(442,656,l),
(365,586,l),
(8,30,l),
(17,11,l),
(61,-6,o),
(115,-12,o),
(174,-12,cs),
(218,-12,o),
(260,-10,o),
(290,0,c),
(518,384,l),
(589,454,l),
(922,968,l),
(914,988,l),
(871,1001,o),
(822,1009,o),
(766,1009,cs),
(726,1009,o),
(682,1005,o),
(649,997,c)
);
}
);
width = 956.382;
}
);
unicode = 120;
},
{
glyphname = y;
kernLeft = y;
kernRight = y;
lastChange = "2023-06-05 08:33:36 +0000";
layers = (
{
anchors = (
{
name = bottom;
pos = (696,-124);
},
{
name = top;
pos = (451,1084);
}
);
layerId = "E2DCCAAC-30DB-413E-982C-2359C46E476F";
shapes = (
{
closed = 1;
nodes = (
(872,972,l),
(868,979,l),
(848,985,o),
(822,989,o),
(795,989,cs),
(772,989,o),
(746,987,o),
(726,983,c),
(482,99,l),
(472,99,o),
(466,101,o),
(462,113,cs),
(439,194,o),
(404,318,o),
(370,424,cs),
(212,926,ls),
(196,980,o),
(168,995,o),
(134,995,cs),
(110,995,o),
(83,987,o),
(46,970,c),
(325,89,ls),
(349,16,o),
(382,-4,o),
(450,-8,c),
(444,-29,ls),
(389,-208,o),
(333,-323,o),
(180,-323,cs),
(135,-323,o),
(76,-313,o),
(49,-303,c),
(30,-326,o),
(13,-373,o),
(15,-409,c),
(50,-422,o),
(124,-436,o),
(178,-436,cs),
(418,-436,o),
(503,-288,o),
(598,34,cs)
);
}
);
width = 903.2;
},
{
anchors = (
{
name = bottom;
pos = (875,-25);
},
{
name = top;
pos = (494,1084);
}
);
layerId = "33C6340C-19D4-4BAD-95FA-1AE5BEBDD22C";
shapes = (
{
closed = 1;
nodes = (
(984,967,l),
(972,987,l),
(916,1006,o),
(859,1010,o),
(805,1010,cs),
(767,1010,o),
(717,1006,o),
(682,997,c),
(508,221,l),
(498,221,o),
(493,223,o),
(491,235,cs),
(482,300,o),
(464,430,o),
(447,497,cs),
(353,882,ls),
(328,985,o),
(278,1016,o),
(202,1016,cs),
(150,1016,o),
(73,1003,o),
(9,974,c),
(242,112,ls),
(267,18,o),
(342,-13,o),
(450,-13,c),
(442,-43,ls),
(412,-144,o),
(347,-205,o),
(246,-205,cs),
(180,-205,o),
(109,-188,o),
(66,-174,c),
(25,-222,o),
(-4,-326,o),
(3,-397,c),
(57,-417,o),
(166,-438,o),
(246,-438,cs),
(557,-438,o),
(665,-246,o),
(737,27,cs)
);
}
);
width = 993.68;
},
{
anchors = (
{
name = bottom;
pos = (683,-132);
},
{
name = top;
pos = (448,1084);
}
);
layerId = "11405D41-D873-4173-B059-BD48D7789B90";
shapes = (
{
closed = 1;
nodes = (
(864,972,l),
(860,978,l),
(843,984,o),
(819,988,o),
(794,988,cs),
(772,988,o),
(748,986,o),
(729,982,c),
(480,90,l),
(470,90,o),
(464,92,o),
(460,104,cs),
(436,186,o),
(399,310,o),
(364,419,cs),
(202,929,ls),
(186,980,o),
(160,994,o),
(129,994,cs),
(107,994,o),
(84,986,o),
(49,970,c),
(331,87,ls),
(355,16,o),
(385,-4,o),
(450,-8,c),
(444,-28,ls),
(387,-213,o),
(332,-332,o),
(175,-332,cs),
(131,-332,o),
(73,-322,o),
(48,-312,c),
(30,-334,o),
(14,-377,o),
(16,-410,c),
(50,-422,o),
(121,-436,o),
(173,-436,cs),
(408,-436,o),
(491,-291,o),
(588,34,cs)
);
}
);
width = 896.44;
},
{
anchors = (
{
name = bottom;
pos = (859,-34);
},
{
name = top;
pos = (491,1084);
}
);
layerId = "E2DCE989-2657-47EA-91FE-B2106D1F3005";
shapes = (
{
closed = 1;
nodes = (
(974,967,l),
(963,986,l),
(910,1005,o),
(855,1009,o),
(804,1009,cs),
(767,1009,o),
(719,1005,o),
(686,996,c),
(506,210,l),
(496,210,o),
(491,212,o),
(489,224,cs),
(479,290,o),
(459,420,o),
(440,491,cs),
(341,886,ls),
(317,985,o),
(268,1015,o),
(196,1015,cs),
(146,1015,o),
(74,1002,o),
(13,974,c),
(249,109,ls),
(274,18,o),
(346,-12,o),
(450,-13,c),
(442,-42,ls),
(409,-150,o),
(346,-215,o),
(240,-215,cs),
(176,-215,o),
(106,-199,o),
(65,-185,c),
(25,-231,o),
(-3,-330,o),
(4,-398,c),
(57,-417,o),
(162,-438,o),
(240,-438,cs),
(545,-438,o),
(650,-250,o),
(725,27,cs)
);
}
);
width = 985.672;
}
);
unicode = 121;
},
{
glyphname = z;
kernLeft = z;
kernRight = z;
lastChange = "2023-06-05 08:33:36 +0000";
layers = (
{
anchors = (
{
name = bottom;
pos = (448,0);
},
{
name = top;
pos = (448,1084);
}
);
layerId = "E2DCCAAC-30DB-413E-982C-2359C46E476F";
shapes = (
{
closed = 1;
nodes = (
(107,155,ls),
(88,128,o),
(82,109,o),
(82,92,cs),
(82,69,o),
(88,51,o),
(107,0,c),
(699,0,ls),
(784,0,o),
(809,28,o),
(809,76,cs),
(809,99,o),
(804,125,o),
(796,147,c),
(749,128,o),
(671,122,o),
(564,122,cs),
(454,122,ls),
(406,122,o),
(324,120,o),
(255,116,c),
(249,122,l),
(295,182,o),
(361,261,o),
(406,325,cs),
(775,829,ls),
(792,851,o),
(800,870,o),
(800,887,cs),
(800,908,o),
(793,932,o),
(775,981,c),
(122,981,l),
(116,956,o),
(114,925,o),
(114,911,cs),
(114,900,o),
(114,877,o),
(118,861,c),
(359,861,ls),
(446,861,o),
(586,865,o),
(634,871,c),
(640,865,l),
(588,800,o),
(527,729,o),
(483,669,cs)
);
}
);
width = 888.6;
},
{
anchors = (
{
name = bottom;
pos = (450,0);
},
{
name = top;
pos = (450,1084);
}
);
layerId = "33C6340C-19D4-4BAD-95FA-1AE5BEBDD22C";
shapes = (
{
closed = 1;
nodes = (
(93,268,ls),
(61,225,o),
(49,187,o),
(49,152,cs),
(49,116,o),
(59,74,o),
(84,0,c),
(687,0,ls),
(811,0,o),
(854,55,o),
(854,138,cs),
(854,181,o),
(844,214,o),
(822,267,c),
(766,240,o),
(696,234,o),
(635,234,cs),
(566,234,ls),
(516,234,o),
(465,230,o),
(408,222,c),
(402,232,l),
(453,285,o),
(508,353,o),
(553,412,cs),
(798,735,ls),
(819,761,o),
(827,799,o),
(827,827,cs),
(827,871,o),
(812,923,o),
(787,998,c),
(89,998,l),
(79,956,o),
(72,909,o),
(72,862,cs),
(72,832,o),
(76,797,o),
(83,767,c),
(237,767,ls),
(310,767,o),
(412,774,o),
(486,782,c),
(492,773,l),
(447,723,o),
(378,647,o),
(330,584,cs)
);
}
);
width = 899.04;
},
{
anchors = (
{
name = bottom;
pos = (448,0);
},
{
name = top;
pos = (448,1084);
}
);
layerId = "11405D41-D873-4173-B059-BD48D7789B90";
shapes = (
{
closed = 1;
nodes = (
(108,146,ls),
(90,121,o),
(85,103,o),
(85,87,cs),
(85,65,o),
(90,49,o),
(109,0,c),
(700,0,ls),
(782,0,o),
(805,26,o),
(805,71,cs),
(805,93,o),
(801,118,o),
(794,138,c),
(748,120,o),
(669,114,o),
(559,114,cs),
(446,114,ls),
(398,114,o),
(314,112,o),
(243,108,c),
(237,114,l),
(283,174,o),
(350,254,o),
(395,319,cs),
(773,836,ls),
(790,858,o),
(798,875,o),
(798,891,cs),
(798,911,o),
(792,932,o),
(774,980,c),
(125,980,l),
(119,956,o),
(117,926,o),
(117,915,cs),
(117,905,o),
(117,883,o),
(121,868,c),
(368,868,ls),
(456,868,o),
(599,872,o),
(645,878,c),
(651,872,l),
(598,806,o),
(538,735,o),
(495,675,cs)
);
}
);
width = 887.82;
},
{
anchors = (
{
name = bottom;
pos = (450,0);
},
{
name = top;
pos = (450,1084);
}
);
layerId = "E2DCE989-2657-47EA-91FE-B2106D1F3005";
shapes = (
{
closed = 1;
nodes = (
(94,258,ls),
(63,217,o),
(52,180,o),
(52,147,cs),
(52,112,o),
(61,71,o),
(87,0,c),
(688,0,ls),
(809,0,o),
(850,53,o),
(850,133,cs),
(850,174,o),
(840,206,o),
(820,256,c),
(765,230,o),
(693,224,o),
(629,224,cs),
(556,224,ls),
(506,224,o),
(453,220,o),
(394,212,c),
(388,222,l),
(439,276,o),
(495,344,o),
(540,405,cs),
(795,744,ls),
(817,769,o),
(825,805,o),
(825,832,cs),
(825,875,o),
(811,924,o),
(786,997,c),
(92,997,l),
(83,956,o),
(76,910,o),
(76,867,cs),
(76,838,o),
(80,804,o),
(86,776,c),
(248,776,ls),
(322,776,o),
(427,782,o),
(499,790,c),
(505,782,l),
(459,730,o),
(391,654,o),
(344,591,cs)
);
}
);
width = 898.116;
}
);
unicode = 122;
},
{
glyphname = quotesingle;
lastChange = "2023-06-05 08:33:36 +0000";
layers = (
{
layerId = "E2DCCAAC-30DB-413E-982C-2359C46E476F";
shapes = (
{
closed = 1;
nodes = (
(94,1362,o),
(117,1182,o),
(148,986,c),
(168,975,o),
(209,975,o),
(227,986,c),
(257,1180,o),
(279,1362,o),
(279,1391,cs),
(279,1418,o),
(276,1444,o),
(269,1473,c),
(252,1484,o),
(219,1494,o),
(187,1494,cs),
(151,1494,o),
(124,1484,o),
(105,1473,c),
(98,1444,o),
(94,1418,o),
(94,1391,cs)
);
}
);
width = 387.5;
},
{
layerId = "33C6340C-19D4-4BAD-95FA-1AE5BEBDD22C";
shapes = (
{
closed = 1;
nodes = (
(84,1393,o),
(122,1177,o),
(157,981,c),
(191,959,o),
(273,959,o),
(307,981,c),
(342,1176,o),
(380,1393,o),
(380,1436,cs),
(380,1478,o),
(374,1519,o),
(366,1556,c),
(327,1579,o),
(283,1591,o),
(232,1591,cs),
(180,1591,o),
(137,1579,o),
(98,1556,c),
(90,1519,o),
(84,1478,o),
(84,1436,cs)
);
}
);
width = 483.2;
},
{
layerId = "11405D41-D873-4173-B059-BD48D7789B90";
shapes = (
{
closed = 1;
nodes = (
(95,1360,o),
(117,1182,o),
(147,986,c),
(166,976,o),
(204,976,o),
(221,986,c),
(251,1180,o),
(271,1360,o),
(271,1387,cs),
(271,1413,o),
(268,1439,o),
(262,1467,c),
(247,1477,o),
(214,1487,o),
(183,1487,cs),
(149,1487,o),
(123,1477,o),
(105,1467,c),
(98,1439,o),
(95,1413,o),
(95,1387,cs)
);
}
);
width = 380.35;
},
{
layerId = "E2DCE989-2657-47EA-91FE-B2106D1F3005";
shapes = (
{
closed = 1;
nodes = (
(85,1391,o),
(122,1177,o),
(156,981,c),
(188,960,o),
(267,960,o),
(300,981,c),
(335,1176,o),
(371,1391,o),
(371,1432,cs),
(371,1473,o),
(365,1513,o),
(358,1549,c),
(321,1571,o),
(277,1583,o),
(228,1583,cs),
(178,1583,o),
(136,1571,o),
(98,1549,c),
(91,1513,o),
(85,1473,o),
(85,1432,cs)
);
}
);
width = 474.73;
}
);
unicode = 39;
},
{
glyphname = numbersign;
lastChange = "2023-06-05 08:33:36 +0000";
layers = (
{
layerId = "E2DCCAAC-30DB-413E-982C-2359C46E476F";
shapes = (
{
closed = 1;
nodes = (
(484,1264,l),
(502,1270,o),
(528,1273,o),
(554,1273,cs),
(580,1273,o),
(605,1270,o),
(623,1264,c),
(347,28,l),
(331,20,o),
(304,17,o),
(277,17,cs),
(250,17,o),
(223,20,o),
(207,28,c)
);
},
{
closed = 1;
nodes = (
(882,1264,l),
(900,1270,o),
(926,1273,o),
(952,1273,cs),
(978,1273,o),
(1004,1270,o),
(1022,1264,c),
(745,28,l),
(729,20,o),
(703,17,o),
(675,17,cs),
(649,17,o),
(621,20,o),
(605,28,c)
);
},
{
closed = 1;
nodes = (
(62,334,l),
(55,351,o),
(52,375,o),
(52,399,cs),
(52,423,o),
(55,448,o),
(62,465,c),
(1065,465,l),
(1071,448,o),
(1074,423,o),
(1074,399,cs),
(1074,375,o),
(1071,351,o),
(1065,334,c)
);
},
{
closed = 1;
nodes = (
(151,827,l),
(144,844,o),
(141,869,o),
(141,893,cs),
(141,917,o),
(144,941,o),
(151,958,c),
(1154,958,l),
(1160,941,o),
(1163,917,o),
(1163,893,cs),
(1163,869,o),
(1160,844,o),
(1154,827,c)
);
}
);
width = 1210.9;
},
{
layerId = "33C6340C-19D4-4BAD-95FA-1AE5BEBDD22C";
shapes = (
{
closed = 1;
nodes = (
(477,1302,l),
(510,1318,o),
(563,1325,o),
(614,1325,cs),
(667,1325,o),
(718,1318,o),
(748,1302,c),
(461,24,l),
(428,9,o),
(375,1,o),
(324,1,cs),
(272,1,o),
(220,9,o),
(190,24,c)
);
},
{
closed = 1;
nodes = (
(986,1302,l),
(1020,1318,o),
(1073,1325,o),
(1124,1325,cs),
(1177,1325,o),
(1227,1318,o),
(1258,1302,c),
(971,24,l),
(938,9,o),
(885,1,o),
(833,1,cs),
(782,1,o),
(730,9,o),
(699,24,c)
);
},
{
closed = 1;
nodes = (
(55,264,l),
(42,300,o),
(36,344,o),
(36,387,cs),
(36,431,o),
(42,475,o),
(55,510,c),
(1282,510,l),
(1294,475,o),
(1301,431,o),
(1301,387,cs),
(1301,344,o),
(1294,300,o),
(1282,264,c)
);
},
{
closed = 1;
nodes = (
(161,817,l),
(149,852,o),
(143,896,o),
(143,940,cs),
(143,984,o),
(149,1027,o),
(161,1062,c),
(1388,1062,l),
(1401,1027,o),
(1408,984,o),
(1408,940,cs),
(1408,896,o),
(1401,852,o),
(1388,817,c)
);
}
);
width = 1435.36;
},
{
layerId = "11405D41-D873-4173-B059-BD48D7789B90";
shapes = (
{
closed = 1;
nodes = (
(484,1261,l),
(501,1266,o),
(525,1269,o),
(549,1269,cs),
(574,1269,o),
(597,1266,o),
(614,1261,c),
(338,28,l),
(324,21,o),
(299,18,o),
(273,18,cs),
(248,18,o),
(223,21,o),
(208,28,c)
);
},
{
closed = 1;
nodes = (
(874,1261,l),
(891,1266,o),
(915,1269,o),
(939,1269,cs),
(963,1269,o),
(987,1266,o),
(1004,1261,c),
(728,28,l),
(713,21,o),
(689,18,o),
(663,18,cs),
(639,18,o),
(612.991,21.009,o),
(598,28,c)
);
},
{
closed = 1;
nodes = (
(62,339,l),
(56,355,o),
(53,377,o),
(53,400,cs),
(53,423,o),
(56,446,o),
(62,461,c),
(1049,461,l),
(1054,446,o),
(1057,423,o),
(1057,400,cs),
(1057,377,o),
(1054,355,o),
(1049,339,c)
);
},
{
closed = 1;
nodes = (
(150,828,l),
(144,844,o),
(141,867,o),
(141,889,cs),
(141,912,o),
(144,935,o),
(150,950,c),
(1136,950,l),
(1142,935,o),
(1145,912,o),
(1145,889,cs),
(1145,867,o),
(1142,844,o),
(1136,828,c)
);
}
);
width = 1194.13;
},
{
layerId = "E2DCE989-2657-47EA-91FE-B2106D1F3005";
shapes = (
{
closed = 1;
nodes = (
(477,1298,l),
(509,1314,o),
(560,1320,o),
(609,1320,cs),
(660,1320,o),
(708,1314,o),
(737,1298,c),
(451,24,l),
(420,10,o),
(369,2,o),
(320,2,cs),
(269,2,o),
(220,10,o),
(191,24,c)
);
},
{
closed = 1;
nodes = (
(977,1298,l),
(1009,1314,o),
(1060,1320,o),
(1109,1320,cs),
(1159,1320,o),
(1207,1314,o),
(1237,1298,c),
(951,24,l),
(919,10,o),
(869,2,o),
(819,2,cs),
(770,2,o),
(720,10,o),
(690,24,c)
);
},
{
closed = 1;
nodes = (
(55,270,l),
(43,305,o),
(37,346,o),
(37,388,cs),
(37,430,o),
(43,473,o),
(55,506,c),
(1263,506,l),
(1274,473,o),
(1281,430,o),
(1281,388,cs),
(1281,346,o),
(1274,305,o),
(1263,270,c)
);
},
{
closed = 1;
nodes = (
(160,818,l),
(149,851,o),
(143,894,o),
(143,936,cs),
(143,978,o),
(149,1020,o),
(160,1053,c),
(1367,1053,l),
(1380,1020,o),
(1387,978,o),
(1387,936,cs),
(1387,894,o),
(1380,851,o),
(1367,818,c)
);
}
);
width = 1415.494;
}
);
unicode = 35;
},
{
glyphname = ampersand;
lastChange = "2023-06-05 08:33:36 +0000";
layers = (
{
layerId = "E2DCCAAC-30DB-413E-982C-2359C46E476F";
shapes = (
{
closed = 1;
nodes = (
(604,793,ls),
(413,793,o),
(330,894,o),
(330,1031,cs),
(330,1166,o),
(422,1262,o),
(577,1262,cs),
(690,1262,o),
(783,1238,o),
(871,1211,cs),
(898,1241,o),
(913,1294,o),
(913,1336,c),
(831,1366,o),
(702,1390,o),
(578,1390,cs),
(314,1390,o),
(168,1227,o),
(168,1038,cs),
(168,865,o),
(304,724,o),
(458,718,c),
(458,746,l),
(288,742,o),
(112,577,o),
(112,360,cs),
(112,137,o),
(242,-24,o),
(491,-24,cs),
(605,-24,o),
(723,16,o),
(816,78,c),
(829,0,l),
(847,-4,o),
(871,-7,o),
(901,-7,cs),
(930,-7,o),
(954,-4,o),
(973,0,c),
(965,87,o),
(961,199,o),
(961,294,cs),
(961,536,ls),
(961,583,o),
(959,674,o),
(956,728,c),
(816,728,l),
(813,674,o),
(811,585,o),
(811,534,cs),
(811,207,l),
(747,152,o),
(633,104,o),
(517,104,cs),
(364,104,o),
(274,204,o),
(274,362,cs),
(274,493,o),
(354,662,o),
(585,662,cs),
(1031,662,ls),
(1102,662,o),
(1160,676,o),
(1160,746,cs),
(1160,770,o),
(1154,801,o),
(1139,820,c),
(1100,802,o),
(1030,793,o),
(961,793,cs)
);
}
);
width = 1208;
},
{
layerId = "33C6340C-19D4-4BAD-95FA-1AE5BEBDD22C";
shapes = (
{
closed = 1;
nodes = (
(664,849,ls),
(529,849,o),
(466,898,o),
(466,1004,cs),
(466,1087,o),
(519,1150,o),
(629,1150,cs),
(728,1150,o),
(828,1124,o),
(918,1095,cs),
(971,1152,o),
(1002,1250,o),
(998,1329,c),
(889,1366,o),
(731,1395,o),
(574,1395,cs),
(309,1395,o),
(139,1248,o),
(139,1031,cs),
(139,853,o),
(262,717,o),
(427,713,c),
(427,744,l),
(257,744,o),
(79,591,o),
(79,358,cs),
(79,149,o),
(215,-29,o),
(470,-29,cs),
(593,-29,o),
(706,16,o),
(781,83,c),
(802,-4,l),
(837,-13,o),
(892,-19,o),
(944,-19,cs),
(1000,-19,o),
(1051,-13,o),
(1087,0,c),
(1079,95,o),
(1074,231,o),
(1074,320,cs),
(1074,463,ls),
(1074,533,o),
(1072,639,o),
(1064,732,c),
(776,732,l),
(768,639,o),
(766,533,o),
(766,463,cs),
(766,289,l),
(724,253,o),
(654,212,o),
(560,212,cs),
(476,212,o),
(406,264,o),
(406,388,cs),
(406,518,o),
(488,585,o),
(641,585,cs),
(1116,585,ls),
(1236,585,o),
(1305,636,o),
(1305,742,cs),
(1305,799,o),
(1290,857,o),
(1264,888,c),
(1206,862,o),
(1129,849,o),
(1052,849,cs)
);
}
);
width = 1312.4;
},
{
layerId = "11405D41-D873-4173-B059-BD48D7789B90";
shapes = (
{
closed = 1;
nodes = (
(599,789,ls),
(404,789,o),
(320,894,o),
(320,1033,cs),
(320,1172,o),
(415,1270,o),
(573,1270,cs),
(687,1270,o),
(779,1246,o),
(867,1220,cs),
(893,1248,o),
(906,1297,o),
(907,1336,c),
(827,1366,o),
(700,1390,o),
(578,1390,cs),
(314,1390,o),
(170,1226,o),
(170,1038,cs),
(170,866,o),
(307,724,o),
(460,718,c),
(460,746,l),
(290,742,o),
(115,576,o),
(115,360,cs),
(115,136,o),
(244,-24,o),
(492,-24,cs),
(606,-24,o),
(724,16,o),
(819,78,c),
(831,0,l),
(848,-4,o),
(870,-6,o),
(898,-6,cs),
(925,-6,o),
(947,-4,o),
(964,0,c),
(956,87,o),
(952,197,o),
(952,292,cs),
(952,541,ls),
(952,587,o),
(950,677,o),
(948,728,c),
(819,728,l),
(817,677,o),
(815,589,o),
(815,539,cs),
(815,201,l),
(749,144,o),
(632,96,o),
(514,96,cs),
(356,96,o),
(264,199,o),
(264,360,cs),
(264,491,o),
(344,668,o),
(581,668,cs),
(1025,668,ls),
(1092,668,o),
(1149,679,o),
(1149,746,cs),
(1149,768,o),
(1144,797,o),
(1130,815,c),
(1092,797,o),
(1022,789,o),
(954,789,cs)
);
}
);
width = 1200.2;
},
{
layerId = "E2DCE989-2657-47EA-91FE-B2106D1F3005";
shapes = (
{
closed = 1;
nodes = (
(659,844,ls),
(519,844,o),
(454,898,o),
(454,1007,cs),
(454,1095,o),
(511,1160,o),
(624,1160,cs),
(724,1160,o),
(824,1134,o),
(914,1105,cs),
(965,1160,o),
(994,1254,o),
(991,1329,c),
(884,1366,o),
(729,1395,o),
(574,1395,cs),
(309,1395,o),
(141,1247,o),
(141,1031,cs),
(141,854,o),
(266,717,o),
(429,713,c),
(429,744,l),
(259,744,o),
(82,590,o),
(82,358,cs),
(82,148,o),
(217,-29,o),
(471,-29,cs),
(594,-29,o),
(707,16,o),
(784,83,c),
(805,-4,l),
(838,-12,o),
(891,-18,o),
(941,-18,cs),
(994,-18,o),
(1043,-12,o),
(1077,0,c),
(1069,94,o),
(1064,229,o),
(1064,318,cs),
(1064,469,ls),
(1064,538,o),
(1062,642,o),
(1054,732,c),
(780,732,l),
(772,642,o),
(770,538,o),
(770,469,cs),
(770,282,l),
(727,244,o),
(653,202,o),
(557,202,cs),
(466,202,o),
(395,259,o),
(395,386,cs),
(395,515,o),
(476,592,o),
(636,592,cs),
(1109,592,ls),
(1224,592,o),
(1292,640,o),
(1292,742,cs),
(1292,797,o),
(1278,852,o),
(1253,882,c),
(1196,857,o),
(1120,844,o),
(1044,844,cs)
);
}
);
width = 1303.16;
}
);
unicode = 38;
},
{
glyphname = asterisk;
lastChange = "2023-06-05 08:33:36 +0000";
layers = (
{
layerId = "E2DCCAAC-30DB-413E-982C-2359C46E476F";
shapes = (
{
closed = 1;
nodes = (
(423,1360,ls),
(421,1268,o),
(444,1167,o),
(461,1090,c),
(473,1074,o),
(485,1068,o),
(495,1068,cs),
(506,1068,o),
(518,1076,o),
(530,1090,c),
(545,1167,o),
(570,1268,o),
(568,1360,cs),
(567,1462,l),
(529,1478,o),
(460,1478,o),
(424,1462,c)
);
},
{
closed = 1;
nodes = (
(194,1090,ls),
(282,1058,o),
(386,1051,o),
(463,1043,c),
(483,1047,o),
(491,1057,o),
(495,1068,cs),
(500,1078,o),
(496,1092,o),
(486,1108,c),
(417,1144,o),
(328,1200,o),
(240,1228,cs),
(144,1257,l),
(116,1226,o),
(94,1161,o),
(99,1123,c)
);
},
{
closed = 1;
nodes = (
(381,788,ls),
(439,862,o),
(478,958,o),
(510,1031,c),
(512,1049,o),
(504,1062,o),
(495,1068,cs),
(487,1074,o),
(473,1076,o),
(453,1070,c),
(398,1018,o),
(317,949,o),
(263,873,cs),
(206,792,l),
(228,755,o),
(283,717,o),
(321,708,c)
);
},
{
closed = 1;
nodes = (
(728,873,ls),
(675,949,o),
(595,1018,o),
(536,1070,c),
(518,1078,o),
(504,1074,o),
(495,1068,cs),
(487,1062,o),
(481,1049,o),
(481,1029,c),
(515,958,o),
(552,862,o),
(610,788,cs),
(668,708,l),
(711,717,o),
(764,757,o),
(783,790,c)
);
},
{
closed = 1;
nodes = (
(751,1228,ls),
(663,1202,o),
(574,1147,o),
(505,1107,c),
(493,1092,o),
(491,1078,o),
(495,1068,cs),
(500,1057,o),
(508,1049,o),
(530,1043,c),
(605,1053,o),
(709,1060,o),
(797,1089,cs),
(892,1122,l),
(896,1165,o),
(873,1230,o),
(848,1255,c)
);
}
);
width = 990.9;
},
{
layerId = "33C6340C-19D4-4BAD-95FA-1AE5BEBDD22C";
shapes = (
{
closed = 1;
nodes = (
(402,1331,ls),
(407,1241,o),
(446,1142,o),
(473,1052,c),
(485,1037,o),
(502,1030,o),
(520,1030,cs),
(537,1030,o),
(555,1038,o),
(567,1052,c),
(594,1142,o),
(632,1241,o),
(638,1331,cs),
(645,1460,l),
(587,1483,o),
(451,1483,o),
(395,1460,c)
);
},
{
closed = 1;
nodes = (
(198,1011,ls),
(284,988,o),
(390,993,o),
(484,993,c),
(502,998,o),
(514,1012,o),
(520,1030,cs),
(526,1047,o),
(523,1065,o),
(513,1081,c),
(436,1135,o),
(354,1204,o),
(269,1235,cs),
(149,1282,l),
(109,1233,o),
(67,1105,o),
(72,1043,c)
);
},
{
closed = 1;
nodes = (
(437,718,ls),
(486,794,o),
(515,894,o),
(545,984,c),
(543,1002,o),
(535,1018,o),
(520,1030,cs),
(504,1041,o),
(487,1043,o),
(469,1039,c),
(394,983,o),
(303,926,o),
(247,856,cs),
(166,755,l),
(199,701,o),
(308,623,o),
(368,609,c)
);
},
{
closed = 1;
nodes = (
(790,854,ls),
(733,924,o),
(647,983,o),
(571,1039,c),
(553,1043,o),
(535,1041,o),
(520,1030,cs),
(504,1018,o),
(497,1002,o),
(495,984,c),
(525,896,o),
(552,792,o),
(601,717,cs),
(672,607,l),
(734,623,o),
(841,703,o),
(872,755,c)
);
},
{
closed = 1;
nodes = (
(770,1232,ls),
(686,1198,o),
(603,1137,o),
(526,1080,c),
(518,1065,o),
(514,1047,o),
(520,1030,cs),
(526,1012,o),
(539,999,o),
(556,993,c),
(648,993,o),
(756,987,o),
(842,1009,cs),
(969,1043,l),
(973,1107,o),
(929,1234,o),
(890,1280,c)
);
}
);
width = 1041.36;
},
{
layerId = "11405D41-D873-4173-B059-BD48D7789B90";
shapes = (
{
closed = 1;
nodes = (
(424,1362,ls),
(422,1270,o),
(444,1169,o),
(460,1093,c),
(472,1077,o),
(484,1071,o),
(493,1071,cs),
(504,1071,o),
(515,1079,o),
(527,1093,c),
(541,1169,o),
(565,1270,o),
(563,1362,cs),
(561,1462,l),
(525,1478,o),
(460,1478,o),
(426,1462,c)
);
},
{
closed = 1;
nodes = (
(194,1096,ls),
(282,1063,o),
(386,1055,o),
(462,1047,c),
(482,1051,o),
(489,1061,o),
(493,1071,cs),
(498,1080,o),
(494,1094,o),
(484,1110,c),
(416,1144,o),
(326,1200,o),
(238,1228,cs),
(144,1255,l),
(116,1226,o),
(96,1165,o),
(101,1129,c)
);
},
{
closed = 1;
nodes = (
(377,793,ls),
(435,867,o),
(475,963,o),
(507,1035,c),
(510,1053,o),
(502,1065,o),
(493,1071,cs),
(486,1077,o),
(472,1079,o),
(452,1072,c),
(398,1021,o),
(318,951,o),
(264,874,cs),
(209,795,l),
(230,759,o),
(281,724,o),
(317,716,c)
);
},
{
closed = 1;
nodes = (
(723,874,ls),
(671,951,o),
(591,1021,o),
(533,1072,c),
(515,1081,o),
(502,1077,o),
(493,1071,cs),
(486,1065,o),
(480,1053,o),
(480,1033,c),
(514,963,o),
(552,867,o),
(610,793,cs),
(668,716,l),
(709,724,o),
(758,761,o),
(776,793,c)
);
},
{
closed = 1;
nodes = (
(750,1228,ls),
(661,1202,o),
(572,1148,o),
(504,1109,c),
(491,1094,o),
(489,1080,o),
(493,1071,cs),
(498,1061,o),
(506,1053,o),
(528,1047,c),
(602,1057,o),
(705,1065,o),
(793,1095,cs),
(886,1128,l),
(890,1169,o),
(869,1230,o),
(845,1253,c)
);
}
);
width = 987.13;
},
{
layerId = "E2DCE989-2657-47EA-91FE-B2106D1F3005";
shapes = (
{
closed = 1;
nodes = (
(403,1333,ls),
(408,1243,o),
(446,1145,o),
(472,1056,c),
(484,1041,o),
(501,1034,o),
(517,1034,cs),
(535,1034,o),
(551,1042,o),
(563,1056,c),
(589,1145,o),
(627,1243,o),
(632,1333,cs),
(638,1460,l),
(582,1483,o),
(452,1483,o),
(397,1460,c)
);
},
{
closed = 1;
nodes = (
(198,1019,ls),
(284,994,o),
(390,998,o),
(483,998,c),
(501,1003,o),
(511,1016,o),
(517,1034,cs),
(524,1049,o),
(521,1067,o),
(511,1083,c),
(435,1136,o),
(352,1204,o),
(267,1235,cs),
(149,1279,l),
(109,1233,o),
(69,1110,o),
(75,1050,c)
);
},
{
closed = 1;
nodes = (
(432,724,ls),
(482,800,o),
(511,900,o),
(542,988,c),
(541,1006,o),
(533,1022,o),
(517,1034,cs),
(503,1044,o),
(486,1046,o),
(468,1041,c),
(394,986,o),
(304,929,o),
(248,857,cs),
(170,759,l),
(201,706,o),
(305,632,o),
(364,618,c)
);
},
{
closed = 1;
nodes = (
(785,855,ls),
(728,927,o),
(642,986,o),
(568,1041,c),
(550,1046,o),
(533,1044,o),
(517,1034,cs),
(503,1022,o),
(496,1006,o),
(494,988,c),
(524,901,o),
(552,798,o),
(602,723,cs),
(672,616,l),
(731,632,o),
(834,708,o),
(864,758,c)
);
},
{
closed = 1;
nodes = (
(769,1232,ls),
(683,1198,o),
(601,1138,o),
(525,1083,c),
(515,1067,o),
(511,1049,o),
(517,1034,cs),
(524,1016,o),
(537,1004,o),
(554,998,c),
(645,998,o),
(752,993,o),
(838,1016,cs),
(962,1051,l),
(966,1112,o),
(924,1234,o),
(886,1277,c)
);
}
);
width = 1036.894;
}
);
unicode = 42;
},
{
glyphname = comma;
kernLeft = comma;
kernRight = comma;
lastChange = "2023-06-05 08:33:36 +0000";
layers = (
{
layerId = "E2DCCAAC-30DB-413E-982C-2359C46E476F";
shapes = (
{
closed = 1;
nodes = (
(346,195,o),
(295,203,o),
(262,203,cs),
(227,203,o),
(174,191,o),
(157,182,c),
(147,168,o),
(141,123,o),
(141,92,cs),
(141,62,o),
(149,23,o),
(157,8,c),
(173,-4,o),
(211,-14,o),
(234,-18,c),
(233,-102,o),
(170,-176,o),
(80,-220,c),
(78,-249,o),
(94,-287,o),
(122,-301,c),
(297,-237,o),
(383,-92,o),
(383,64,cs),
(383,107,o),
(375,157,o),
(363,182,c)
);
}
);
width = 508.7;
},
{
layerId = "33C6340C-19D4-4BAD-95FA-1AE5BEBDD22C";
shapes = (
{
closed = 1;
nodes = (
(416,277,o),
(349,292,o),
(297,292,cs),
(244,292,o),
(179,276,o),
(143,255,c),
(130,230,o),
(120,172,o),
(120,132,cs),
(120,93,o),
(130,40,o),
(143,15,c),
(163,0,o),
(197,-10,o),
(230,-16,c),
(216,-109,o),
(137,-183,o),
(43,-216,c),
(38,-272,o),
(65,-334,o),
(118,-361,c),
(355,-287,o),
(475,-92,o),
(475,97,cs),
(475,154,o),
(469,202,o),
(450,255,c)
);
}
);
width = 590.48;
},
{
layerId = "11405D41-D873-4173-B059-BD48D7789B90";
shapes = (
{
closed = 1;
nodes = (
(341,189,o),
(291,196,o),
(259,196,cs),
(226,196,o),
(174,185,o),
(158,177,c),
(148,163,o),
(142,119,o),
(142,89,cs),
(142,60,o),
(150,22,o),
(158,8,c),
(174,-4,o),
(212,-14,o),
(234,-18,c),
(234,-102,o),
(173,-176,o),
(83,-220,c),
(81,-247,o),
(96,-283,o),
(122,-297,c),
(293,-233,o),
(376,-92,o),
(376,61,cs),
(376,103,o),
(368,153,o),
(357,177,c)
);
}
);
width = 502.59;
},
{
layerId = "E2DCE989-2657-47EA-91FE-B2106D1F3005";
shapes = (
{
closed = 1;
nodes = (
(410,270,o),
(344,284,o),
(294,284,cs),
(243,284,o),
(179,269,o),
(144,249,c),
(131,225,o),
(121,167,o),
(121,128,cs),
(121,91,o),
(131,39,o),
(144,15,c),
(164,0,o),
(198,-10,o),
(230,-16,c),
(217,-109,o),
(140,-183,o),
(47,-216,c),
(42,-269,o),
(67,-330,o),
(118,-356,c),
(350,-282,o),
(466,-92,o),
(466,94,cs),
(466,150,o),
(460,198,o),
(443,249,c)
);
}
);
width = 583.242;
}
);
unicode = 44;
},
{
glyphname = period;
kernLeft = comma;
kernRight = comma;
lastChange = "2023-06-05 08:33:36 +0000";
layers = (
{
layerId = "E2DCCAAC-30DB-413E-982C-2359C46E476F";
shapes = (
{
closed = 1;
nodes = (
(131,70,o),
(137,24,o),
(147,7,c),
(166,-4,o),
(213,-14,o),
(250,-14,cs),
(283,-14,o),
(338,-4,o),
(353,7,c),
(364,24,o),
(370,70,o),
(370,94,cs),
(370,118,o),
(364,165,o),
(353,182,c),
(336,193,o),
(283,203,o),
(250,203,cs),
(213,203,o),
(166,193,o),
(147,182,c),
(137,165,o),
(131,118,o),
(131,94,cs)
);
}
);
width = 500.2;
},
{
layerId = "33C6340C-19D4-4BAD-95FA-1AE5BEBDD22C";
shapes = (
{
closed = 1;
nodes = (
(106,112,o),
(112,51,o),
(130,15,c),
(170,-9,o),
(234,-21,o),
(287,-21,cs),
(339,-21,o),
(404,-9,o),
(444,15,c),
(461,51,o),
(467,112,o),
(467,136,cs),
(467,160,o),
(461,221,o),
(444,257,c),
(404,280,o),
(339,294,o),
(287,294,cs),
(234,294,o),
(170,280,o),
(130,257,c),
(112,221,o),
(106,160,o),
(106,136,cs)
);
}
);
width = 573.28;
},
{
layerId = "11405D41-D873-4173-B059-BD48D7789B90";
shapes = (
{
closed = 1;
nodes = (
(133,67,o),
(139,22,o),
(148,6,c),
(166,-4,o),
(212,-14,o),
(247,-14,cs),
(279,-14,o),
(333,-4,o),
(346,6,c),
(357,22,o),
(363,67,o),
(363,91,cs),
(363,115,o),
(357,161,o),
(346,177,c),
(331,187,o),
(279,196,o),
(247,196,cs),
(212,196,o),
(166,187,o),
(148,177,c),
(139,161,o),
(133,115,o),
(133,91,cs)
);
}
);
width = 494.74;
},
{
layerId = "E2DCE989-2657-47EA-91FE-B2106D1F3005";
shapes = (
{
closed = 1;
nodes = (
(109,108,o),
(115,49,o),
(131,14,c),
(170,-9,o),
(233,-21,o),
(283,-21,cs),
(334,-21,o),
(398,-9,o),
(436,14,c),
(453,49,o),
(459,108,o),
(459,132,cs),
(459,156,o),
(453,216,o),
(436,251,c),
(398,273,o),
(334,286,o),
(283,286,cs),
(233,286,o),
(170,273,o),
(131,251,c),
(115,216,o),
(109,156,o),
(109,132,cs)
);
}
);
width = 566.812;
}
);
unicode = 46;
},
{
glyphname = question;
lastChange = "2023-06-05 08:33:36 +0000";
layers = (
{
layerId = "E2DCCAAC-30DB-413E-982C-2359C46E476F";
shapes = (
{
closed = 1;
nodes = (
(36,1251,o),
(64,1200,o),
(88,1177,c),
(173,1219,o),
(270,1253,o),
(365,1253,cs),
(499,1253,o),
(583,1171,o),
(583,1047,cs),
(583,916,o),
(480,822,o),
(321,738,cs),
(230,689,l),
(218,671,l),
(226,373,l),
(243,366,o),
(267,364,o),
(287,364,cs),
(307,364,o),
(326,366,o),
(343,373,c),
(357,604,l),
(485,678,ls),
(629,761,o),
(745,883,o),
(745,1060,cs),
(745,1263,o),
(601,1389,o),
(397,1389,cs),
(267,1389,o),
(139,1350,o),
(32,1295,c)
);
},
{
closed = 1;
nodes = (
(250,187,o),
(213,179,o),
(192,166,c),
(184,152,o),
(178,109,o),
(178,86,cs),
(178,63,o),
(184,21,o),
(192,6,c),
(213,-7,o),
(250,-15,o),
(286,-15,cs),
(319,-15,o),
(360,-7,o),
(381,6,c),
(389,21,o),
(395,63,o),
(395,86,cs),
(395,109,o),
(389,152,o),
(381,166,c),
(360,179,o),
(319,187,o),
(286,187,cs)
);
}
);
width = 764.4;
},
{
layerId = "33C6340C-19D4-4BAD-95FA-1AE5BEBDD22C";
shapes = (
{
closed = 1;
nodes = (
(7,1202,o),
(57,1103,o),
(115,1059,c),
(185,1097,o),
(263,1129,o),
(344,1129,cs),
(449,1129,o),
(501,1077,o),
(501,998,cs),
(501,909,o),
(419,849,o),
(309,798,cs),
(199,749,l),
(174,718,l),
(191,420,l),
(229,408,o),
(275,404,o),
(312,404,cs),
(350,404,o),
(390,408,o),
(426,420,c),
(446,573,l),
(567,636,ls),
(716,714,o),
(828,833,o),
(828,1033,cs),
(828,1244,o),
(686,1397,o),
(414,1397,cs),
(257,1397,o),
(114,1348,o),
(3,1281,c)
);
},
{
closed = 1;
nodes = (
(257,272,o),
(201,261,o),
(163,239,c),
(149,214,o),
(141,158,o),
(141,121,cs),
(141,84,o),
(149,29,o),
(163,4,c),
(201,-17,o),
(257,-29,o),
(312,-29,cs),
(366,-29,o),
(422,-17,o),
(459,4,c),
(474,29,o),
(482,84,o),
(482,121,cs),
(482,158,o),
(474,214,o),
(459,239,c),
(422,261,o),
(366,272,o),
(312,272,cs)
);
}
);
width = 840.96;
},
{
layerId = "11405D41-D873-4173-B059-BD48D7789B90";
shapes = (
{
closed = 1;
nodes = (
(38,1255,o),
(64,1207,o),
(86,1186,c),
(172,1228,o),
(270,1262,o),
(366,1262,cs),
(503,1262,o),
(589,1178,o),
(589,1051,cs),
(589,916,o),
(485,820,o),
(322,733,cs),
(232,685,l),
(221,667,l),
(229,369,l),
(244,363,o),
(266,361,o),
(285,361,cs),
(304,361,o),
(321,363,o),
(337,369,c),
(350,606,l),
(479,681,ls),
(623,765,o),
(739,887,o),
(739,1062,cs),
(739,1264,o),
(595,1388,o),
(396,1388,cs),
(268,1388,o),
(141,1350,o),
(34,1296,c)
);
},
{
closed = 1;
nodes = (
(250,181,o),
(214,173,o),
(194,161,c),
(187,147,o),
(181,105,o),
(181,83,cs),
(181,62,o),
(187,20,o),
(194,6,c),
(214,-6,o),
(250,-14,o),
(284,-14,cs),
(315,-14,o),
(355,-6,o),
(375,6,c),
(383,20,o),
(389,62,o),
(389,83,cs),
(389,105,o),
(383,147,o),
(375,161,c),
(355,173,o),
(315,181,o),
(284,181,cs)
);
}
);
width = 758.68;
},
{
layerId = "E2DCE989-2657-47EA-91FE-B2106D1F3005";
shapes = (
{
closed = 1;
nodes = (
(9,1207,o),
(57,1111,o),
(113,1069,c),
(184,1108,o),
(263,1140,o),
(345,1140,cs),
(454,1140,o),
(508,1086,o),
(508,1003,cs),
(508,909,o),
(424,847,o),
(310,793,cs),
(201,744,l),
(178,714,l),
(194,416,l),
(230,404,o),
(274,400,o),
(309,400,cs),
(347,400,o),
(384,404,o),
(419,416,c),
(438,575,l),
(560,640,ls),
(709,718,o),
(821,838,o),
(821,1035,cs),
(821,1245,o),
(679,1396,o),
(413,1396,cs),
(258,1396,o),
(117,1348,o),
(5,1282,c)
);
},
{
closed = 1;
nodes = (
(257,265,o),
(202,254,o),
(165,233,c),
(152,209,o),
(145,153,o),
(145,118,cs),
(145,83,o),
(152,28,o),
(165,4,c),
(202,-16,o),
(257,-28,o),
(310,-28,cs),
(362,-28,o),
(417,-16,o),
(452,4,c),
(467,28,o),
(475,83,o),
(475,118,cs),
(475,153,o),
(467,209,o),
(452,233,c),
(417,254,o),
(362,265,o),
(310,265,cs)
);
}
);
width = 834.184;
}
);
unicode = 63;
},
{
glyphname = exclam;
lastChange = "2023-06-05 08:33:36 +0000";
layers = (
{
layerId = "E2DCCAAC-30DB-413E-982C-2359C46E476F";
shapes = (
{
closed = 1;
nodes = (
(233,366,o),
(255,364,o),
(275,364,cs),
(296,364,o),
(317,366,o),
(335,373,c),
(347,642,o),
(361,911,o),
(361,1180,cs),
(361,1364,l),
(318,1377,o),
(233,1377,o),
(190,1366,c),
(190,1181,ls),
(190,911,o),
(205,644,o),
(216,373,c)
);
},
{
closed = 1;
nodes = (
(240,187,o),
(203,179,o),
(182,167,c),
(174,152,o),
(168,109,o),
(168,86,cs),
(168,64,o),
(174,21,o),
(182,6,c),
(203,-6,o),
(240,-14,o),
(275,-14,cs),
(309,-14,o),
(348,-6,o),
(369,6,c),
(377,21,o),
(383,64,o),
(383,86,cs),
(383,109,o),
(377,152,o),
(369,167,c),
(348,179,o),
(309,187,o),
(275,187,cs)
);
}
);
width = 553.6;
},
{
layerId = "33C6340C-19D4-4BAD-95FA-1AE5BEBDD22C";
shapes = (
{
closed = 1;
nodes = (
(221,406,o),
(272,404,o),
(300,404,cs),
(331,404,o),
(375,406,o),
(417,418,c),
(436,675,o),
(474,930,o),
(474,1187,cs),
(474,1364,l),
(388,1389,o),
(212,1389,o),
(126,1364,c),
(126,1191,ls),
(126,930,o),
(158,675,o),
(181,418,c)
);
},
{
closed = 1;
nodes = (
(245,278,o),
(189,266,o),
(151,245,c),
(137,220,o),
(130,163,o),
(130,126,cs),
(130,90,o),
(137,35,o),
(151,10,c),
(189,-11,o),
(245,-23,o),
(300,-23,cs),
(354,-23,o),
(410,-11,o),
(447,10,c),
(462,35,o),
(470,90,o),
(470,126,cs),
(470,163,o),
(462,220,o),
(447,245,c),
(410,266,o),
(354,278,o),
(300,278,cs)
);
}
);
width = 616.24;
},
{
layerId = "11405D41-D873-4173-B059-BD48D7789B90";
shapes = (
{
closed = 1;
nodes = (
(234,363,o),
(254,361,o),
(273,361,cs),
(293,361,o),
(313,363,o),
(329,369,c),
(340,639,o),
(352,910,o),
(352,1180,cs),
(352,1364,l),
(313,1376,o),
(234,1376,o),
(195,1366,c),
(195,1180,ls),
(195,910,o),
(209,642,o),
(219,369,c)
);
},
{
closed = 1;
nodes = (
(240,180,o),
(204,173,o),
(184,161,c),
(177,147,o),
(171,105,o),
(171,83,cs),
(171,62,o),
(177,20,o),
(184,6,c),
(204,-6,o),
(240,-14,o),
(273,-14,cs),
(305,-14,o),
(343,-6,o),
(363,6,c),
(371,20,o),
(377,62,o),
(377,83,cs),
(377,105,o),
(371,147,o),
(363,161,c),
(343,173,o),
(305,180,o),
(273,180,cs)
);
}
);
width = 548.92;
},
{
layerId = "E2DCE989-2657-47EA-91FE-B2106D1F3005";
shapes = (
{
closed = 1;
nodes = (
(222,402,o),
(271,400,o),
(297,400,cs),
(328,400,o),
(370,402,o),
(410,414,c),
(428,672,o),
(464,929,o),
(464,1187,cs),
(464,1364,l),
(382,1388,o),
(213,1388,o),
(132,1364,c),
(132,1190,ls),
(132,929,o),
(162,673,o),
(184,414,c)
);
},
{
closed = 1;
nodes = (
(245,270,o),
(190,259,o),
(153,238,c),
(141,214,o),
(134,158,o),
(134,122,cs),
(134,88,o),
(141,34,o),
(153,10,c),
(190,-11,o),
(245,-22,o),
(297,-22,cs),
(350,-22,o),
(405,-11,o),
(440,10,c),
(455,34,o),
(463,88,o),
(463,122,cs),
(463,158,o),
(455,214,o),
(440,238,c),
(405,259,o),
(350,270,o),
(297,270,cs)
);
}
);
width = 610.696;
}
);
unicode = 33;
},
{
glyphname = at;
lastChange = "2023-06-05 08:33:36 +0000";
layers = (
{
layerId = "E2DCCAAC-30DB-413E-982C-2359C46E476F";
shapes = (
{
closed = 1;
nodes = (
(1288,826,l),
(1206,900,o),
(1092,957,o),
(959,957,cs),
(703,957,o),
(563,722,o),
(563,452,cs),
(563,184,o),
(686,19,o),
(877,19,cs),
(1030,19,o),
(1177,140,o),
(1225,258,c),
(1166,341,l),
(1128,244,o),
(1005,143,o),
(906,143,cs),
(769,143,o),
(711,277,o),
(711,453,cs),
(711,666,o),
(800,843,o),
(959,843,cs),
(1037,843,o),
(1108,807,o),
(1144,769,c),
(1144,267,ls),
(1144,123,o),
(1229,28,o),
(1380,28,cs),
(1581,28,o),
(1769,225,o),
(1769,573,cs),
(1769,1035,o),
(1444,1346,o),
(965,1346,cs),
(463,1346,o),
(114,960,o),
(114,455,cs),
(114,-68,o),
(436,-361,o),
(877,-361,cs),
(1037,-361,o),
(1192,-332,o),
(1340,-278,c),
(1340,-238,o),
(1320,-190,o),
(1296,-170,c),
(1176,-219,o),
(1037,-242,o),
(884,-242,cs),
(519,-242,o),
(263,9,o),
(263,455,cs),
(263,894,o),
(540,1233,o),
(965,1233,cs),
(1364,1233,o),
(1622,968,o),
(1622,579,cs),
(1622,259,o),
(1500,147,o),
(1390,147,cs),
(1321,147,o),
(1288,190,o),
(1288,307,cs)
);
}
);
width = 1863.5;
},
{
layerId = "33C6340C-19D4-4BAD-95FA-1AE5BEBDD22C";
shapes = (
{
closed = 1;
nodes = (
(1391,822,l),
(1314,900,o),
(1162,973,o),
(1006,973,cs),
(728,973,o),
(575,760,o),
(575,454,cs),
(575,184,o),
(686,-6,o),
(902,-6,cs),
(1067,-6,o),
(1224,140,o),
(1275,254,c),
(1168,391,l),
(1132,306,o),
(1048,226,o),
(974,226,cs),
(896,226,o),
(873,302,o),
(873,469,cs),
(873,626,o),
(897,756,o),
(1006,756,cs),
(1045,756,o),
(1073,746,o),
(1102,722,c),
(1102,319,ls),
(1102,144,o),
(1245,1,o),
(1451,1,cs),
(1666,1,o),
(1896,176,o),
(1896,592,cs),
(1896,1091,o),
(1514,1372,o),
(1012,1372,cs),
(473,1372,o),
(77,987,o),
(77,443,cs),
(77,-143,o),
(429,-406,o),
(922,-406,cs),
(1086,-406,o),
(1289,-361,o),
(1415,-305,c),
(1415,-238,o),
(1390,-150,o),
(1338,-93,c),
(1213,-141,o),
(1080,-169,o),
(946,-169,cs),
(602,-169,o),
(388,26,o),
(388,443,cs),
(388,854,o),
(635,1142,o),
(1012,1142,cs),
(1360,1142,o),
(1589,939,o),
(1589,600,cs),
(1589,317,o),
(1527,227,o),
(1452,227,cs),
(1408,227,o),
(1391,256,o),
(1391,328,cs)
);
}
);
width = 1959.2;
},
{
layerId = "11405D41-D873-4173-B059-BD48D7789B90";
shapes = (
{
closed = 1;
nodes = (
(1280,826,l),
(1198,900,o),
(1087,956,o),
(955,956,cs),
(701,956,o),
(562,719,o),
(562,452,cs),
(562,184,o),
(686,21,o),
(875,21,cs),
(1027,21,o),
(1173,140,o),
(1221,258,c),
(1166,337,l),
(1128,239,o),
(1002,137,o),
(901,137,cs),
(760,137,o),
(699,275,o),
(699,452,cs),
(699,669,o),
(793,850,o),
(955,850,cs),
(1036,850,o),
(1111,811,o),
(1147,773,c),
(1147,263,ls),
(1147,122,o),
(1228,30,o),
(1375,30,cs),
(1575,30,o),
(1760,229,o),
(1760,572,cs),
(1760,1031,o),
(1439,1344,o),
(961,1344,cs),
(462,1344,o),
(117,958,o),
(117,456,cs),
(117,-63,o),
(436,-357,o),
(873,-357,cs),
(1033,-357,o),
(1185,-330,o),
(1335,-276,c),
(1335,-238,o),
(1315,-193,o),
(1293,-176,c),
(1173,-225,o),
(1034,-247,o),
(879,-247,cs),
(513,-247,o),
(254,8,o),
(254,456,cs),
(254,897,o),
(533,1240,o),
(961,1240,cs),
(1364,1240,o),
(1625,970,o),
(1625,578,cs),
(1625,255,o),
(1498,141,o),
(1385,141,cs),
(1315,141,o),
(1280,185,o),
(1280,306,cs)
);
}
);
width = 1856.35;
},
{
layerId = "E2DCE989-2657-47EA-91FE-B2106D1F3005";
shapes = (
{
closed = 1;
nodes = (
(1382,822,l),
(1304,900,o),
(1156,972,o),
(1002,972,cs),
(725,972,o),
(574,756,o),
(574,454,cs),
(574,184,o),
(686,-3,o),
(899,-3,cs),
(1063,-3,o),
(1220,140,o),
(1270,254,c),
(1168,386,l),
(1132,301,o),
(1045,219,o),
(968,219,cs),
(885,219,o),
(858,299,o),
(858,468,cs),
(858,630,o),
(889,764,o),
(1002,764,cs),
(1044,764,o),
(1076,751,o),
(1106,726,c),
(1106,314,ls),
(1106,143,o),
(1244,3,o),
(1445,3,cs),
(1659,3,o),
(1885,181,o),
(1885,591,cs),
(1885,1086,o),
(1508,1370,o),
(1008,1370,cs),
(472,1370,o),
(81,985,o),
(81,444,cs),
(81,-137,o),
(429,-402,o),
(918,-402,cs),
(1081,-402,o),
(1281,-359,o),
(1409,-303,c),
(1409,-238,o),
(1384,-154,o),
(1334,-100,c),
(1209,-148,o),
(1077,-175,o),
(941,-175,cs),
(595,-175,o),
(377,25,o),
(377,444,cs),
(377,858,o),
(627,1150,o),
(1008,1150,cs),
(1360,1150,o),
(1592,941,o),
(1592,599,cs),
(1592,312,o),
(1525,220,o),
(1447,220,cs),
(1401,220,o),
(1382,250,o),
(1382,327,cs)
);
}
);
width = 1950.73;
}
);
unicode = 64;
},
{
glyphname = parenleft;
lastChange = "2023-06-05 08:33:36 +0000";
layers = (
{
layerId = "E2DCCAAC-30DB-413E-982C-2359C46E476F";
shapes = (
{
closed = 1;
nodes = (
(295,874,o),
(382,1200,o),
(589,1458,c),
(568,1506,o),
(534,1532,o),
(496,1543,c),
(262,1309,o),
(129,900,o),
(129,552,cs),
(129,203,o),
(262,-206,o),
(496,-439,c),
(534,-428,o),
(568,-403,o),
(589,-355,c),
(382,-97,o),
(295,230,o),
(295,552,cs)
);
}
);
width = 615.7;
},
{
layerId = "33C6340C-19D4-4BAD-95FA-1AE5BEBDD22C";
shapes = (
{
closed = 1;
nodes = (
(442,834,o),
(529,1167,o),
(711,1423,c),
(672,1506,o),
(602,1561,o),
(531,1586,c),
(255,1325,o),
(117,900,o),
(117,545,cs),
(117,189,o),
(255,-235,o),
(531,-497,c),
(602,-472,o),
(672,-417,o),
(711,-334,c),
(529,-78,o),
(442,256,o),
(442,545,cs)
);
}
);
width = 749.68;
},
{
layerId = "11405D41-D873-4173-B059-BD48D7789B90";
shapes = (
{
closed = 1;
nodes = (
(284,877,o),
(371,1203,o),
(580,1461,c),
(560,1506,o),
(529,1530,o),
(493,1540,c),
(262,1308,o),
(130,900,o),
(130,552,cs),
(130,204,o),
(262,-204,o),
(493,-435,c),
(529,-425,o),
(560,-402,o),
(580,-356,c),
(371,-98,o),
(284,228,o),
(284,552,cs)
);
}
);
width = 605.69;
},
{
layerId = "E2DCE989-2657-47EA-91FE-B2106D1F3005";
shapes = (
{
closed = 1;
nodes = (
(429,838,o),
(516,1170,o),
(700,1426,c),
(663,1506,o),
(596,1559,o),
(528,1583,c),
(255,1324,o),
(118,900,o),
(118,545,cs),
(118,190,o),
(255,-233,o),
(528,-492,c),
(596,-468,o),
(663,-416,o),
(700,-335,c),
(516,-79,o),
(429,254,o),
(429,545,cs)
);
}
);
width = 737.822;
}
);
unicode = 40;
},
